<?xml version="1.0" encoding="UTF-8"?>
<svg xmlns="http://www.w3.org/2000/svg" width="170.31" height="162" xmlns:xlink="http://www.w3.org/1999/xlink" viewBox="0 0 170.31 162">
  <defs>
    <style>
      .cls-1 {
        fill: #242528;
      }

      .cls-1, .cls-2, .cls-3, .cls-4, .cls-5, .cls-6, .cls-7, .cls-8, .cls-9, .cls-10, .cls-11, .cls-12, .cls-13, .cls-14, .cls-15, .cls-16, .cls-17, .cls-18 {
        stroke-width: 0px;
      }

      .cls-2 {
        fill: #a9c1d0;
      }

      .cls-3 {
        fill: #ddf2fa;
      }

      .cls-4 {
        fill: #f9d448;
      }

      .cls-19 {
        clip-path: url(#clipPath-2);
      }

      .cls-5 {
        fill: #accfe1;
      }

      .cls-6 {
        fill: #f48e39;
      }

      .cls-7 {
        fill: none;
      }

      .cls-20 {
        clip-path: url(#clipPath-1);
      }

      .cls-8 {
        fill: #272528;
      }

      .cls-9 {
        fill: #2f77a7;
      }

      .cls-10 {
        fill: #2c8bc4;
      }

      .cls-21 {
        clip-path: url(#clipPath);
      }

      .cls-22 {
        clip-path: url(#clipPath-3);
      }

      .cls-11 {
        fill: #2c5192;
      }

      .cls-12 {
        fill: #80b4d5;
      }

      .cls-13 {
        fill: #2b447d;
      }

      .cls-14 {
        fill: #2e9dd5;
      }

      .cls-15 {
        fill: #23bde6;
      }

      .cls-16 {
        fill: #fff;
      }

      .cls-17 {
        fill: #303c71;
      }

      .cls-18 {
        fill: #2c3462;
      }
    </style>
    <clipPath id="clipPath">
      <path class="cls-7" d="M100.29,35.28c-4.02,1.24-11.28,1.66-22.73,2.49-2.99.22-5.19.38-7.32.64-3.67.45-6.34,1.18-8.39,2.16-3.65,1.74-5.45,4.08-5.98,6.26-.44,1.83-.09,3.51.38,4.8.42,1.15.72,2.06,1.06,4.64.26,1.98.09,4.37.31,6.42h1.11c.68-1.62,2.23-3.74,5.71-5.36,4.36-2.04,10.43-2.15,17.32-2.63,8.51-.59,16.8-.92,21.86-2.4,7.35-2.15,10.12-6.21,10.12-6.21,0,0-5.16-8.57-1.79-18.31-2.2,2.31-6.36,5.86-11.67,7.5"/>
    </clipPath>
    <clipPath id="clipPath-1">
      <path class="cls-7" d="M100.29,35.28c-4.02,1.24-11.28,1.66-22.73,2.49-2.99.22-5.19.38-7.32.64-3.67.45-6.34,1.18-8.39,2.16-3.65,1.74-5.45,4.08-5.98,6.26-.44,1.83-.09,3.51.38,4.8.42,1.15.72,2.06,1.06,4.64.26,1.98.09,4.37.31,6.42h1.11c.68-1.61,2.23-3.74,5.71-5.36,4.36-2.04,10.43-2.15,17.32-2.63,8.51-.59,16.8-.92,21.86-2.4,7.35-2.15,10.12-6.21,10.12-6.21,0,0-5.16-8.57-1.79-18.31-2.2,2.31-6.36,5.86-11.67,7.5"/>
    </clipPath>
    <clipPath id="clipPath-2">
      <path class="cls-7" d="M116.14,113c-5.72.18-12.41,1.08-20.06,2.3-11.58,1.85-24.39,4.27-40.2,5.92-8.18.85-13.24-.33-15.28-.83-4.68-1.17-6.8-2.93-6.9-4.05-.38.63-.45,2.42-.16,5.46.05,1.02.11,2.18-.05,3.62-.16,1.45-.81,3.4-.5,5.09.44,2.4,1.98,4.1,4.48,5.51,1.78,1,4.44,1.79,7.25,2.25,4.44.73,10.86.57,16.59-.23,9.45-1.31,18.62-2.7,26.96-4.1,9.61-1.61,19.79-3.54,28.83-4.1,4.99-.31,10.13.36,13.2,1.19,4.81,1.29,6.73,3.37,6.85,4.61.13-.44.13-.8.09-1.58-.05-1.13-.33-3.03-.42-3.96-.17-1.79-.11-2.88.07-4.26.29-2.2.64-3,.28-4.55-.6-2.55-3.17-4.84-6.83-6.32-3.33-1.35-6.91-1.99-12.02-1.99-.7,0-1.43.01-2.2.04"/>
    </clipPath>
    <clipPath id="clipPath-3">
      <polygon class="cls-7" points="65.65 62.7 2.47 62.7 53.43 99.91 34.05 159.9 85.16 122.77 136.28 159.9 116.83 99.88 167.84 62.7 104.68 62.7 85.16 2.61 65.65 62.7"/>
    </clipPath>
  </defs>
  <path class="cls-16" d="M137.8,162l-38.41-27.9c-2.66.38-5.28.78-7.82,1.17-1.12.17-2.21.34-3.28.5-9.01,1.36-15.78,2.28-22.96,3.25l-1.46.2-31.35,22.77,7.43-23c-1.57-.53-3.04-1.22-4.29-2.01-2.97-1.88-4.32-3.9-4.54-6.76-.09-1.18.17-2.42.42-3.61.2-.96.39-1.87.4-2.7.03-1.53-.08-2.82-.18-3.95-.08-1-.16-1.94-.13-2.84.03-.7.18-1.33.46-1.88.57-1.36,2.27-3.01,7.07-3.27.4-.02.82-.03,1.26-.03,2.98,0,6.24.5,8.01.81l1.07-3.3h-8.32l-1.34-1.34.06-.17s-.1.04-.15.06c-2.33.96-5.14,1.44-8.36,1.44h-9.29l-1.31-1.31.14-2.84c.26-5.14.45-13.56.5-17.92-.13-.13-.25-.26-.38-.4-2.15-1.94-3.36-4.65-3.41-7.64-.03-1.39.17-2.77.59-4.13L0,61.89h40.99l1.18-7.48,2.31,2.31.81,5.17h10.59c-.03-.65-.03-1.26-.02-1.75,0-.31,0-.62,0-.88,0-.16,0-.31.01-.46,0-.12,0-.25,0-.38v-.03c0-.55-.03-1.06-.05-1.49v-.14c-.16-1.74-.64-2.94-1.1-4.09l-.14-.35c-.64-1.63-1.21-3.61-.6-5.9.72-2.72,2.49-4.88,5.4-6.6,2.43-1.43,5.23-2.29,9.36-2.88,1.24-.18,2.54-.3,4.55-.44L85.16,0l11.25,34.65c.86-.15,1.62-.3,2.3-.48,3.1-.8,5.6-2.01,8.33-4.05,2.65-1.98,6.4-5.84,8.66-8.81-2.61,6.53-3.23,10.8-2.94,14.33.35,3.88,1.7,7.67,3.8,10.69l.38.55-.48.48c-2.79,2.78-6.13,5.63-13.54,7.35l2.33,7.18h65.05l-21.88,15.95c1.06.89,1.97,1.97,2.68,3.16l.08.14c.1.17.2.35.3.53.54,1.04.76,1.69.77,1.72l.16.48-5.47,5.33c.83.87,1.63,1.72,2,2.15,1.4,1.59,3.53,4,3.6,8.02.05,2.78-.95,5.38-2.82,7.33-1.83,1.89-4.28,2.96-6.9,3.01-.88.01-1.72-.07-2.54-.24h-11.3l-.55-.55v.55s-7.67,0-7.67,0l.66,2.04c3.61.21,6.38.79,9.43,1.96,6.36,2.43,7.78,6.03,8.1,7.46.27,1.21.19,2.12,0,3.1-.04.21-.09.43-.14.66-.16.76-.34,1.62-.41,2.38-.09.98-.12,1.93.04,3.37.08.71.19,1.49.28,2.18.08.59.15,1.11.19,1.48.21,1.91.04,4.1-2.76,5.79l-.09.06s-.06.04-.09.05l-.53.31h-.01c-1.24.62-2.74,1.05-4.28,1.22l6.64,20.49M133.43,94.33c.25.55.51,1.11.78,1.68l2.33-2.26c-.17-.19-.31-.34-.41-.45-.39-.44-.75-.89-1.07-1.34-.05.11-.11.22-.17.33-.4.75-.89,1.44-1.47,2.05M64.36,59.93c.29.41.6.83.92,1.26l.7-2.15c-.21.09-.41.19-.61.29-.35.18-.69.38-1.02.6"/>
  <path class="cls-8" d="M137.61,134.41c-.83-1.54-3.12-2.21-7.69-3.53l-.15-.04c-2.56-.63-5.33-1.08-8.23-1.33l-1.51-.13s7.46,11.2,7.56,11.22c4.01.81,9.63-.89,10.39-4.2,0,0,0-1.29-.37-1.98"/>
  <path class="cls-8" d="M51.44,114.22c-1.8-.5-7.85-1.68-12.23-1.44-6.52.35-6.79,3.31-6.51,4.37.46,1.76,3.02,3.11,7.54,4.25.65.15,1.37.23,2.21.24.86.01,1.75-.04,2.61-.09.85-.05,1.73-.1,2.57-.09.41,0,.77.03,1.12.07l.32.03.85-.7,1.52-6.64"/>
  <path class="cls-8" d="M76.38,74.65c-7.98-8.12-15.29-15.76-17.17-23.27l-.6-.22c-2.96,1.93-1.78,4.08-1.93,8.13-.09,2.49.4,14.07,9.23,14.89l10.48.47"/>
  <polygon class="cls-8" points="167.84 62.7 104.68 62.7 85.16 2.6 65.65 62.7 2.47 62.7 53.43 99.91 34.05 159.9 85.16 122.77 136.28 159.9 116.83 99.88 167.84 62.7"/>
  <polygon class="cls-3" points="55.74 99.16 8.49 64.66 38.07 64.66 41.84 66.17 44.31 64.66 67.07 64.66 85.16 8.96 103.25 64.66 161.81 64.66 114.53 99.13 132.55 154.76 85.16 120.34 37.78 154.76 55.74 99.16"/>
  <path class="cls-11" d="M71.35,93.5l3.58-11.03h-38.57l15.2,11.03h19.79ZM99.2,93.5h19.8l15.18-11.03h-38.56l3.58,11.03M101.82,66.63l-16.66-51.3-16.66,51.3H14.56l15.19,11.04h46.76l8.66-26.66,8.65,26.66h46.76l15.18-11.04h-53.94M100.53,98.32l7.29,22.42-22.65-16.46-22.66,16.46,7.29-22.42h-3.98l-2.93,2.19-2.47-2.19h-2.22l-16.68,51.29,43.64-31.7,43.64,31.7-16.67-51.29h-11.6"/>
  <path class="cls-10" d="M85.16,18.71l15.9,48.96h51.48l-12.31,8.94h-45.66l-9.41-29-9.42,29H30.08l-12.31-8.94h51.49l15.9-48.96ZM130.96,83.52l-12.3,8.94h-18.7l-2.9-8.94h33.9M73.5,83.52l-2.9,8.94h-18.69l-3.38-2.45-1.71-.23-1.74-2.27-5.5-3.99h33.91M111.37,99.37l15.44,47.51-36.99-26.87-.04-.62-.98-.12-3.63-2.64-41.65,30.25,15.44-47.51h1.17l2.6,1.87,3.29-1.87h2.34l-7.84,24.11,24.65-17.91,24.64,17.91-7.84-24.11h9.4M85.16,15.33l-16.66,51.3H14.55l15.19,11.04h19.98l.83.57.56-.57h25.39l8.66-26.66,8.65,26.66h46.76l15.18-11.04h-53.94l-16.66-51.3M134.18,82.48h-38.56l3.57,11.03h17.54l1.23,1.35.51-1.35h.52l15.18-11.03M74.93,82.48h-38.57l15.2,11.03h19.79l3.58-11.03M112.13,98.32h-11.6l7.29,22.42-22.65-16.46-22.66,16.46,7.29-22.42h-3.71l-3.42,2.34-2.85-2.34h-1.62l-16.67,51.29,43.64-31.7,43.64,31.7-16.67-51.29"/>
  <polygon class="cls-8" points="51.89 101.45 50.38 107.32 51.69 107.32 53.69 101.87 51.89 101.45"/>
  <path class="cls-1" d="M42.26,140.87c-.1-.04-.2-.07-.29-.11l1.33-4.13h.32s-1.37,4.25-1.37,4.25M55.79,141.68l6.64-4.82h.81s-6,4.6-6,4.6c-.49.08-.97.16-1.44.22"/>
  <path class="cls-2" d="M44.19,141.41c-.77-.17-1.42-.36-1.92-.55l1.37-4.24,2.1.03-1.55,4.76M51.99,142.01l7.15-5.2,3.29.04-6.64,4.82c-1.34.18-2.61.29-3.8.33"/>
  <path class="cls-13" d="M50.17,142.04c-1.92-.02-3.58-.19-4.95-.42l1.61-4.95,10.56.13-7.22,5.25"/>
  <path class="cls-9" d="M45.22,141.62c-.37-.06-.71-.13-1.03-.2l1.55-4.76h1.1s-1.61,4.97-1.61,4.97M50.5,142.04c-.11,0-.22,0-.33,0l7.22-5.25,1.75.02-7.15,5.2c-.51.02-1.01.03-1.49.03"/>
  <path class="cls-1" d="M107.04,136.63l-7.18-5.34.36-.02,7.31,5.31c-.16.02-.33.03-.49.05M128.35,137.92c-.36-.3-.87-.56-1.51-.78l-2.28-7.03.73-.03,3.06,7.85"/>
  <path class="cls-2" d="M107.52,136.58l-7.31-5.31,3.13-.15,7.17,5.21c-1.04.07-2.04.16-3,.25M126.84,137.14c-.64-.22-1.41-.4-2.27-.54l-2.08-6.39,2.07-.1,2.28,7.03"/>
  <path class="cls-13" d="M123.41,136.43c-1.87-.23-4.07-.33-6.36-.33-1.62,0-3.28.05-4.9.13l-7.14-5.19,16.39-.79,2,6.17"/>
  <path class="cls-9" d="M110.52,136.33l-7.17-5.21,1.67-.08,7.14,5.19c-.55.03-1.1.06-1.64.1M124.57,136.59c-.37-.06-.75-.12-1.15-.17l-2.01-6.17,1.08-.05,2.08,6.39"/>
  <path class="cls-1" d="M101.27,58.57l-2.46-7.57,1.67-.1,2.36,7.25c-.51.16-1.03.3-1.58.42M67.24,62.72l2.98-10.02.76-.05-2.97,9.14c-.35.27-.61.58-.77.93"/>
  <path class="cls-2" d="M99.31,58.9l-2.53-7.79,2.03-.12,2.46,7.57c-.61.14-1.26.25-1.96.34M82.39,59.55l2.51-7.73.52-.03,2.49,7.66c-1.85.03-3.71.06-5.52.1M68.01,61.79l2.97-9.14,2.11-.12-2.66,8.17c-1.02.28-1.84.64-2.42,1.09"/>
  <path class="cls-13" d="M89,59.43l-2.5-7.7,9.21-.55,2.55,7.84c-1.75.17-3.82.26-6.46.34-.92.03-1.85.05-2.79.07M71.62,60.41l2.58-7.95,9.57-.57-2.5,7.69c-3.69.11-7.1.31-9.66.83"/>
  <path class="cls-9" d="M98.25,59.02l-2.55-7.84,1.08-.06,2.53,7.79c-.34.05-.69.09-1.06.12M87.9,59.45l-2.49-7.66,1.08-.06,2.5,7.7c-.36,0-.73.01-1.09.02M81.28,59.58l2.5-7.69,1.12-.07-2.51,7.73c-.37,0-.74.02-1.11.03M70.43,60.7l2.65-8.17,1.12-.07-2.58,7.95c-.42.09-.82.18-1.19.29"/>
  <path class="cls-8" d="M111.97,35.71c-.27-3.3.36-7.25,1.71-10.87-1.67,2.09-4.06,4.37-6.15,5.92-2.56,1.9-5.15,3.29-8.61,4.18-2.67.69-6.18,1.02-9.93,1.31-2.79.21-9.47.66-14.81,1-2.43.15-3.91.29-5.3.49-4,.57-6.74,1.41-9.06,2.78-2.66,1.56-4.35,3.55-5.03,6.11-.56,2.09,0,3.92.58,5.4.49,1.24,1.09,2.61,1.28,4.66.16,1.84-.07,3.81.11,6l2.15,1.49,1.96-1.49c.68-1.36,1.92-2.93,4.17-4.08,1.21-.62,2.91-1.22,4.72-1.48,6.65-.96,14.53-1.27,23.49-1.87,14.44-.98,19.14-4.92,22.69-8.47-2.03-2.91-3.56-6.83-3.94-11.08"/>
  <path class="cls-14" d="M58.75,62.7c.68-1.61,2.23-3.74,5.71-5.37,4.36-2.04,10.43-2.15,17.32-2.63,8.51-.59,16.8-.92,21.86-2.4,7.35-2.15,10.12-6.21,10.12-6.21,0,0-5.15-8.57-1.79-18.31-2.19,2.31-6.36,5.86-11.67,7.5-4.02,1.24-11.28,1.66-22.73,2.49-3,.22-5.19.38-7.32.64-3.67.45-6.34,1.18-8.38,2.16-3.65,1.74-5.45,4.08-5.98,6.26-.44,1.83-.09,3.51.38,4.8.42,1.15.72,2.06,1.06,4.63.26,1.98.09,4.37.31,6.42h1.11"/>
  <g class="cls-21">
    <path class="cls-11" d="M112.41,43.09c-.91-2.45-1.74-6.2-1.39-10.43-2.42,2.78-5.86,5.06-10.93,6.31-2.39.59-4.93.89-8.43,1.2-4.71.43-9.51.7-14.58,1.06-5.25.37-8.2.36-11.81,1.42-5.9,1.73-8.98,5.22-9.31,8.82.36.98,1.12,2.98,1.36,4.81.14,1.07-.1,2.96-.09,4.24,1.12-3.44,4.2-5.59,7.86-6.95,3.7-1.37,7.04-1.69,13.89-2.16,5.7-.39,13.84-.91,17.28-1.23,3.02-.29,4.99-.65,6.48-1.06,3.81-1.06,7.51-3.46,9.67-6.03"/>
    <path class="cls-15" d="M110.91,32.5c-2.61,3-6.94,5.6-12.58,6.62-1.91.35-4.05.59-6.68.83-3.37.3-6.73.53-10.3.77-1.41.09-2.83.19-4.28.29l-1.16.08c-3.14.22-5.24.42-7.37.73-8.24,1.23-12.46,5.49-12.81,9.39l.37.31c.23-3.71,4.18-8.21,12.53-9.46,2.37-.36,4.7-.57,8.46-.83,5.07-.36,9.87-.63,14.58-1.06,2.67-.24,4.78-.49,6.7-.83,5.79-1.03,10.15-3.62,12.56-6.39l.25-.9v-.03s-.27.47-.27.47M112.41,42.91c-2.16,2.57-6.29,5.48-11.77,6.62-1.17.25-2.57.48-4.38.65-3.44.33-11.57.85-17.28,1.23-4.24.29-7.33.57-9.82.97-6.81,1.09-11.02,4.45-11.94,7.73l.26.29c1.34-3.93,6.32-6.88,11.62-7.69,2.57-.39,6.03-.77,9.89-1.03,1.05-.07,2.18-.15,3.34-.22,5.22-.35,11.11-.76,13.92-1.03,1.74-.16,3.24-.39,4.49-.65,5.56-1.16,9.59-3.94,11.86-6.69l-.2-.18Z"/>
  </g>
  <g class="cls-20">
    <path class="cls-18" d="M56.08,50.86c-.32-2.21,1.09-7.13,7.36-10.07-6.16,2.07-7.92,5.36-8.16,7.22-.24,1.86.81,2.85.81,2.85"/>
    <path class="cls-18" d="M63.65,42.12c-6.18,2.06-7.92,5.42-8.16,7.29-.24,1.86.81,2.81.81,2.81-.32-2.21,1.08-7.15,7.35-10.1"/>
    <path class="cls-18" d="M63.85,43.46c-6.21,2.06-7.92,5.49-8.17,7.35-.24,1.86.82,2.77.82,2.77-.32-2.21,1.08-7.17,7.35-10.12"/>
    <path class="cls-18" d="M64.06,44.8c-6.24,2.05-7.93,5.55-8.17,7.41-.24,1.86.82,2.73.82,2.73-.32-2.21,1.08-7.2,7.35-10.14"/>
    <path class="cls-18" d="M64.27,46.14c-6.26,2.04-7.93,5.61-8.17,7.48-.24,1.86.82,2.69.82,2.69-.32-2.21,1.08-7.22,7.35-10.17"/>
    <path class="cls-18" d="M64.47,47.48c-6.29,2.03-7.93,5.67-8.17,7.54-.24,1.86.83,2.65.83,2.65-.32-2.21,1.08-7.24,7.34-10.19"/>
    <path class="cls-18" d="M64.68,48.81c-6.31,2.02-7.93,5.74-8.17,7.6-.24,1.86.83,2.61.83,2.61-.32-2.21,1.07-7.27,7.34-10.21"/>
    <path class="cls-18" d="M64.89,50.15c-6.34,2.01-7.93,5.8-8.18,7.67-.24,1.86.84,2.57.84,2.57-.32-2.21,1.07-7.29,7.34-10.24"/>
    <path class="cls-18" d="M65.1,51.49c-6.36,2-7.94,5.86-8.18,7.73-.24,1.86.84,2.53.84,2.53-.32-2.21,1.07-7.31,7.34-10.26"/>
    <path class="cls-18" d="M65.3,52.83c-6.39,2-7.94,5.93-8.18,7.79-.24,1.86.84,2.49.84,2.49-.32-2.21,1.07-7.34,7.34-10.28"/>
    <path class="cls-18" d="M65.51,54.17c-6.41,1.99-7.94,5.99-8.18,7.85-.24,1.86.85,2.45.85,2.45-.32-2.21,1.06-7.36,7.33-10.31"/>
    <path class="cls-18" d="M58.39,65.84c-.32-2.21,1.06-7.38,7.33-10.33-6.44,1.98-7.94,6.05-8.18,7.92-.24,1.86.85,2.41.85,2.41"/>
  </g>
  <path class="cls-17" d="M95.22,40.73c-1.21.16-2.25.25-2.25.25l-1.18,4.11-.28-4.05-2.87.2.17,2.4-2.13-2.27-2.39.16.18,2.68c-.5-.47-1.15-.74-1.89-.74-.08,0-.15,0-.23,0-.88.06-1.61.46-2.11,1.09-.36-.92-1-1.67-1.83-2.09-.64-.33-1.5-.46-2.54-.37-.86.07-2.31.2-2.31.2l-.99.09.59,8.62,3.34-.26c.28-.02.52-.05.75-.09,1.01-.18,1.77-.62,2.37-1.4.12-.15.23-.32.33-.49.24.46.54.78.81,1,.54.44,1.18.67,1.87.67.15,0,.29,0,.46-.03h.07c.69-.14,1.25-.5,1.66-.92l.05.69,2.87-.2-.17-2.48,2.19,2.35,3.74-.27.54-1.93.31-.02.74,1.83c2.03-.17,3.86-.48,3.86-.48l-3.71-8.25M76.76,47.74c-.07.11-.16.19-.26.24l-.21-3.1s.06.02.08.02c.09.04.17.09.24.17.09.1.17.24.24.41.08.2.12.44.14.72.05.7-.03,1.25-.22,1.54"/>
  <path class="cls-10" d="M73.75,50.33l-.5-7.33.36-.03s1.44-.13,2.3-.2c.91-.07,1.66.03,2.19.3,1.01.52,1.69,1.65,1.78,2.95.04.57-.01,1.11-.15,1.59-.14.48-.36.91-.64,1.27-.51.65-1.12,1-1.97,1.16-.2.04-.42.06-.68.08l-2.69.21M75.59,44.24l.31,4.5c.07,0,.14-.01.2-.02.18-.02.4-.06.51-.09.27-.09.51-.27.69-.53.28-.42.39-1.07.33-1.94-.02-.34-.08-.64-.18-.9-.09-.25-.21-.45-.36-.61-.14-.15-.3-.26-.48-.34-.17-.07-.35-.09-.62-.08-.11,0-.26.01-.41.02M82.62,49.8c-.54,0-1.05-.18-1.47-.52-.41-.34-.92-.97-1-2.11-.12-1.71.77-2.93,2.22-3.03.06,0,.12,0,.18,0,1.06,0,2.13.79,2.23,2.39.02.34.04.78.04.78l.06.97-.04.08c-.28.6-.94,1.28-1.8,1.43h-.07c-.12.03-.24.04-.35.04M82.38,47.46s.02.1.04.14c.07.24.26.66.7.62.28-.03.61-.36.86-.87h0s-1.59.11-1.59.11ZM82.43,45.5s-.05.1-.07.17c-.03.12-.05.26-.06.41v.03s.31-.02.31-.02c-.04-.21-.08-.38-.14-.52-.01-.04-.03-.06-.04-.08M85.47,49.5l-.51-7.36,1.44-.1,3.17,3.37-.25-3.57,1.58-.11.49,7.08,2.09-7.25s.77-.09,1.33-.17l3.17,7.06s-1.02.2-2.47.34l-.74-1.85-1.24.08-.54,1.94-2.96.2-3.23-3.46.25,3.66-1.58.11ZM94.05,45.18l-.1.36.24-.02-.14-.34Z"/>
  <path class="cls-16" d="M77.93,43.39c-.47-.24-1.14-.33-2-.27-.86.07-2.3.2-2.3.2l.45,6.61,2.32-.18c.24-.02.45-.04.64-.08.77-.14,1.3-.44,1.75-1.02.25-.32.45-.71.58-1.15.13-.44.17-.93.14-1.46-.08-1.18-.69-2.19-1.58-2.65M77.99,46.13c.07.95-.06,1.68-.39,2.17-.22.33-.53.57-.88.68-.15.05-.4.09-.59.11-.16.02-.43.03-.57.04l-.36-5.22c.18-.01.57-.05.78-.05.32-.01.55.02.77.11.23.09.43.24.61.43.18.19.32.44.43.73.11.29.18.63.2,1.01M90,46.4l-3.75-3.99-.9.06.46,6.62.85-.06-.3-4.33,3.81,4.08.85-.06-.46-6.63-.84.06.29,4.22ZM94.58,41.8l-.82.1-1.96,6.79.9-.06.54-1.94,1.76-.12.75,1.85c.92-.08,1.71-.22,1.71-.22l-2.88-6.4ZM93.46,45.93l.53-1.89.73,1.81-1.26.09ZM82.4,44.5c-1.25.09-1.98,1.15-1.88,2.64.07,1.01.51,1.56.87,1.85.43.35.98.5,1.53.42h.06c.73-.14,1.3-.72,1.53-1.23l-.06-.99-.15.31c-.31.64-.74,1.03-1.15,1.07-.72.07-1-.59-1.08-.88-.05-.17-.09-.36-.1-.58l2.47-.17-.03-.4c-.09-1.32-.88-2.12-2.01-2.05M83.03,46.43l-1.11.07c0-.14,0-.29.01-.44.01-.18.04-.34.08-.49.04-.14.09-.25.16-.34.06-.08.14-.12.23-.13.11,0,.28.02.41.33.1.25.17.58.22.99"/>
  <path class="cls-17" d="M94.03,44.87l-.21.76.51-.03-.29-.73M82.42,45.37c-.11,0-.24.44-.24.85l.54-.04c-.05-.47-.2-.82-.31-.81"/>
  <path class="cls-14" d="M44.71,138.26c-2.93-.47-4.76-1.11-6.73-2.04-3.39-1.6-4.69-3.87-4.96-5.62-.29-1.93.25-4.12.38-5.36.16-1.44.17-2.43.13-3.45-.28-3.04-.27-4.7.05-5.61.09,1.12,2.33,3.03,7.01,4.21,3.56.89,8.76,1.52,15.28.83,15.81-1.65,28.62-4.07,40.2-5.92,7.65-1.22,14.05-2.02,19.77-2.2,6.31-.2,10.96.49,14.65,1.94,3.48,1.37,6.09,3.68,6.69,6.23.36,1.55,0,2.35-.28,4.55-.18,1.37-.24,2.47-.07,4.26.09.93.37,2.83.42,3.96.03.78.03,1.14-.09,1.58-.12-1.23-2.04-3.31-6.85-4.61-3.07-.82-8.21-1.5-13.2-1.19-9.04.56-19.22,2.49-28.83,4.1-8.34,1.4-17.51,2.79-26.96,4.1-5.74.8-12.15.93-16.59.23"/>
  <path class="cls-8" d="M138.13,134.17c-.09-.81-.33-2.35-.47-3.66-.16-1.44-.15-2.43-.05-3.53.1-1.03.37-2.18.56-3.12.2-.98.24-1.75,0-2.77-.47-2.12-2.51-4.93-7.6-6.88-3.56-1.36-7.26-2.15-14.4-1.97-2.96.08-5.7.38-9.66.78-7.18.73-38.77,6.04-51.49,6.76-2.88.16-6.19.16-8.19-.05-9.22-.98-11.14-3.38-10.68-4.4.03-.06-2.6-.59-2.6-.59-.4.23-1.07.99-1.12,2.43-.06,1.84.36,3.86.31,6.77-.03,2.01-.97,4.29-.82,6.24.21,2.8,1.65,4.55,4.16,6.14,1.93,1.22,5.09,2.63,9.58,3.07,5.03.49,10.83.04,15.93-.66,8.5-1.16,16.05-2.16,26.57-3.75,10.31-1.56,23.55-3.76,32.16-3.52,11.22.31,15.21,4.08,14.6,5.91-.04.13.18,1.49.18,1.49l.47.43c2.38-1.37,2.76-3.05,2.54-5.12"/>
  <path class="cls-14" d="M44.71,138.26c-2.81-.46-5.47-1.25-7.25-2.25-2.5-1.41-4.04-3.11-4.48-5.51-.31-1.68.34-3.64.5-5.09.16-1.44.1-2.6.05-3.62-.28-3.04-.22-4.83.16-5.46.09,1.13,2.21,2.88,6.9,4.05,2.03.51,7.09,1.69,15.28.83,15.81-1.65,28.62-4.07,40.2-5.92,7.65-1.22,14.34-2.12,20.06-2.3,6.31-.2,10.42.41,14.21,1.95,3.66,1.48,6.24,3.77,6.83,6.32.36,1.55,0,2.35-.28,4.55-.18,1.37-.24,2.47-.07,4.26.09.93.37,2.83.42,3.96.03.78.03,1.14-.09,1.58-.12-1.23-2.04-3.31-6.85-4.61-3.07-.82-8.21-1.5-13.2-1.19-9.04.56-19.22,2.49-28.83,4.1-8.34,1.4-17.51,2.79-26.96,4.1-5.74.8-12.15.95-16.59.23"/>
  <g class="cls-19">
    <path class="cls-11" d="M137.19,125.91c.08-.68.09-1.19.16-1.65-.67-1.91-2.49-4.09-6.02-5.74-4.04-1.88-8.78-2.39-14.09-2.31-3.49.06-7.53.61-11.01,1.11-13.77,2-29.92,4.71-45.11,6.8-6.05.83-10.96.97-14.88.66-8.18-.63-12.36-3.29-12.92-5.54.03.58.16,1.82.22,2.55.05,1.02.03,2.01-.13,3.45-.06.5-.39,1.33-.49,2.04.52,3.82,4.77,6.82,11.08,7.81,4.43.69,8.27.52,13.01.16,2.42-.18,5.81-.7,8.36-1.06,17.09-2.39,36.91-6.03,49.54-7.48,3.21-.37,7.56-.38,10.87.06,6.22.83,10.37,3.4,11.49,5.57,0-.01,0-.4,0-.43-.09-.71-.07-1.4-.1-1.86-.12-1.85-.14-2.94,0-4.16"/>
    <path class="cls-15" d="M46.24,124.79c.96.08,1.99.13,3.07.15,3.33.06,7.25-.18,11.81-.8,15.19-2.08,31.34-4.8,45.11-6.8,3.48-.5,7.52-1.06,11.01-1.11.72-.01,1.44-.01,2.14,0,4.45.08,8.48.68,11.97,2.31,3.52,1.64,5.14,3.89,5.87,5.89l.18-.33.02-.15c-.84-2.38-2.76-4.24-5.86-5.69-3.22-1.51-7.03-2.24-12.14-2.32-.68-.01-1.44.02-2.18.03-3.49.06-7.53.61-11.04,1.12-5.76.84-11.85,1.78-18.3,2.79-8.84,1.37-17.98,2.8-26.81,4.01-4.32.59-8.28.86-11.77.8-1.05-.02-2.08-.07-3.05-.15-7.95-.61-12.39-3.42-12.93-5.57l-.1.47c.48,2.13,4.83,4.73,13,5.37M125.79,126.78c-1.45-.18-3.09-.3-4.75-.33-2.14-.04-4.32.06-6.12.26-12.64,1.46-32.46,5.09-49.55,7.48-2.55.36-5.94.88-8.36,1.06-2.69.2-5.09.34-7.47.3-1.82-.03-3.62-.17-5.54-.47-6.31-.99-10.56-3.99-11.08-7.81v-.04s-.27.31-.27.31c.6,3.9,4.94,6.81,11.31,7.81,1.82.28,3.64.44,5.58.47,2.33.04,4.69-.09,7.5-.31,1.98-.15,4.59-.52,6.89-.85.52-.07,1.02-.15,1.49-.21,7.54-1.05,15.58-2.34,23.36-3.59,9.83-1.58,19.12-3.07,26.18-3.89,1.79-.21,3.95-.3,6.09-.26,1.71.03,3.27.16,4.64.34,6.68.89,10.32,3.36,11.46,5.44v-.57c-1.13-2-5.18-4.4-11.35-5.16"/>
    <path class="cls-18" d="M33.82,116.08c-.27.74.54,2.17,3.52,3.72,1.88.98,4.41,2,8.7,2.63-6.44-.2-10.66-2.22-12.02-3.42-.72-.64-.84-.84-.89-1.58-.06-.89.69-1.35.69-1.35"/>
    <path class="cls-18" d="M45.91,123.78c-6.27-.23-10.47-2.17-11.93-3.51-.71-.64-.87-.92-.92-1.7-.05-.89.68-1.38.68-1.38-.27.74.52,2.2,3.39,3.79,1.91,1.06,4.49,2.11,8.77,2.79"/>
    <path class="cls-18" d="M45.77,125.13c-6.1-.26-10.27-2.13-11.84-3.59-.7-.65-.9-1.01-.94-1.81-.04-.89.68-1.4.68-1.4-.27.74.51,2.25,3.26,3.87,1.93,1.14,4.56,2.23,8.85,2.94"/>
    <path class="cls-18" d="M45.64,126.47c-5.94-.29-10.07-2.08-11.74-3.68-.69-.66-.94-1.1-.97-1.92-.03-.89.67-1.43.67-1.43-.27.74.49,2.3,3.12,3.94,1.95,1.21,4.63,2.34,8.92,3.1"/>
    <path class="cls-18" d="M45.5,127.81c-5.77-.32-9.87-2.03-11.65-3.77-.68-.67-.97-1.18-1-2.04-.03-.89.66-1.46.66-1.46-.27.74.47,2.35,2.99,4.01,1.97,1.29,4.7,2.45,8.99,3.25"/>
    <path class="cls-18" d="M45.37,129.16c-5.6-.35-9.68-1.98-11.56-3.85-.68-.68-1-1.27-1.02-2.15-.02-.89.66-1.48.66-1.48-.27.74.45,2.41,2.86,4.08,1.99,1.38,4.77,2.56,9.06,3.41"/>
    <path class="cls-18" d="M45.23,130.5c-5.43-.38-9.49-1.93-11.46-3.94-.67-.68-1.04-1.36-1.05-2.27-.01-.89.65-1.51.65-1.51-.27.74.43,2.47,2.73,4.15,2,1.47,4.84,2.68,9.13,3.56"/>
    <path class="cls-18" d="M45.09,131.85c-5.26-.41-9.3-1.87-11.37-4.02-.67-.69-1.07-1.45-1.08-2.38,0-.89.65-1.53.65-1.53-.27.74.4,2.53,2.59,4.22,2.02,1.56,4.91,2.79,9.21,3.71"/>
    <path class="cls-18" d="M44.96,133.19c-5.09-.44-9.11-1.82-11.28-4.11-.66-.69-1.1-1.53-1.1-2.5,0-.89.64-1.56.64-1.56-.26.74.38,2.6,2.46,4.29,2.03,1.65,4.99,2.9,9.28,3.87"/>
    <path class="cls-18" d="M44.82,134.54c-4.93-.47-8.92-1.77-11.18-4.19-.65-.7-1.14-1.62-1.13-2.61,0-.89.63-1.59.63-1.59-.27.74.34,2.66,2.33,4.36,2.04,1.75,5.06,3.02,9.35,4.02"/>
    <path class="cls-18" d="M44.69,135.88c-4.76-.5-8.73-1.71-11.09-4.28-.65-.71-1.17-1.71-1.15-2.72.01-.89.63-1.61.63-1.61-.27.74.31,2.73,2.2,4.44,2.04,1.84,5.13,3.13,9.42,4.18"/>
    <path class="cls-18" d="M33,128.38c-.27.74.27,2.81,2.06,4.51,2.04,1.95,5.2,3.24,9.49,4.33-4.59-.53-8.54-1.65-11-4.36-.64-.71-1.2-1.79-1.18-2.84.02-.89.62-1.64.62-1.64"/>
    <path class="cls-18" d="M136.92,136.19c.27-.74-.24-2.4-2.58-3.97-2-1.33-5.16-2.65-9.51-3.28,6.54.2,10.36,2.33,11.95,3.84.69.66,1,1.2,1.05,1.94.06.89-.9,1.47-.9,1.47"/>
    <path class="cls-18" d="M124.92,127.64c6.41.24,10.26,2.37,11.85,3.94.68.67,1.02,1.22,1.06,2,.05.89-.88,1.48-.88,1.48.27-.74-.23-2.37-2.5-3.96-1.99-1.4-5.21-2.79-9.53-3.45"/>
    <path class="cls-18" d="M125.01,126.33c6.27.27,10.15,2.42,11.75,4.04.68.68,1.03,1.25,1.07,2.05.04.89-.85,1.49-.85,1.49.27-.74-.22-2.35-2.41-3.96-1.99-1.46-5.26-2.93-9.56-3.62"/>
    <path class="cls-18" d="M125.1,125.02c6.13.31,10.04,2.48,11.65,4.14.67.68,1.05,1.28,1.08,2.1.03.89-.82,1.51-.82,1.51.27-.74-.21-2.32-2.33-3.95-1.99-1.53-5.31-3.07-9.58-3.8"/>
    <path class="cls-18" d="M125.19,123.72c6,.35,9.93,2.53,11.56,4.23.66.69,1.06,1.31,1.09,2.16.03.89-.8,1.52-.8,1.52.27-.74-.2-2.3-2.24-3.95-1.98-1.6-5.35-3.22-9.61-3.97"/>
    <path class="cls-18" d="M125.28,122.41c5.86.38,9.83,2.58,11.46,4.33.65.7,1.08,1.33,1.1,2.21.02.89-.77,1.53-.77,1.53.27-.74-.19-2.28-2.16-3.94-1.97-1.67-5.4-3.36-9.63-4.14"/>
    <path class="cls-18" d="M125.37,121.11c5.73.42,9.72,2.63,11.36,4.43.64.71,1.1,1.36,1.11,2.27.01.89-.75,1.55-.75,1.55.27-.74-.18-2.26-2.07-3.94-1.96-1.74-5.45-3.5-9.66-4.31"/>
    <path class="cls-18" d="M125.46,119.8c5.59.46,9.61,2.68,11.26,4.53.64.71,1.12,1.39,1.12,2.32,0,.89-.72,1.56-.72,1.56.27-.74-.16-2.24-1.99-3.93-1.95-1.81-5.5-3.64-9.68-4.48"/>
    <path class="cls-18" d="M125.54,118.49c5.45.49,9.51,2.73,11.17,4.63.63.72,1.13,1.42,1.13,2.38,0,.89-.69,1.58-.69,1.58.27-.74-.15-2.22-1.9-3.93-1.94-1.88-5.54-3.78-9.7-4.65"/>
    <path class="cls-18" d="M125.63,117.19c5.31.53,9.41,2.77,11.07,4.72.62.73,1.15,1.44,1.14,2.43,0,.89-.67,1.59-.67,1.59.27-.74-.13-2.21-1.82-3.92-1.93-1.96-5.59-3.93-9.73-4.82"/>
    <path class="cls-18" d="M125.72,115.88c5.18.57,9.3,2.82,10.97,4.82.62.73,1.17,1.47,1.16,2.49-.01.89-.64,1.6-.64,1.6.27-.74-.11-2.19-1.74-3.92-1.91-2.03-5.64-4.07-9.75-5"/>
    <path class="cls-18" d="M137.24,123.66c.27-.74-.09-2.18-1.65-3.91-1.9-2.11-5.69-4.21-9.78-5.17,5.04.6,9.19,2.87,10.87,4.92.61.74,1.19,1.5,1.17,2.54-.02.89-.61,1.62-.61,1.62"/>
  </g>
  <path class="cls-17" d="M109.39,117.72c-1.03.13-2.22.31-2.22.31l-.85,4.28-1.11-3.96-2.43.37-.94,3.17-1.85-2.74-2.37.37.04,4.39-2.23-4.07-2.2.34-.84,4.24-.62-4.01-3.58.55.4,2.56-.49.08-.4-2.56-3.57.55.25,1.61c-.14-.13-.28-.25-.43-.36-.96-.7-2.19-.98-3.45-.78-.7.11-1.33.35-1.86.69l.23-.34-3.95.61-.75,1.12-.15-.98-3.55.55.24,1.57c-.97-.9-2.35-1.33-3.84-1.1-.91.14-1.71.51-2.34,1.04l.2-.62-3.17.49-.58,1.71-1.05-1.46s-1.99.27-4.12.44l3.55,4.8.53,3.46c1.73-.2,3.58-.48,3.58-.48l-.54-3.52.17-.5c.42,2.11,2.3,3.88,5.12,3.44,1.83-.29,2.85-1.28,3.35-2.15l.22,1.44,3.55-.55-.03-.21.16.19,4.31-.67-.34-.37c.72.26,1.54.33,2.42.2h0c1.34-.21,2.41-.83,3.11-1.81.09-.13.17-.26.25-.39l.23,1.5,3.58-.55-.48-3.09.49-.08.48,3.09,1.92-.3h0s3.03-.47,3.03-.47l.37-1.98.3-.05.9,1.78,3.81-.59h0s.85-.13.85-.13l-.05-1.3.79,1.19,1.74-.27.42-1.43.35,1.31s2.52-.41,4.45-.67l.38-2,.31-.05.9,1.78s2.03-.27,3.86-.5l-4.46-8.15M67.85,127.19c.27.29.47.75.55,1.27.09.57.08,1.69-.6,1.79h0c-.15.02-.35.02-.58-.24-.26-.28-.45-.75-.53-1.28-.15-.99.19-1.73.6-1.79.19-.03.38.06.56.25M82.04,126.35c.09.57.08,1.69-.6,1.79-.68.11-1.03-.95-1.12-1.52-.15-.99.19-1.73.61-1.79.23-.04.43.12.56.25.27.29.47.75.55,1.27M76.8,127.81l-.88-.96.75-1.12c-.08.47-.08.96,0,1.46.03.21.08.42.14.62"/>
  <path class="cls-10" d="M62.04,125.69l-.86,2.53-1.55-2.15s-1.38.18-2.61.3l2.95,3.98.47,3c.98-.12,2.28-.3,2.28-.3l-.47-3.04,1.52-4.59-1.73.27M66.96,124.83c-2.2.34-3.62,2.22-3.29,4.36.33,2.13,2.02,3.53,4.46,3.16,2.43-.38,3.62-2.22,3.29-4.36-.33-2.15-2.25-3.51-4.46-3.16M67.9,130.89h0c-.44.07-.83-.08-1.16-.44-.35-.38-.59-.95-.7-1.62-.2-1.31.29-2.4,1.14-2.53.4-.06.8.1,1.13.45.36.38.62.96.72,1.62.13.85.04,2.35-1.14,2.53M77.5,123.29l-2.22.34-1.52,2.26-.31-1.97-2.27.35,1.13,7.29,2.27-.35-.07-.45s-.1-.64-.2-1.34l1.4,1.62,2.76-.43-3.38-3.7,2.4-3.62ZM109.03,118.41c-.54.08-1.31.2-1.31.2l-1.28,6.49-1.69-6.01-1.46.22-1.22,4.09-2.39-3.53-1.41.22.06,6.41-3.25-5.94-1.31.2-1.46,7.4-1.08-7-2.3.36.4,2.56-1.77.27-.4-2.56-2.29.36,1.13,7.29,2.3-.35-.48-3.09,1.77-.27.48,3.09,2.19-.34,1.66-.26.37-1.98,1.22-.19.9,1.78,2.44-.38h0s1.2-.19,1.2-.19l-.11-3.03,1.83,2.76.92-.14.95-3.27.8,3s1.85-.3,3.42-.52l.38-1.99,1.22-.19.9,1.78,2.47-.33-3.79-6.92ZM80.59,122.72c-2.21.34-3.62,2.22-3.29,4.36.35,2.25,2.14,3.52,4.45,3.16h0c1.16-.18,2.09-.72,2.68-1.55.56-.78.77-1.78.61-2.81-.16-1.02-.69-1.91-1.49-2.49-.82-.6-1.87-.84-2.96-.67M81.53,128.78c-1.19.18-1.73-1.21-1.86-2.07-.2-1.31.29-2.4,1.15-2.53.4-.06.8.1,1.13.45.36.39.62.96.72,1.62.13.85.04,2.35-1.14,2.53"/>
  <path class="cls-16" d="M94.08,121.09l-1.37,6.93.89-.14.38-1.98,1.74-.27.9,1.78,1.66-.25-3.39-6.2-.8.12M94.12,125.14l.37-1.93.88,1.74-1.24.19ZM61.3,129.01l-1.84-2.55s-.86.1-1.76.2l2.62,3.54.42,2.73,1.57-.19-.42-2.77,1.36-4.1-.92.14-1.01,2.99ZM108.82,118.81l-.8.12-1.37,6.93.89-.14.38-1.98,1.74-.27.9,1.78,1.67-.22-3.41-6.23ZM108.07,122.97l.37-1.93.88,1.74-1.24.19ZM75.5,123.97l-1.95,2.9-.4-2.54-1.55.24,1.02,6.56,1.55-.24-.41-2.7,2.1,2.43,1.89-.29-3.11-3.4,2.1-3.16-1.23.19ZM67.01,125.2c-2,.31-3.28,2.01-2.98,3.94.32,2.03,1.94,3.18,4.03,2.86,2.1-.33,3.3-1.91,2.98-3.94-.3-1.94-2.04-3.17-4.04-2.86M67.96,131.26h0c-.56.09-1.07-.11-1.49-.56-.39-.43-.67-1.07-.79-1.81-.24-1.52.39-2.79,1.45-2.95.52-.08,1.04.12,1.45.56.42.44.71,1.08.82,1.81.21,1.32-.16,2.75-1.45,2.95M80.65,123.08c-2,.31-3.28,2-2.98,3.94.31,2.03,1.94,3.18,4.03,2.85h0c1.06-.16,1.9-.65,2.43-1.4.5-.7.69-1.61.55-2.55-.14-.92-.62-1.73-1.35-2.25-.74-.54-1.7-.76-2.69-.6M81.59,129.14c-1.29.2-2.07-1.05-2.28-2.37-.23-1.52.39-2.79,1.45-2.95.52-.08,1.04.12,1.46.56.41.44.71,1.08.82,1.81.2,1.32-.16,2.75-1.45,2.95M103.57,119.64l-1.37,4.61-2.69-3.98-.87.13.06,6.69.96-.15-.15-4,2.42,3.65.46-.07,1.25-4.31,1.05,3.96,1.58-.25-1.81-6.42-.9.14ZM89.74,124.38l-2.5.39-.4-2.56-1.57.24,1.02,6.56,1.57-.24-.48-3.09,2.5-.39.48,3.09,1.57-.24-1.02-6.56-1.57.24.4,2.56Z"/>
  <path class="cls-17" d="M108.54,121.87l-.15.78.5-.08-.35-.7ZM94.45,124.81l.5-.08-.35-.7-.15.78Z"/>
  <polygon class="cls-8" points="51.47 101.58 50.18 107.3 51.54 107.91 53.5 101.85 51.47 101.58"/>
  <g class="cls-22">
    <path class="cls-1" d="M43.2,65.34l.42-2.64h1.69l.31,1.96h-1.31l-1.1.68M51.41,110.86h-1.52l1.04-3.22.61.27.52-1.62,1.63-4.42-.83-.2.57-1.77-31.62-23.09c.28-.58.6-1.15.97-1.72l32.96,24.06-1.75,5.42h-.48l-2.09,6.27M120.39,110.86h-2.06l-3.8-11.73,26.81-19.54c.87.1,1.69.31,2.45.65l-26.95,19.64,3.56,10.98"/>
    <path class="cls-2" d="M45.92,66.63h-2.92l.2-1.29,1.1-.68h1.31l.31,1.97M57.15,82.48h-6.01c.07-.24.13-.44.18-.6l-4.21-4.21h2.61s1.8,3.53,1.8,3.53l.41-1.35h3.91l.73.73.48,1.62s.03.11.09.3M68.03,82.48h-10l-1.12-2.64h9.83l.73.73.57,1.91M112.3,82.48h-6.01c.2-.65.31-1.01.31-1.03l.48-1.61h3.91l.73.73.48,1.62s.03.11.09.3M130.77,82.48h-14.08c0-.2,0-.31,0-.31l-.07-2.33h2.33s3.51,0,4.45,0c1.33,0,2.45.07,3.57.41.86.23,1.67.6,2.39,1.08h0s0,0,0,0h0c.54.37,1.01.76,1.41,1.14M55.36,107.04l-.66-2.45h-.72l1.75-5.42-32.96-24.06c.35-.55.75-1.09,1.18-1.64l5.78,4.2h5.76c0,.67,0,1.35-.02,2.01.54-.67.91-1.37,1.12-2.01h10.4c-.09,1.61-.56,3.24-1.34,4.81h-9.3l10.99,7.97c.27.62.5,1.24.69,1.87.12-.38.24-.75.36-1.11l3.16,2.29h9.05c.16.48.32.97.48,1.48.6,1.85,1.23,3.76,1.81,5.52h-.02s-2.47-2.18-2.47-2.18h-2.22l-2.83,8.72M91.53,89.14c-.89.11-1.55.22-1.56.22l-1.63.27-1.13,1.1-1.29,1.25c.09.1.19.2.29.3.92.97,1.78,1.89,2.15,2.32,1.11,1.25,2.54,2.88,3.08,5.37.04-1.54.07-3.14.08-4.61.03-2.53.03-4.61.01-6.22M74.75,91.85c-.95,2.4-1.7,4.39-1.83,5.03-.13.61-.16,2.4-.13,4.66l.46-.45,4.76-4.62c-.4-.43-.71-.78-.89-.99-1.07-1.22-1.86-2.42-2.37-3.63M104.6,110.86h-10.38l-3.04-2.21.03-.86s.05-1.3.11-3.16c-.31,1.1-.82,2.12-1.51,3.03l-4.64-3.37-7.42,5.39s-.03-.02-.04-.03c-.05-.03-.1-.06-.17-.11-1.52-1.02-2.66-2.34-3.4-3.41h0c-.47-.67-.91-1.44-1.3-2.33.04,1.54.1,3.16.18,4.7l.12,2.37h-7.41l4.08-12.54h-3.98l-2.25,1.68c0-2.02-.04-3.39-.14-3.85-.09-.41-.42-1.38-.9-2.65h8.83l3.58-11.03h-6.84l.79-2.64h9.83l.35.35c.97-.41,2.03-.64,3.13-.65.04,0,.08,0,.13,0,1.46,0,2.8.33,3.98.96l-.03-.65h19.11l.73.73-.09,1.91h-10.39l3.57,11.03h1.65c0,.8,0,1.67.02,2.59,0,.72.02,1.47.03,2.23h-.37l4.08,12.54M118.33,110.86h-2.12l-4.08-12.54h-10.88c.44-1.33.89-2.71,1.33-4.07.08-.25.16-.5.25-.75h12.95c.16.48.32.97.48,1.48.19.57.38,1.15.57,1.73,0-.75.01-1.51.01-2.27v-.83l1.14,1.25.51-1.35h.52l13.09-9.51c.19.26.38.54.53.81.28-.72.65-1.39,1.1-2l.45-.33h-.2c.14-.17.28-.33.43-.48,1.52-1.56,3.57-2.43,5.77-2.46.04,0,.08,0,.13,0,.35,0,.68.02,1.02.06l-26.81,19.54,3.8,11.73"/>
    <path class="cls-13" d="M49.19,76.62h-12.39s0-.05,0-.07c-.01-.35-.18-.59-.54-.67-.25-.05-.5-.07-.75-.07,0,.27,0,.54,0,.81h-5.43l-6.09-4.42c-.06-1.28-.12-2.32-.12-2.33l-.13-2.19h16.01c1.19.28,2.14.73,2.89,1.23l.19-1.23h3.25l.29,1.82,8.85-1.41.88.88-8.59,4.37,1.68,3.28M47.06,89.81l-.25-.03-1.74-2.27-5.5-3.99h5.5c-.35.58-.75,1.16-1.2,1.72.83.85,1.76,2.03,2.59,3.47.21.36.4.73.58,1.11M60.27,92.46h-8.37l-3.17-2.3c.89-2.8,1.61-5.1,2.08-6.64h6.65c.52,1.71,1.51,4.92,2.81,8.94M70.59,92.46h-8.47c-1.03-2.65-2.48-6.15-3.66-8.94h15.03l-2.9,8.94M115.43,92.46h-12.27c.33-1.03.65-2.01.94-2.94l-.95-.16s-1.05-.17-2.29-.3c-.02.94-.02,2.07-.02,3.39h-.88l-2.9-8.94h8.9v.05s0-.03.01-.05h6.65c.52,1.71,1.51,4.92,2.81,8.94M118.66,92.46h-1.84c-.01-3.94-.07-7.2-.11-8.94h14.25l-12.3,8.94M63.57,100.04v-.04l2.25-1.68h3.98-3.71l-2.52,1.72M55.36,107.04l2.83-8.72h2.22l2.47,2.19h.02s0-.01,0-.01l-.24.17-2.85-2.34h-1.62l-2.83,8.72M64.62,110.86h-7.69l-.73-.73-.34-1.25,3.09-9.52h1.17l2.6,1.87.35-.2c.15.47.3.92.45,1.36.01-.58.02-1.12.03-1.63l2.45-1.39h2.34l-3.74,11.49M92.44,110.86h-.59l-.73-.73v-.23s1.32.95,1.32.95M115.1,110.86h-3.02l-.73-.73-1.5-5.55h-.7l-1.69,6.27h-1.76l-3.74-11.49h9.4l3.74,11.49M82.83,111.09c-1.24,0-2.66-.21-4.08-.87l6.41-4.65,3.96,2.88c-1.62,1.66-3.78,2.6-6.1,2.64-.06,0-.12,0-.18,0"/>
    <path class="cls-9" d="M39.75,67.67h-16.01l-.02-.31h13.23c1.05,0,1.98.12,2.79.31M46.08,67.67h-3.25l.16-1.05h2.92l.16,1.05M35.5,77.66h-5.76l-5.78-4.2s.05-.07.08-.1c-.02-.4-.03-.8-.05-1.17l6.09,4.43h5.43c0,.34,0,.69,0,1.05M49.73,77.67h0s-2.61,0-2.61,0l-.1-.1s0,.05,0,.07c0,.01,0,.02,0,.03h-10.4c.12-.37.19-.73.19-1.05h12.39l.54,1.05M133.73,82.81c.08-.11.17-.22.26-.33h.2l-.45.33M57.47,83.52h-6.65c.12-.4.23-.75.32-1.05h6.01c.07.23.18.58.32,1.05M112.62,83.52h-6.65c.12-.4.23-.75.32-1.05h6.01c.07.23.18.58.32,1.05M47.36,90.45l-10.99-7.97h9.3c-.18.35-.37.7-.58,1.05h-5.5l5.5,3.99,1.74,2.27.25.03c.1.21.2.42.29.64M60.61,93.5h-9.04l-3.16-2.29c.11-.36.23-.71.33-1.05l3.17,2.3h8.37c.11.34.22.69.34,1.05M71.35,93.5h-8.83c-.12-.33-.26-.68-.4-1.05h8.47l2.9-8.94h-15.03c-.08-.18-.15-.36-.23-.54l-.22-.51h10l.04.12.04-.12h6.84l-3.58,11.03M100.84,93.5h-1.65l-3.57-11.03h10.39l-.02.46-.03.59h-8.9l2.9,8.94h.88c0,.34,0,.69,0,1.05M115.77,93.5h-12.95c.12-.35.23-.7.34-1.05h12.27c.11.34.22.69.34,1.05M117.96,94.85l-1.14-1.25c0-.39,0-.77,0-1.15h1.84l12.3-8.94h-14.25c-.01-.46-.02-.81-.02-1.05h14.08c.48.46.86.92,1.18,1.33.05.06.1.13.15.19l-13.09,9.51h-.52l-.51,1.35M55.86,108.88l-.5-1.85,2.83-8.72h1.62l2.85,2.34.24-.16c.06.18.12.36.18.54l-.35.2-2.6-1.87h-1.17l-3.09,9.52M78.76,110.23c-.34-.16-.68-.34-1.02-.55l7.42-5.39,4.64,3.37c-.2.26-.42.52-.66.76,0,.01-.02.02-.03.03l-3.96-2.87-6.41,4.65M65.72,110.86h-1.1l3.74-11.49h-2.34l-2.45,1.39c0-.25,0-.49,0-.72l2.52-1.72h3.71l-4.08,12.54M94.22,110.86h-1.78l-1.31-.95.05-1.26,3.04,2.21M116.2,110.86h-1.1l-3.74-11.49h-9.4l3.74,11.49h-1.1l-4.08-12.54h.37c0,.33.01.66.02.99.11-.33.22-.66.33-.99h10.88l4.08,12.54"/>
  </g>
  <polygon class="cls-1" points="52.07 106.29 53.5 101.85 52.83 101.76 52.86 101.68 53.69 101.87 52.07 106.29"/>
  <polygon class="cls-1" points="50.93 107.64 51.54 107.91 52.07 106.29 53.5 101.85 52.83 101.76 50.93 107.64"/>
  <polygon class="cls-8" points="46.3 69.9 55.17 65.39 54.26 64.48 45.12 65.94 43.73 57.1 42.72 56.09 41.16 66.01 30.08 64.25 30.65 64.82 39.97 69.56 34.98 79.32 35.55 79.89 43.48 71.96 50.83 79.32 50.83 79.32 51.4 79.89 46.3 69.9"/>
  <path class="cls-8" d="M148.35,91.87c-.39-.44-1.28-1.39-2.23-2.39-.1-.1-.2-.21-.29-.31l5.68-5.52s-.21-.61-.72-1.6c-.09-.17-.18-.34-.28-.5-.02-.04-.05-.08-.08-.13-.8-1.33-1.87-2.51-3.07-3.4h-.01c-.07-.06-.14-.11-.21-.16-.2-.14-.41-.28-.62-.41-.06-.03-.11-.07-.17-.1h0c-1.25-.68-2.67-1.05-4.23-1.05-.04,0-.09,0-.13,0-2.28.03-4.39.93-5.96,2.54-.81.83-1.43,1.81-1.86,2.9-.2-.35-.45-.72-.7-1.03-.6-.78-1.44-1.71-2.67-2.54h-.01s0,0,0,0h0c-.75-.5-1.58-.88-2.47-1.12-1.15-.34-2.3-.42-3.68-.42-.96,0-4.59,0-4.59,0h-2.4s.07,2.4.07,2.4c0,.05.15,5.58.15,12.67,0,.78,0,1.57-.01,2.34-.2-.6-.39-1.19-.58-1.78-2.47-7.57-4.15-13.16-4.16-13.22l-.5-1.67-.75-.75h-4.04l-.5,1.67s-.24.81-.67,2.19l.03-.66.12-2.45-.75-.75h-19.73l.03.67c-1.22-.65-2.6-.99-4.11-.99-.04,0-.09,0-.13,0-1.13.02-2.23.25-3.23.68l-.36-.36h-10.15l-.85,2.85-.63-2.1-.75-.75h-10.15l1.39,3.25c2.05,4.81,5.07,12.2,5.36,13.59.13.64.19,3.02.11,6.45-.76-2.3-1.67-5.03-2.52-7.66-2.47-7.57-4.15-13.16-4.16-13.22l-.5-1.67-.75-.75h-4.04l-.5,1.67s-1.4,4.69-3.51,11.22c-.39-1.28-.93-2.53-1.62-3.73-.85-1.49-1.82-2.7-2.67-3.58,1.94-2.44,3.07-5.18,3.22-7.85.16-2.81-.67-5.32-2.34-7.08-.16-.17-.35-.35-.55-.53-.07-.07-.13-.15-.2-.22-1.2-1.27-3.44-2.78-7.3-2.78h-13.66l.16,2.58s.11,1.8.18,3.62c-2.5,3.08-3.68,6.16-3.62,9.39.05,2.82,1.19,5.3,3.18,7.09.2.22.4.43.62.63-.04,4.31-.23,13.03-.5,18.3l-.13,2.48.83.83h8.95c3.11,0,5.82-.47,8.05-1.38.65-.26,1.27-.59,1.86-.96l-.54,1.6.75.75h9.74l1.75-6.48h.72l1.55,5.73.75.75h16.73l-.12-2.45c-.08-1.58-.14-3.26-.19-4.85.41.92.86,1.72,1.34,2.41h0c.77,1.11,1.95,2.46,3.51,3.52.06.04.12.08.17.11,1.81,1.16,3.71,1.49,5.3,1.49.06,0,.13,0,.19,0,2.41-.04,4.66-1.02,6.33-2.76,1.06-1.1,1.82-2.44,2.23-3.91-.06,1.92-.11,3.23-.11,3.26l-.09,2.42.75.75h16.13l1.75-6.48h.72l1.55,5.73.75.75h14.68l-.03-2.36v-.84c.24.61.38.96.38.97l.59,1.47.75.75h11.06c.79.17,1.55.24,2.25.24.06,0,.13,0,.19,0,2.41-.04,4.66-1.02,6.34-2.76,1.72-1.79,2.64-4.18,2.59-6.75-.07-3.72-2-5.91-3.41-7.5M33.91,72.46c.25,0,.52.02.77.07.37.08.54.33.55.69,0,.91-.46,2.1-1.36,3.23,0-1.3.02-2.7.03-3.99M34.39,95.91c-.13.14-.28.27-.44.38-.01-2.32-.03-5.21-.03-7.31.75.98,1.49,2.31,1.54,3.71.05,1.34-.31,2.42-1.06,3.22M76.41,95.11l-4.03,3.91c-.03-2.33,0-4.18.13-4.81.14-.66.91-2.71,1.89-5.19.53,1.25,1.35,2.49,2.45,3.75.19.22.51.57.92,1.02l-1.37,1.33ZM91.73,92.65c-.01,1.51-.05,3.16-.08,4.76-.56-2.57-2.04-4.25-3.18-5.54-.39-.45-1.28-1.39-2.22-2.39-.1-.1-.2-.21-.29-.31l1.33-1.29,1.17-1.14,1.68-.28s.69-.12,1.62-.23c.02,1.66.01,3.81-.01,6.43M103.14,91.5c-.57,1.75-1.16,3.54-1.71,5.23-.02-1.13-.04-2.26-.05-3.33-.03-3.07-.03-5.5,0-7.26,1.28.13,2.34.31,2.36.31l.98.16c-.47,1.49-1,3.14-1.57,4.88M136.29,95.11l-2.33,2.26c-.62-1.31-1.12-2.4-1.5-3.21.68-.65,1.26-1.41,1.72-2.26.29-.53.52-1.09.71-1.68.48.84,1.1,1.69,1.84,2.54.19.22.51.57.92,1.02l-1.37,1.33Z"/>
  <path class="cls-5" d="M146.9,91.72c-.37-.42-1.3-1.41-2.2-2.36-.31-.33-.64-.67-.92-.98l5.88-5.72c-1.62-3.89-4.5-5.45-7.54-5.45h-.12c-2.03.03-3.92.83-5.31,2.26-1.48,1.52-2.28,3.64-2.25,5.98.03,2.25,1.01,4.44,2.99,6.69.25.29.78.86,1.39,1.52,1.04,1.13,2.33,2.54,2.91,3.24.6.73.91,1.36.94,1.94.02.29-.07.56-.22.72-.13.14-.31.21-.55.21-1.36,0-2.27-2.12-2.61-3.33-.29-1.02-.58-2.4-.58-2.4l-5.29,5.13c-.28-.57-.55-1.13-.81-1.67-.92-1.93-1.6-3.42-2.02-4.35.82-.66,1.52-1.49,2.04-2.46.81-1.5,1.18-3.26,1.11-5.23-.07-1.83-.65-3.52-1.68-4.87-1.02-1.33-2.4-2.26-3.99-2.68-1.05-.32-2.13-.38-3.43-.39-.97,0-4.59,0-4.59,0h-1.45s.04,1.45.04,1.45c0,.06.15,5.6.15,12.7,0,2.86-.06,5.76-.12,7.87,0,.05,0,.09,0,.13,0,.09,0,.17,0,.26v.02c0,.11,0,.22,0,.32v.06c0,.09,0,.17,0,.26v.07c0,.06,0,.12,0,.18-.84-2.54-1.95-5.88-2.99-9.07-2.47-7.58-4.15-13.18-4.17-13.24l-.3-1.01h-2.66l-.3,1.01c-.02.06-1.7,5.66-4.17,13.24-1.58,4.84-3.31,10.04-4.05,12.24-.08-2.42-.24-7.37-.28-11.37-.04-3.7-.03-6.47.02-8.27,1.71.12,3.39.4,3.41.4l1.56.26.08-1.58.22-4.45.07-1.48h-17.78l.08,1.48v.1c-1.39-1.24-3.14-1.9-5.12-1.9h-.12c-2.03.03-3.92.83-5.31,2.26-.49.5-.91,1.07-1.24,1.7.25-.59.49-1.15.71-1.68l.84-1.96h-8.06l-.3,1.01-1.5,5.01-1.8-6.02h-8.06l.84,1.96c2,4.69,5.09,12.23,5.41,13.77.31,1.5.12,8.29-.08,12.22l-.04.86-.42-1.24c-.02-.07-2.35-7.01-4.41-13.32-2.47-7.58-4.15-13.18-4.17-13.24l-.3-1.01h-2.66l-.3,1.01c-.02.06-1.7,5.66-4.17,13.24-.47,1.44-.96,2.92-1.43,4.34.16-.86.24-1.75.24-2.66,0-2.7-.76-5.46-2.21-7.99-1.02-1.79-2.21-3.15-3.13-3.97,2.15-2.45,3.4-5.26,3.55-7.97.14-2.59-.58-4.8-2.09-6.39-1.54-1.63-3.83-2.49-6.62-2.49h-12.68l.1,1.6s.12,2.05.19,3.99c-2.5,3-3.69,5.97-3.64,9.06.05,2.96,1.43,5.52,3.8,7.15-.03,4.06-.22,13.4-.51,18.93l-.08,1.59h8.06c2.99,0,5.58-.44,7.7-1.31,2.13-.88,4.04-2.5,5.37-4.57.26-.4.49-.81.71-1.24-1.01,3.03-1.74,5.22-1.75,5.26l-.62,1.86h7.74l.28-1.04,1.47-5.44h2.69l1.47,5.44.28,1.04h15.05l-.07-1.48c-.2-4.09-.39-10.71-.08-12.22.26-1.23,2.27-6.27,4.09-10.63-.27.88-.41,1.83-.39,2.82.03,2.25,1.01,4.44,2.99,6.69.25.29.78.86,1.39,1.53,1.04,1.13,2.33,2.54,2.91,3.24.6.73.91,1.36.94,1.94.01.29-.07.56-.22.72-.13.14-.32.21-.55.21-1.41,0-2.33-2.36-2.61-3.33-.29-.99-.57-2.41-.57-2.41l-1.78,1.73-3.54,3.44-.7.68.39.89c1.81,4.2,4.86,6.42,8.81,6.42.06,0,.12,0,.18,0,2.16-.04,4.18-.92,5.68-2.48,1.55-1.61,2.38-3.77,2.33-6.09-.07-3.38-1.86-5.42-3.17-6.91-.37-.42-1.3-1.41-2.21-2.37-.31-.33-.63-.67-.92-.97l3.74-3.64v.31s1.58-.26,1.58-.26c.02,0,1.7-.28,3.41-.4.05,1.81.06,4.58.02,8.27-.05,5.5-.32,12.78-.33,12.85l-.06,1.46h14.46l.28-1.04,1.47-5.44h2.69l1.47,5.44.28,1.04h13.03l-.02-1.43-.03-2.77-.02-3.92c.11.27.23.55.35.84,1.48,3.54,2.6,6.35,2.61,6.38l.35.89h8.12l-.76-1.48c1.5,1.13,3.29,1.72,5.32,1.72.06,0,.12,0,.18,0,2.16-.04,4.18-.92,5.68-2.48,1.55-1.61,2.38-3.77,2.33-6.09-.06-3.38-1.86-5.42-3.18-6.91M32.24,70.84c.3-.04.59-.06.88-.06h0c.88,0,2.95.22,3.04,2.24.08,1.79-1.16,4.27-3.98,6.25.02-1.96.04-5.63.06-8.43M35.06,96.54c-.69.73-1.6,1.17-2.77,1.34-.02-2.73-.04-8.31-.05-10.98.24-.07.48-.15.72-.24l.21.18s3.09,2.59,3.2,5.82c.06,1.6-.39,2.9-1.31,3.88M83.74,88.21s-.56-.6-.69-.75c-.05-.06-.11-.12-.17-.19-.72-.81-1.19-1.4-1.13-2.13.04-.51.4-.8.72-.82h.04c.75,0,.99.87,1.11,1.66.12.83.11,2.22.11,2.22M125.87,87.83c0-.83.01-1.92.03-3.18h0c.42.15.67.7.67,1.46,0,1.08-.45,1.57-.7,1.72M143.62,88.21s-.56-.6-.69-.75c-.05-.06-.11-.12-.17-.19-.72-.81-1.19-1.4-1.13-2.13.04-.51.4-.8.72-.82h.04c.75,0,.99.87,1.11,1.66.12.83.11,2.22.11,2.22"/>
  <path class="cls-12" d="M146.69,91.91c-.37-.42-1.3-1.41-2.2-2.36-.75-.79-1.52-1.61-1.78-1.9-.05-.06-.11-.12-.16-.19-.77-.87-1.27-1.5-1.2-2.34.06-.67.55-1.06.99-1.08h.05c.81,0,1.18.81,1.31,1.52.17.99.19,2.31.19,2.31l5.41-5.27c-1.51-3.53-4.19-5.1-7.2-5.1-.04,0-.08,0-.11,0-1.96.03-3.77.8-5.11,2.17-1.43,1.47-2.2,3.52-2.17,5.78.03,2.17.99,4.31,2.92,6.51.25.29.78.86,1.38,1.52,1.04,1.13,2.34,2.55,2.92,3.25.64.78.97,1.47,1,2.1.02.37-.09.71-.3.93-.18.2-.44.29-.75.29-1.56,0-2.52-2.29-2.89-3.54-.3-1.05-.47-1.92-.47-1.92l-1.41,1.37-3.55,3.44-.25.24c-.34-.68-.67-1.37-.98-2.02-.99-2.08-1.71-3.65-2.12-4.55.87-.66,1.6-1.51,2.14-2.51.79-1.46,1.15-3.17,1.08-5.08-.07-1.78-.63-3.41-1.62-4.71-.98-1.28-2.31-2.18-3.85-2.58-1.02-.31-2.08-.37-3.35-.37-.97,0-4.59,0-4.59,0h-1.16s.03,1.16.03,1.16c0,.06.16,5.6.16,12.71,0,4.69-.17,9.52-.22,10.75-.87-2.62-2.23-6.7-3.49-10.56-2.47-7.59-4.15-13.19-4.17-13.25l-.24-.8h-2.24l-.24.8c-.02.06-1.7,5.66-4.17,13.25-2.06,6.32-4.39,13.26-4.41,13.33l-.13.39v-.08c0-.07-.28-7.35-.33-12.86-.04-3.96-.03-6.79.03-8.58,1.83.1,3.71.42,3.73.42l1.25.21.06-1.27.22-4.45.06-1.18h-17.19l.06,1.18.04.83c-1.41-1.51-3.28-2.33-5.44-2.33-.04,0-.08,0-.12,0-1.96.03-3.77.8-5.11,2.17-1.43,1.47-2.2,3.52-2.17,5.78.03,2.17.99,4.31,2.92,6.51.25.29.78.86,1.38,1.52,1.04,1.13,2.34,2.54,2.92,3.25.64.78.97,1.47,1,2.1.02.37-.09.71-.3.93-.19.2-.44.29-.75.29-1.75,0-2.66-2.79-2.89-3.54-.22-.75-.45-1.93-.45-1.93l-1.43,1.39-4.1,3.98.31.71c1.76,4.09,4.72,6.25,8.55,6.25.06,0,.11,0,.17,0,2.09-.03,4.03-.88,5.48-2.39,1.49-1.55,2.3-3.64,2.25-5.89-.07-3.28-1.75-5.19-3.11-6.73-.37-.42-1.3-1.41-2.2-2.36-.74-.79-1.52-1.61-1.78-1.9-.05-.06-.11-.12-.16-.19-.77-.87-1.27-1.5-1.2-2.34.05-.67.55-1.06.99-1.08h.05c.81,0,1.2.88,1.33,1.63.12.73.17,1.48.16,2.21l1.68-1.63,2.21-2.15.03.61,1.25-.21s1.91-.32,3.73-.42c.06,1.79.07,4.62.03,8.58-.05,5.5-.33,12.78-.33,12.86l-.04,1.17h13.95l.23-.84,1.52-5.64h3.12l1.53,5.64.23.84h12.53v-1.14s-.04-2.77-.04-2.77l-.03-5.32c.28.64.58,1.36.91,2.14,1.48,3.54,2.6,6.36,2.61,6.38l.28.71h7.47l-.84-1.64s-.16-.31-.4-.79c1.66,1.76,3.78,2.67,6.26,2.67.06,0,.11,0,.17,0,2.08-.03,4.03-.88,5.49-2.39,1.5-1.55,2.3-3.64,2.25-5.89-.06-3.28-1.75-5.19-3.11-6.73M125.89,88.13c-.1.04-.2.07-.31.09,0-.92.01-2.31.03-3.93.17.03.29.06.38.09.54.19.86.83.86,1.73,0,1.31-.63,1.9-.96,2.02M58.42,91.87c-2.48-7.59-4.16-13.19-4.17-13.25l-.24-.8h-2.24l-.24.8c-.02.06-1.7,5.66-4.17,13.25-2.06,6.32-4.39,13.26-4.41,13.33l-.5,1.49h7.13l.23-.84,1.52-5.64h3.12l1.53,5.64.22.84h7.13l-.5-1.49c-.02-.07-2.35-7.01-4.41-13.33M70.59,93.21c.36-1.75,4.04-10.57,5.43-13.82l.67-1.57h-7.42l-.24.8-1.77,5.91-1.77-5.91-.24-.8h-7.42l.67,1.57c1.39,3.25,5.06,12.07,5.43,13.82.32,1.53.13,8.19-.07,12.29l-.06,1.19h6.95l-.06-1.19c-.2-4.1-.39-10.76-.08-12.29M45.57,93.46c0-2.65-.75-5.35-2.17-7.83-1.1-1.92-2.38-3.33-3.31-4.1,2.23-2.45,3.54-5.29,3.69-8.02.14-2.5-.55-4.63-2-6.15-1.48-1.56-3.69-2.39-6.4-2.39h-12.34l.08,1.26s.13,2.14.19,4.12c-2.5,2.97-3.7,5.9-3.64,8.94.05,2.91,1.43,5.42,3.8,6.99-.02,3.97-.22,13.5-.51,19.12l-.07,1.25h7.73c2.95,0,5.5-.44,7.58-1.29,2.07-.85,3.93-2.43,5.23-4.44,1.39-2.15,2.13-4.73,2.13-7.46M22.97,79.15c-.07-.78.11-1.65.48-2.52.02,1.32.02,2.72.03,4.02-.28-.43-.46-.95-.51-1.5M31.93,70.57c.41-.07.81-.11,1.19-.11.76,0,3.25.18,3.36,2.55.09,1.98-1.35,4.76-4.62,6.86.01-1.76.05-6.16.07-9.3M35.29,96.76c-.8.85-1.91,1.34-3.32,1.48-.01-2.65-.05-8.9-.05-11.57.37-.11.73-.23,1.1-.36l.35.29s3.2,2.68,3.32,6.05c.06,1.68-.41,3.06-1.4,4.11"/>
  <path class="cls-3" d="M146.4,92.16c-.36-.42-1.29-1.4-2.19-2.35-.78-.83-1.52-1.61-1.79-1.91-.05-.06-.11-.12-.16-.18-.68-.76-1.38-1.56-1.29-2.62.06-.78.64-1.39,1.35-1.42.02,0,.05,0,.07,0,.9,0,1.47.78,1.64,1.78.14.84.15,1.61.15,1.61l4.68-4.55c-1.4-3.14-3.92-4.64-6.75-4.64-.04,0-.07,0-.11,0-1.85.03-3.58.76-4.85,2.06-1.36,1.4-2.09,3.35-2.06,5.51.03,2.08.96,4.13,2.83,6.27.25.29.77.86,1.38,1.51,1.04,1.14,2.34,2.55,2.93,3.27.7.84,1.05,1.6,1.09,2.32.03.48-.11.91-.4,1.21-.26.27-.61.42-1.03.42-1.95,0-2.94-2.8-3.25-3.83-.21-.7-.31-1.28-.31-1.28l-.95.92-3.55,3.44-.37.36.21.48c.79,1.82,1.81,3.25,3.04,4.26,1.44,1.17,3.18,1.77,5.16,1.77.05,0,.11,0,.16,0,1.99-.03,3.84-.84,5.22-2.28,1.43-1.48,2.19-3.48,2.15-5.62-.06-3.14-1.7-5-3.01-6.49M99.04,92.66c-.04-4.26-.03-7.21.04-8.98,1.96.08,4.13.44,4.16.45l.83.14.04-.84.22-4.45.04-.79h-16.4l.04.79.1,1.98c-1.39-2-3.44-3.08-5.88-3.08-.04,0-.07,0-.11,0-1.86.03-3.58.76-4.85,2.06-1.36,1.4-2.09,3.35-2.06,5.51.03,2.08.96,4.13,2.83,6.27.25.29.77.86,1.38,1.52,1.04,1.14,2.34,2.55,2.93,3.26.7.84,1.05,1.6,1.09,2.32.03.48-.12.91-.4,1.21-.26.27-.61.42-1.03.42-2.12,0-3.1-3.33-3.25-3.83-.2-.69-.3-1.29-.3-1.29l-4.5,4.37-.37.36.21.48c.79,1.82,1.81,3.25,3.04,4.26,1.44,1.17,3.18,1.77,5.16,1.77.05,0,.11,0,.17,0,1.98-.03,3.84-.84,5.22-2.28,1.42-1.48,2.19-3.48,2.15-5.62-.06-3.14-1.7-5-3.01-6.49-.36-.42-1.29-1.4-2.19-2.35-.78-.83-1.52-1.61-1.79-1.91-.05-.06-.11-.12-.16-.18-.68-.76-1.38-1.56-1.29-2.62.06-.78.65-1.39,1.35-1.42.02,0,.05,0,.07,0,1.06,0,1.53,1.06,1.67,1.92.12.69.12,1.48.12,1.48l1.11-1.08,2.81-2.73v.18s.05.84.05.84l.83-.14s2.2-.37,4.16-.45c.07,1.77.08,4.72.04,8.98-.05,5.51-.33,12.79-.33,12.87l-.03.78h6.44l-.03-.78c0-.07-.28-7.36-.33-12.87M132.01,97.8c-1.1-2.32-1.87-4-2.25-4.84.94-.65,1.71-1.52,2.28-2.56.75-1.4,1.1-3.04,1.03-4.89-.06-1.69-.59-3.25-1.55-4.5-.93-1.22-2.19-2.06-3.65-2.45-.97-.29-2-.36-3.25-.36-.97,0-4.59,0-4.59,0h-.77s.02.77.02.77c0,.05.15,5.61.15,12.72,0,5.41-.22,11-.23,11.06l-.07,1.75c-.68-2.03-2.49-7.47-4.14-12.51-2.48-7.59-4.16-13.2-4.17-13.26l-.16-.54h-1.68l-.16.54c-.02.06-1.7,5.67-4.17,13.26-2.06,6.32-4.39,13.26-4.41,13.33l-.33.99h6.32l.15-.56,1.6-5.92h3.69l1.6,5.92.15.56h11.87v-.76s-.04-2.77-.04-2.77l-.04-7.17c.41.94.98,2.26,1.63,3.83,1.49,3.55,2.61,6.36,2.62,6.39l.19.48h6.6l-.56-1.1s-2.13-4.17-3.68-7.42M109.36,94.34l.46-1.77.46,1.77h-.93ZM126.02,88.49c-.24.09-.5.14-.81.16,0-.95,0-2.69.03-4.77.44.02.7.09.87.15.69.24,1.11,1.02,1.11,2.08,0,1.52-.75,2.21-1.2,2.37M70.22,93.14c.36-1.72,3.72-9.84,5.45-13.89l.45-1.05h-6.57l-.16.54-2.13,7.11-2.13-7.11-.16-.54h-6.57l.45,1.05c1.73,4.05,5.09,12.18,5.45,13.89.37,1.75.08,9.53-.07,12.39l-.04.79h6.16l-.04-.79c-.18-3.55-.42-10.7-.07-12.39M58.06,91.99c-2.48-7.59-4.16-13.2-4.17-13.26l-.16-.54h-1.68l-.16.54c-.02.06-1.7,5.67-4.17,13.26-2.06,6.32-4.39,13.26-4.41,13.33l-.33.99h6.32l.15-.56,1.6-5.92h3.69l1.6,5.92.15.56h6.32l-.33-.99c-.02-.07-2.35-7.01-4.41-13.33M52.42,94.34l.46-1.77.46,1.77h-.93ZM45.18,93.46c0-5.56-3.42-10.19-5.57-11.81l-.1-.07.02-.02c2.33-2.45,3.7-5.31,3.86-8.06.13-2.39-.52-4.41-1.89-5.86-1.4-1.48-3.51-2.26-6.11-2.26h-11.92l.05.84s.14,2.25.2,4.28c-2.51,2.94-3.7,5.81-3.64,8.79.05,2.85,1.43,5.3,3.8,6.78-.02,3.83-.22,13.63-.51,19.35l-.04.83h7.31c2.9,0,5.4-.42,7.43-1.26,2-.82,3.79-2.35,5.05-4.29,1.35-2.09,2.06-4.59,2.06-7.24M22.58,79.19c-.11-1.26.36-2.71,1.25-4.06.04,2.04.05,4.5.05,6.56-.73-.59-1.22-1.48-1.31-2.5M31.53,70.24c.55-.12,1.08-.18,1.59-.18,1.75,0,3.66.77,3.75,2.93.1,2.22-1.58,5.37-5.42,7.58,0-.66.05-6.56.08-10.34M35.58,97.03c-.95,1.01-2.3,1.55-4,1.63-.01-2.42-.05-9.69-.06-12.3.53-.14,1.05-.31,1.57-.51l.53.44c.14.11,3.34,2.79,3.46,6.34.06,1.77-.46,3.29-1.51,4.4"/>
  <path class="cls-11" d="M69.49,92.98c.47-2.24,5.49-14.03,5.49-14.03h-4.88l-2.85,9.52-2.85-9.52h-4.88s5.03,11.79,5.49,14.03c.45,2.15-.01,11.82-.05,12.58h4.58c-.04-.76-.5-10.43-.05-12.58M53.16,78.95h-.56s-1.67,5.59-4.18,13.27c-2.09,6.4-4.41,13.34-4.41,13.34h4.7l1.75-6.48h4.85l1.75,6.48h4.7s-2.33-6.94-4.41-13.34c-2.51-7.69-4.18-13.27-4.18-13.27M51.44,95.1l1.44-5.49,1.44,5.49h-2.88ZM98.37,82.92c2.18,0,5,.47,5,.47l.22-4.45h-14.82l.22,4.45s2.81-.47,5-.47c.12,1.83.12,5.47.08,9.75-.05,5.58-.33,12.89-.33,12.89h4.88s-.27-7.31-.33-12.89c-.04-4.27-.03-7.92.08-9.75M145.84,92.65c-.67-.77-3.39-3.6-3.97-4.26-.75-.86-1.76-1.87-1.64-3.36.1-1.21,1.02-2.07,2.07-2.11,1.39-.06,2.32,1.06,2.48,2.53l3.18-3.09c-.81-1.58-2.54-3.76-5.94-3.72-3.41.04-6.22,2.75-6.17,6.8.03,2.21,1.22,4.16,2.64,5.78.67.77,3.38,3.65,4.33,4.8.73.88,1.21,1.79,1.26,2.76.07,1.33-.82,2.42-2.18,2.42-2.91,0-3.98-4.41-3.98-4.41l-3.55,3.44c1.38,3.2,3.73,5.63,7.67,5.57,3.63-.06,6.71-3.06,6.63-7.13-.06-2.82-1.49-4.49-2.83-6.01M128.81,92.66c2.03-1.12,3.64-3.5,3.51-7.13-.11-3.19-2.05-5.58-4.65-6.25-.88-.27-1.86-.33-3.05-.33-.97,0-4.59,0-4.59,0,.02.69.16,6.09.16,12.74,0,5.49-.23,11.09-.23,11.09l-.11,2.78h4.68l-.03-2.77-.05-9.04h.76s.97,2.15,2.33,5.41c1.5,3.59,2.62,6.41,2.62,6.41h4.85s-2.12-4.14-3.69-7.44c-1.63-3.43-2.52-5.46-2.52-5.46M126.29,89.19c-.38.14-.78.21-1.22.22-.26,0-.61,0-.61,0,0,0,0-2.75.05-6.29,0,0,.17,0,.52,0,.64,0,1.04.09,1.35.2.94.33,1.61,1.3,1.61,2.79,0,1.77-.9,2.78-1.69,3.08M110.11,78.95h-.56s-1.67,5.59-4.18,13.27c-2.09,6.4-4.41,13.34-4.41,13.34h4.7l1.75-6.48h4.85l1.75,6.48h4.7s-2.32-6.94-4.41-13.34c-2.51-7.69-4.18-13.27-4.18-13.27M108.39,95.1l1.44-5.49,1.44,5.49h-2.88ZM81.99,88.4c-.75-.86-1.76-1.87-1.64-3.36.1-1.21,1.02-2.07,2.07-2.11,1.39-.06,2.32,1.06,2.48,2.53l3.18-3.09c-.81-1.58-2.54-3.76-5.94-3.72-3.41.04-6.22,2.75-6.16,6.8.03,2.21,1.22,4.16,2.64,5.78.67.77,3.38,3.65,4.32,4.8.73.88,1.21,1.79,1.26,2.76.07,1.33-.82,2.42-2.18,2.42-2.91,0-3.98-4.41-3.98-4.41l-3.54,3.44c1.38,3.2,3.73,5.63,7.67,5.57,3.63-.06,6.7-3.06,6.63-7.13-.05-2.82-1.49-4.49-2.82-6.01-.67-.77-3.39-3.6-3.98-4.26M39.13,82.29s-.02.01-.04.04c-1.45,1.38-3.18,2.54-4.97,3.35.52.43,3.62,3.25,3.75,6.93.08,2.26-.69,3.88-1.72,4.97-1.26,1.33-3.07,1.96-5.37,1.88,0,0-.06-11.59-.06-13.72,6.42-1.45,11.59-7.06,11.88-12.29.22-3.97-1.95-7.29-7.2-7.29h-11.08s.15,2.47.21,4.62c-2.49,2.84-3.71,5.63-3.65,8.49.05,2.92,1.6,5.12,3.8,6.34,0,3.66-.21,13.95-.51,19.85h6.47c2.8,0,5.2-.41,7.13-1.2,3.66-1.51,6.62-5.53,6.62-10.8,0-5.63-3.62-9.94-5.25-11.17M24.68,83c-1.51-.48-2.73-1.88-2.89-3.74-.24-2.67,1.7-5.72,4.3-7.59-.72.76-1.25,1.79-1.48,2.56.06,2.44.08,5.94.07,8.77M30.23,82.17c-.62.27-1.46.85-2.49.87,1.27-.83,2.47-1.79,2.92-2.41,0,0,.06-7.07.08-11.01,3.72-1.04,6.79.32,6.93,3.34.13,2.98-2.3,6.95-7.44,9.21"/>
  <path class="cls-8" d="M23.49,80.66c-.28-.43-.46-.95-.51-1.51-.07-.78.11-1.65.48-2.52.02,1.32.02,2.72.03,4.02"/>
  <path class="cls-8" d="M109.36,94.34h.93l-.47-1.77-.46,1.77M52.42,94.34h.93l-.46-1.77-.46,1.77ZM125.99,84.39c-.09-.03-.21-.07-.38-.09-.02,1.62-.03,3.01-.03,3.93.11-.02.21-.05.31-.09.33-.12.96-.71.96-2.02,0-.89-.32-1.54-.86-1.72"/>
  <path class="cls-10" d="M98.37,82.92c2.18,0,5,.47,5,.47l.22-4.44h-14.82l.22,4.44s2.81-.47,5-.47c.11,1.83.12,5.47.08,9.75-.05,5.58-.33,12.89-.33,12.89h4.88s-.27-7.31-.33-12.89c-.04-4.27-.03-7.92.08-9.75M94.18,105.14c.06-1.66.27-7.72.31-12.46.05-4.93.02-8.13-.08-9.78l-.02-.4h-.4c-1.69,0-3.7.27-4.6.41l-.17-3.53h13.93l-.17,3.53c-.9-.14-2.91-.41-4.6-.41h-.4l-.02.4c-.1,1.65-.13,4.85-.08,9.78.05,4.74.26,10.8.31,12.46h-4ZM145.84,92.66c-.67-.77-3.39-3.6-3.98-4.26-.75-.86-1.76-1.88-1.64-3.36.1-1.21,1.02-2.07,2.07-2.11.03,0,.07,0,.1,0,1.33,0,2.22,1.1,2.38,2.53l3.18-3.09c-.8-1.57-2.51-3.72-5.84-3.72-.03,0-.07,0-.1,0-3.41.04-6.22,2.75-6.17,6.8.03,2.21,1.22,4.16,2.64,5.78.67.77,3.38,3.65,4.33,4.79.73.88,1.21,1.79,1.26,2.76.07,1.33-.82,2.42-2.18,2.42-2.91,0-3.98-4.41-3.98-4.41l-3.55,3.44c1.36,3.15,3.67,5.57,7.52,5.57.05,0,.1,0,.15,0,3.63-.06,6.71-3.06,6.63-7.13-.06-2.82-1.49-4.49-2.83-6.01M146.42,103.45c-1.16,1.21-2.73,1.89-4.39,1.92-.05,0-.1,0-.15,0-3.12,0-5.48-1.7-7.01-5.05l2.84-2.75c.46,1.31,1.7,4.04,4.19,4.04.73,0,1.4-.28,1.88-.78.51-.54.77-1.28.72-2.08-.05-.98-.5-1.96-1.36-3.01-.61-.74-1.92-2.17-2.97-3.31-.6-.65-1.12-1.22-1.36-1.49-1.68-1.92-2.51-3.72-2.54-5.51-.03-1.84.59-3.5,1.73-4.67,1.05-1.08,2.48-1.68,4.02-1.7.03,0,.07,0,.09,0,2.86,0,4.46,1.69,5.32,3.22l-2.4,2.33c-.4-1.29-1.39-2.11-2.63-2.11-.04,0-.08,0-.12,0-1.3.05-2.36,1.13-2.48,2.5-.13,1.56.82,2.64,1.59,3.5.05.06.11.12.16.18.28.32,1.03,1.11,1.82,1.94.89.94,1.81,1.91,2.16,2.31,1.25,1.42,2.67,3.03,2.72,5.74.04,1.83-.61,3.53-1.82,4.78M110.23,89.5l-.41-1.56-.41,1.56-1.44,5.49-.14.53h3.97l-.14-.53-1.44-5.49ZM108.39,95.1l1.44-5.49,1.44,5.49h-2.88ZM81.99,88.4c-.75-.86-1.76-1.88-1.64-3.36.1-1.21,1.02-2.07,2.07-2.11.03,0,.07,0,.1,0,1.33,0,2.22,1.1,2.38,2.53l3.18-3.09c-.8-1.57-2.51-3.72-5.84-3.72-.03,0-.07,0-.1,0-3.41.04-6.22,2.75-6.16,6.8.03,2.21,1.22,4.16,2.64,5.78.67.77,3.38,3.65,4.32,4.79.73.88,1.21,1.79,1.26,2.76.07,1.33-.82,2.42-2.18,2.42-2.91,0-3.98-4.41-3.98-4.41l-3.55,3.44c1.36,3.15,3.67,5.57,7.51,5.57.05,0,.1,0,.15,0,3.63-.06,6.7-3.06,6.62-7.13-.05-2.82-1.49-4.49-2.82-6.01-.67-.77-3.4-3.6-3.98-4.26M86.55,103.45c-1.17,1.21-2.73,1.89-4.39,1.92-.05,0-.1,0-.15,0-3.12,0-5.48-1.7-7.01-5.05l2.84-2.75c.46,1.31,1.7,4.04,4.19,4.04.74,0,1.4-.28,1.88-.78.51-.54.77-1.28.72-2.08-.05-.98-.5-1.96-1.36-3.01-.61-.74-1.92-2.16-2.97-3.31-.6-.65-1.12-1.22-1.36-1.5-1.68-1.91-2.51-3.72-2.54-5.51-.03-1.84.59-3.5,1.73-4.67,1.05-1.08,2.48-1.68,4.02-1.7.03,0,.06,0,.09,0,2.86,0,4.46,1.69,5.32,3.22l-2.4,2.33c-.4-1.29-1.39-2.11-2.63-2.11-.04,0-.08,0-.12,0-1.3.05-2.36,1.13-2.47,2.5-.13,1.56.82,2.64,1.58,3.5.05.06.11.12.16.18.28.32,1.02,1.11,1.81,1.94.89.94,1.81,1.91,2.16,2.32,1.25,1.42,2.66,3.03,2.72,5.74.04,1.83-.61,3.53-1.82,4.78M53.29,89.5l-.41-1.56-.41,1.56-1.44,5.49-.14.53h3.97l-.14-.53-1.44-5.49ZM51.44,95.1l1.44-5.49,1.44,5.49h-2.88ZM53.16,78.95h-.56s-1.67,5.59-4.18,13.27c-2.09,6.4-4.41,13.34-4.41,13.34h4.7l1.75-6.48h4.85l1.75,6.48h4.7s-2.33-6.94-4.41-13.34c-2.51-7.69-4.18-13.27-4.18-13.27M57.38,105.14l-1.67-6.17-.08-.31h-5.5l-.08.31-1.66,6.17h-3.79c.59-1.78,2.5-7.5,4.23-12.78,2.1-6.43,3.63-11.45,4.06-12.87.43,1.43,1.96,6.44,4.06,12.87,1.73,5.29,3.63,11,4.23,12.78h-3.79ZM69.49,92.98c.47-2.24,5.5-14.03,5.5-14.03h-4.88l-2.85,9.52-2.85-9.52h-4.88s5.03,11.79,5.49,14.03c.45,2.15-.01,11.82-.05,12.58h4.58c-.04-.76-.5-10.43-.05-12.58M65.4,105.14c.09-2.03.44-10.22.02-12.24-.41-1.99-4.24-11.09-5.27-13.52h3.92l3.17,10.57.41-1.35,2.76-9.22h3.92c-1.03,2.44-4.85,11.53-5.27,13.52-.42,2.01-.07,10.21.02,12.24h-3.69ZM110.11,78.95h-.56s-1.67,5.59-4.18,13.27c-2.09,6.4-4.41,13.34-4.41,13.34h4.7l1.75-6.48h4.85l1.75,6.48h4.7s-2.32-6.94-4.41-13.34c-2.51-7.69-4.18-13.27-4.18-13.27M114.32,105.14l-1.67-6.17-.08-.31h-5.49l-.09.31-1.67,6.17h-3.79c.59-1.78,2.5-7.5,4.23-12.78,2.1-6.43,3.63-11.45,4.06-12.87.43,1.43,1.96,6.44,4.06,12.87,1.72,5.29,3.63,11,4.23,12.78h-3.79ZM39.13,82.29s-.01.01-.04.04c-1.45,1.38-3.18,2.54-4.97,3.35.52.43,3.62,3.25,3.75,6.93.08,2.26-.69,3.88-1.72,4.97-1.19,1.26-2.88,1.89-5,1.89-.12,0-.25,0-.37,0,0,0-.06-11.59-.06-13.72,6.42-1.45,11.59-7.06,11.88-12.29.22-3.97-1.95-7.29-7.2-7.29h-11.08s.15,2.47.21,4.62c-2.49,2.84-3.71,5.63-3.65,8.49.05,2.92,1.6,5.12,3.8,6.34,0,3.66-.21,13.95-.51,19.85h6.47c2.8,0,5.2-.41,7.13-1.2,3.66-1.51,6.62-5.53,6.62-10.8,0-5.63-3.62-9.94-5.25-11.17M24.68,83v-.04c-1.49-.41-2.73-1.87-2.89-3.7-.24-2.67,1.7-5.72,4.3-7.59-.72.76-1.25,1.79-1.48,2.56.06,2.44.08,5.94.07,8.77M37.57,103.79c-1.87.77-4.21,1.16-6.93,1.16h-5.94c.29-6.05.48-15.98.49-19.34v-.3l-.26-.14c-1.9-1.05-3.11-2.79-3.45-4.86.46,1.56,1.73,3.02,3.71,3.29,0,0,0-6.69-.07-9.3.39-1.19,1.5-3.13,3.25-4.45-1.36.58-2.58,1.4-2.58,1.4-1.68,1.21-2.99,2.79-3.76,4.42.58-1.5,1.53-3.01,2.88-4.55l.13-.15v-.2c-.05-1.53-.14-3.24-.19-4.09h10.54c2.26,0,4,.62,5.16,1.86,1.12,1.18,1.65,2.87,1.54,4.89-.13,2.44-1.38,5.01-3.5,7.24-2.17,2.28-5.01,3.91-7.98,4.58l-.4.09v.41c0,2.1.06,13.6.06,13.72v.49s.49.02.49.02c.13,0,.26,0,.39,0,2.28,0,4.08-.69,5.37-2.05.9-.95,1.95-2.65,1.86-5.34-.11-3.18-2.3-5.72-3.36-6.78,1.48-.75,2.89-1.72,4.13-2.85.77.66,1.84,1.88,2.78,3.51.89,1.55,1.95,4.02,1.95,6.98,0,2.4-.64,4.66-1.86,6.53-1.11,1.72-2.69,3.07-4.45,3.79M38.17,72.94c-.11-2.54-2.09-4.18-5.05-4.17-.81,0-1.65.12-2.52.37l-.37.1v.38c-.02,3.56-.07,9.73-.08,10.84-.28.75-1.69,2.13-3.59,3.17,1.86-.15,3.09-.72,3.83-1.05,5.56-2.45,7.91-6.61,7.78-9.63M28.69,82.74c.85-.57,1.63-1.4,1.97-2.01,0,0,.06-7.17.08-11.11.83-.23,1.64-.35,2.38-.35,2.57,0,4.44,1.35,4.55,3.69.13,2.98-2.33,6.88-7.47,9.15-.62.27-.83.4-1.51.63M128.81,92.67c2.03-1.12,3.64-3.5,3.51-7.13-.12-3.19-2.05-5.58-4.65-6.25-.88-.27-1.86-.33-3.05-.33-.97,0-4.59,0-4.59,0,.02.69.16,6.09.16,12.74,0,5.49-.23,11.09-.23,11.09l-.11,2.78h4.68l-.03-2.77-.05-9.04h.76s.97,2.15,2.33,5.41c1.5,3.59,2.62,6.4,2.62,6.4h4.85s-2.12-4.14-3.68-7.44c-1.63-3.43-2.52-5.46-2.52-5.46M130.45,105.14c-.31-.79-1.29-3.22-2.52-6.15-1.35-3.23-2.33-5.39-2.34-5.42l-.11-.25h-1.46v.42s.05,9.04.05,9.04l.03,2.34h-3.81l.1-2.34c0-.06.23-5.67.23-11.11,0-5.98-.11-10.87-.14-12.31.99,0,3.4,0,4.16,0,1.15,0,2.09.06,2.93.31h0s0,0,0,0c2.53.66,4.23,2.95,4.33,5.86.11,3.07-1.09,5.53-3.29,6.74l-.34.19.15.35s.91,2.07,2.53,5.47c1.2,2.51,2.73,5.55,3.38,6.83h-3.88ZM126.5,82.92c-.43-.15-.89-.22-1.48-.22-.12,0-.21,0-.29,0-.16,0-.24,0-.24,0h-.41s0,.42,0,.42c-.05,3.5-.05,6.27-.05,6.3v.42h.42s.08,0,.2,0,.29,0,.43,0c.51-.01.95-.09,1.36-.25.91-.34,1.96-1.46,1.96-3.47,0-1.58-.71-2.77-1.89-3.19M126.29,89.19c-.38.14-.78.21-1.22.22-.14,0-.29,0-.42,0-.11,0-.2,0-.2,0,0,0,0-2.75.05-6.29h.52c.64,0,1.03.09,1.35.2.94.33,1.61,1.3,1.61,2.79,0,1.77-.9,2.78-1.69,3.08"/>
  <polygon class="cls-6" points="42.9 59.46 44.06 66.82 51.41 65.65 44.78 69.02 48.17 75.65 42.9 70.39 37.64 75.66 41.03 69.02 34.39 65.65 41.74 66.82 42.9 59.46"/>
  <polygon class="cls-4" points="41.88 68.75 38.26 66.91 42.27 67.54 42.9 63.53 43.54 67.54 47.54 66.91 43.92 68.75 45.77 72.37 42.9 69.49 40.03 72.36 41.88 68.75"/>
</svg>