<svg height="294.471198" viewBox="0 0 142.9730676 124.00998801" width="339.591785" xmlns="http://www.w3.org/2000/svg"><path d="m141.76154825 35.63999939c-4.05999756-10.65999985-15.76998901-17.06000137-19.28999329-18.74000168-8.20934296-3.86616135-16.98892212-6.38184929-26-7.44999886 3.70999908-.76000023 8.08000183-1.46999931 11.27000427-2 1.79000092-.29000092 3.34999847-.54000092 4.47000122-.73999977.74651337-.15360641 1.22715759-.88329697 1.07355499-1.62981033-.12686157-.61654472-.65486145-1.06911278-1.28355408-1.10018921h-2.73999786c-7.39753723-.04067039-14.77651978.74418449-22 2.34000015 3.80570221-1.41175652 7.69268799-2.59388161 11.63999939-3.54000092.66659546-.15632439 1.11777496-.77776337 1.05999756-1.45999908-.05503845-.68538666-.6129837-1.22187233-1.30000305-1.25-.87999725-.04999924-1.76999664-.06999969-2.66000366-.06999969-4.06113434.00819016-8.11011505.44392586-12.08000183 1.29999924l-.33999634.06999969c-14.19999695 2.86000061-18.52000427 9.11000061-19.69999695 11.59999847l-62 1.25000001c-.76215363-.03866196-1.41134167.54784775-1.45000267 1.30999756-.038661.76215363.54784584 1.41134262 1.30999947 1.45000458.39999962 0 38.27000046 3.15000153 47.16999817 4.15000153 2.37000275 26.11000061 19.13000107 29.25 26.61000443 29.31999969-.33000183 3.30000305-2.65000153 5.62999725-4.66999817 7-7.12000275 5-15.61999893 6.06999969-21.5 6.06999969-4.46767426.10402679-8.92160416-.53466034-13.18000412-1.88999939-14.28000069-5.52000427-15.25-14.31999969-15.43000031-19.55000305l23.72999954-13.76999664c.65723419-.3859024.87719345-1.23153305.49129105-1.88876724-.24623108-.41935349-.69499969-.67815399-1.18128967-.68123245-.13966751-.00030899-.27834702.02336884-.40999985.06999969-1.54000092.47999954-37.68999863 11.90000153-42.43000031 13.54000092-.52519226.17364883-.89288616.64809036-.93000031 1.20000076-.18999958 2.72000122 2 10.24000168 3.84000015 13.20000076 5.34000015 8.55000305 16.06999969 20 36.90999985 25.80000305l.65999985.19000244c1.79000092.52999878 3.59999847 1 5.40999985 1.43000031-4.26000214.86000061-9.68999863 1.94000244-10.88999939 2.15000153l-1 .15000153c-2.52999878.38999939-7.23999786 1.11000061-10.06999969 2.86000061-4.17000008 2.58999634-6.18000031 5.58000183-6 8.90000153.05166245.66199493.56124496 1.19664001 1.21999931 1.27999878h.62999916c8.32509995-.21929169 16.62187958-1.06501007 24.81999969-2.53001404l3.52000046-.69999695c3.29999924-.65000153 7.39999771-1.45999908 8.75999832-1.81999969 5.48999786-1.45999908 9.68000031-3.22000122 12.45999908-5.22000122.92601776-.71674347 1.64120483-1.67034149 2.06999969-2.76000214 2.46847534-.13815308 4.92832184-.40183258 7.37000275-.79000092.37999725 1.36000061 2.38999939 5.80000305 12.34999847 8.26000214l.37000275.08999634c5.74403381 1.42079163 11.57723236 2.45313263 17.45999908 3.08999634 2 .23000336 14.49999237 1 16.73000336 1h4.63000488c.72090149-.00333405 1.31776428-.56098938 1.36999512-1.27999878.19000244-2.83000183-1.19000244-8-12.66999817-10.75-2.26000214-.54000092-16.19999695-2.33000183-21.5-2.59999847-1.25-.20999908-3.69000244-.44000244-5.26000214-.58000183 0-.34999847.08000183-.68000031.11000061-1 12.27999878-5 19-13.72000122 21.23999786-20.26000214 4.84584808-.28522491 9.64860535-1.07619476 14.33000183-2.36000061h.11000061c6.8500061-2.54000092 11.08000183-5.76999664 12.94000244-9.87000275 1.43998718-3.14999008 1.38999939-6.689991-.17001343-10.78998947z" fill="#fff"/><path d="m110.97155496 102.3599968c-.06999969-.83999634-.66000366-1.76000214-1.72000122-3.23999786-.36000061-.48999786-.38999939-.59999847-.30999756-.87999725.16999817-.55000305.55999756-1.55999756.62000275-1.68000031.2617569-.37080383.17711639-.88310242-.19000244-1.15000153-.61000061-.44000244-1.55999756-1.06999969-1.55999756-1.06999969-.13253784-.09078979-.28934479-.13957214-.44999695-.13999939-.16352844.00198364-.32309723.05054474-.45999908.13999939-.51000214.33999634-1 .66999817-1.30999756.90000153-.48000336-.33000183-.80000305-.52999878-.80000305-.52999878-.13082886-.0853653-.28379059-.1305542-.44000244-.12999725-.24871063.003479-.48308563.11700439-.63999939.30999756-.37000275.45999908-.79000092.91999817-1 1.15000153-.41625214-.29701233-.9189682-.44817352-1.43000031-.43000031-.77297974.06634521-1.51305389.34300995-2.13999939.80000305-.14536285-.13072968-.3345108-.20210266-.52999878-.19999695h-.08999634c-.88999939.09999847-2.23000336.29000092-2.23000336.29000092-.32907867.03980255-.59952545.27843475-.68000031.59999847-.11000061.41999817-.48000336 1.87999725-.5 1.94000244-.29571533-1.17861176-1.2064743-2.10468292-2.37999725-2.41999817-.20932007-.0524292-.42421722-.0792923-.63999939-.08000183-1.09521484.06318665-2.13137817.51738739-2.91999817 1.27999878-1.01420593.90196228-1.83419037 2.00093842-2.41000366 3.23000336l.65000153-2.76999664c.09941101-.44182587-.17816925-.88059235-.62000275-.98000336-.0590744-.01329041-.1194458-.01999664-.18000031-.01999664h-.14000702l-2 .30999756c-.08429718.0114212-.16571045.03855896-.23999786.08000183-.34304047-.13808441-.71025848-.20609283-1.08000183-.19999695-.25826263-.00016785-.51599884.02326202-.76999664.06999969-1.45249939.41877747-2.66580963 1.42202759-3.34999847 2.76999664.05999756-.23999786.12000275-.45999908.16000366-.65000153.07180023-.26602936-.00020599-.55024719-.19000244-.75-.15588379-.17237854-.37759399-.27050781-.61000061-.26999664h-.11000061l-2.09999847.27999878c-.25332642.02732849-.47733307.17667389-.59999847.40000153-.25640106-.07572174-.52266693-.11279297-.79000092-.11000061-.33773041.00656891-.67345428.05357361-1 .13999939-1.1223526.31380463-2.11215973.98420715-2.81999969 1.91000366l-.15000153.19000244c-.02097321-.03751373-.04800415-.07130432-.08000183-.09999847-.69999695-.70999908-1.41999817-1.48999786-1.41999817-1.5-.1583786-.16765594-.37937164-.26184845-.61000061-.26000214-.15167236-.00053406-.30052185.04100037-.43000031.12000275-.78398895.51507568-1.68498993.82458496-2.62000275.90000153-.5061264.01617432-1.0029068-.13884735-1.41000366-.44000244-.15821838-.19683838-.39745331-.31093597-.65000153-.30999756-.25318909.00391388-.48997498.12601471-.63999939.33000183l-1.06999969 1.43000031c-.24136353-.92713165-.61164093-1.81581116-1.09999847-2.64002991-1.0451355-1.75623322-2.57221985-3.17572784-4.40000153-4.08999634-1.30418015-.64283752-2.73607635-.98458099-4.18999863-1-.42206955-.00227356-.84357071.03117371-1.25999832.09999847h-.41999817c-1.51713562.15937805-3.01053619.49497986-4.45000076 1h-.11999893c-1.59745789.58952332-3.05250168 1.50957489-4.27000046 2.69999695-.68999863.62000275-2.06999969 2.58000183-1.63000107 4.40999603.25073624 1.07611084.91070557 2.01226044 1.84000015 2.61000061.50449753.29370117 1.07629013.45214844 1.65999985.45999908.77614212-.02602386 1.53023529-.26470184 2.18000031-.69000244l.15999985-.12999725.08000183-.08000183c.4943161-.44360352.80170822-1.05838776.86000061-1.72000122 0-.23000336.06999969-.75.06999969-.75.01818466-.33685303-.16690826-.65190125-.47000122-.80000305-.11280441-.05238342-.23562622-.0796814-.36000061-.08000183-.20200729.004776-.39621353.07893372-.54999924.20999908-.15800095.16978455-.37010193.27937317-.59999847.30999756-.27000046 0-.31999969-.33999634-.33000183-.44999695s0-1.08000183 1.65999985-2c1.15870285-.65232849 2.45219803-1.02874756 3.77999878-1.09999847.18641663-.01366425.37358475-.01366425.56000137 0 .33655548.04046631.67045975.10057068 1 .18000031-1.95227051 1.19309998-3.51299667 2.93110657-4.48999786 5-.84962845 1.98935699-1.51898193 4.05095673-2 6.15999603-.08000183.24000549-.18000031.63999939-.29999924 1.05999756-.04999924.21000671-.13000107.49000549-.20000076.74000549-.47119904-.13717651-.95924759-.20785522-1.45000076-.21000671-.75730515.00869751-1.50525284.16848755-2.20000076.47000122-1.66730881.72712708-2.67093277 2.45111084-2.48000336 4.26002502.33372116 1.48045349 1.68430328 2.50605774 3.20000076 2.42999268h.34999847c1.59423065-.12956238 3.07378769-.88012695 4.11999893-2.08999634 1.52999115.79563904 3.22561264 1.22039795 4.95000076 1.24000549.33424759.00050354.66820908-.01953125 1-.05999756 2.51732635-.171875 4.91230392-1.15019226 6.82999802-2.78999329l.12000275-.1000061c1.44847107-1.1918335 2.69456482-2.6101532 3.69000244-4.20001221-.13643646 1.30393982.4801712 2.572052 1.58999634 3.27000427.39317322.23335266.84281921.35440063 1.30000305.3500061 1.48589325-.1696167 2.85687256-.88180542 3.84999847-2 .54384613.82090759 1.44638824 1.33346558 2.43000031 1.37998962.25719452-.00146484.51294708-.03848267.76000214-.11000061.85836792-.17750549 1.65498352-.57754517 2.30999756-1.16000366.30885315.16389465.65062714.25617981 1 .27000427.69350433-.02984619 1.3473587-.33161926 1.81999969-.83999634.35262299-.3134613.68653107-.64736938 1-1 .32821655.2346344.7035675.39500427 1.09999847.47000122l-1.34999847 1.32000732c-3 .57000732-14.38999939 2.92999268-16.12999725 3.3999939s-7.63000107 1.82000732-9.52000046 2.53999329c-1.9441452.71408081-3.60868835 2.0316925-4.75 3.75999451-.27183914.46142578-.4391098.97688293-.49000168 1.50999451-.0124588.30656433.14521408.59500122.40999985.75.12593842.07867432.27150345.12026978.41999817.11999512.15621185.00054932.30916977-.04464722.43999863-.13000488 1.10399628-.63063049 2.35890579-.94868469 3.63000107-.91999817 1.36353302.00828552 2.70736313.32629395 3.92999649.92999268.11354065.0501709.23589325.07736206.36000061.08000183.2688446-.00289917.51918793-.13742065.66999817-.36000061.63616943-1.14471436 1.70085144-1.98997498 2.96000671-2.34997559.15000153 0 1.29000092-.36000061 2.91999817-.83000183 3.19999695-.91000366 8.69999695-2.49000549 11.66999817-3.28999329-.12673187.70550537-.0716629 1.43167114.16000366 2.11000061.30844879.88819885 1.01547241 1.58041382 1.91000366 1.86999512.54541016.19869995 1.11966705.30679321 1.69999695.32000732.76296234.00737 1.5086441-.22718811 2.12999725-.66999817 1.03733826-.90704346 1.72383118-2.14907837 1.94000244-3.50999451.12000275-.50999451.44000244-1.66000366.62000275-2.30999756l3.08000183-.74000549c4.81999969-1.16999817 12.72000122-3.08000183 13.37000275-3.25 1.30999756-.32000732 8.51000214-1.94000244 9.44999695-2.1499939l.31999969-.05999756c1.43719482-.05792236 2.6616745-1.06198883 3-2.45999908.03999329-.31002045.46999359-2.15001678-1.77000427-3.93002319zm-68.72000122 12.62000274c-.09615326.01408386-.19384766.01408386-.29000092 0-.25999832 0-.29000092-.1000061-.31999969-.22999573.2389183-.33369446.59692383-.56280518 1-.63999939.17306137-.01376343.34693909-.01376343.52000046 0 .12970734-.0123291.26029205-.0123291.38999939 0-.34511948.4039917-.7949295.70501709-1.29999924.86999512zm12-6.08000183c-.8818512 1.42951965-2.24830627 2.49427795-3.84999847 3-.48200989.09310913-.96980667.15324402-1.45999908.17999268.66772842-1.1631012 1.27194595-2.36152649 1.81000137-3.58999634.51482391-1.35459137.94236755-2.7407608 1.27999878-4.15000153.3038063-1.24760437.77473068-2.44846344 1.40000153-3.56999969.15000153-.20999908.5-.68000031.77999878-.77999878l.25999832-.08999634c.75168228.82151031 1.1813736 1.88685608 1.20999908 3 .13072968 2.0767746-.35268784 4.14609528-1.38999939 5.94999695zm14.44000244-2.76999664c-.15888977.92770386-.21922302 1.86960602-.18000031 2.81000519-.44000244.41999817-.76999664.63000488-1 .63000488s-.22000122-.16000366-.23000336-.17999268c-.21007538-.89427185-.08184052-1.83463287.36000061-2.63999939l.06999969-.15000153c.44813538-1.02274323 1.04085541-1.97581482 1.76000214-2.83001709-.35070038.73271179-.59966278 1.50989532-.73999786 2.30999756l-.04000092.05000305zm5.43000031-.86000061c-.05999756.23000336-.48000336 1.87000275-.66000366 2.65000153-.15000153-.15000153-.34999847-.41999817-.25-1.20999908v-.09999847c.05697632-.93579865.35308075-1.84133911.86000061-2.63000488l.08999634-.11000061c.1297226-.19937897.27697754-.38678741.44000244-.55999756-.12999725.77999878-.36999512 1.66999817-.43999481 1.90999603l-.04000092.05000305zm3.26000213 2v-.08999634zm1.93000031 10.04999542c-.08599091.10980225-.2208786.16975403-.36000061.16000366h-.09999847c-.01428223-.0927887-.01428223-.18721008 0-.27999878.08743286-.34695435.21495056-.68254089.37999725-1l.45999908-.13000488c-.05999756.33999634-.22000122.73001099-.34000397 1.18000793l-.03999329.06999207zm2.84999847-12.33999634c-.06999969.31999969-.20999908.87999725-.23000336.94000244v.08000183c-.21369934-.31829834-.31891632-.69709015-.30000305-1.08000183.12155914-.68656158.31945038-1.35739136.58999634-2 .22361755-.45941925.48800659-.89784241.79000092-1.30999756-.28999329 1.04999542-.76999664 3.04999542-.80998993 3.29999542l-.04000092.06999969zm2.33000183 5.69999695c.52999878-.52999878 1.30999756-1.33999634 1.87999725-1.94000244.37973022.53820801.94064331.9216156 1.58000183 1.08000183.18656158.04875183.37749481.07888794.56999969.08999634l-4.02999878.77000427zm18.38999939-10.69999695c-.04432678.40219879-.14532471.7960968-.30000305 1.16999817.12000275-.40999603.22000122-.79000092.30000305-1.16999817zm-10.81999969-.29000091c.07167053.24826813.07167053.51173401 0 .76000214v.29000092c-.08589935-.03142548-.16674805-.0752182-.23999786-.12999725-.15318298-.09592438-.28852844-.21773529-.40000153-.36000061.38999176-.51000214.60999298-.52000427.63999176-.52000427l.00000763-.04000092zm-2 5.6800003c-.12440491-.28981018-.15923309-.61022186-.09999847-.91999817.03515625-.40003204.09527588-.79747009.18000031-1.19000244.33950806.22928619.70134735.42360687 1.08000183.58000183-.21058655.51635742-.53139496.9805069-.94000244 1.36000061-.1700058.12999725-.26000214.18000031-.27000427.20999908l.05000305-.04000092zm.44000244 4c.38117981-.18815613.7372818-.42332458 1.05999756-.69999695.46722412-.3394165.89937592-.72466278 1.29000092-1.15000153.01927185.15717316.08155823.30596924.18000031.43000031.15921783.18183899.38832092.28729248.62999725.28999329h.09999847l2.33999634-.26999664c.34244537-.0391922.62503052-.28595734.70999908-.62000275.23000336-.93000031.79000092-3.05000305 1.19999695-4.56999969 0 .05999756-.15000153.56999969-.15000153.56999969-.19422913.67191315-.24533081 1.37710571-.15000153 2.06999969.1292038.76691437.60527802 1.43120575 1.29000092 1.80000305.29764557.12299347.61813354.18095398.94000244.16999817h.47000122zm13.19999695-2.69000244-2.58999634.52999878c.17752838-.05519104.35123444-.12200165.51999664-.19999695.6598587-.33670044 1.25286865-.79077148 1.75-1.33999634.43305206.33862305.9197998.60227203 1.44000244.77999878l-1.12000275.22999573zm2.80000305-4.41999817c-.16191101.29901886-.42923737.52713776-.75.63999939-.11488342-.02711487-.22134399-.08206177-.30999756-.16000366.15000153-.56999969.33999634-1.33999634.51999664-2 .08999634.16000366.18000031.31999969.25.47000122l.06999969.12999725c.174263.28769684.241539.62761688.18999481.96000671l.03000641-.04000092z" fill="#fff"/><path d="m140.47155496 36.13000107c-4.17999268-11-16.83999634-17.15999985-18.57000732-18-13.47000122-6.5-27.16999817-7.65999985-33-8 3.48000336-1.85000038 17.87999725-3.82999992 23-4.75-19.84999847-.46999931-31.84999847 4.29000092-36.25999451 5.79999924 3.73999786-4.72999954 19.90000153-9 22.91000366-9.75-4.94830322-.22642326-9.90479279.20399094-14.73999786 1.28000069-14.76999664 3-18.45999908 9.62999916-19 11.60000038l-62.96000386 1.25999831s42.07000065 3.45999908 48.34000111 4.29000092c2.13999939 29.36000443 22.44000244 29.36000443 26.72999573 29.20000076.33000183 5.44000244-4 8.66999817-5.27999878 9.56999969-12.87000275 9.06999969-30.79999924 6.29000092-36 4.29000092-15.30999756-5.94000244-16.16999817-15.68000031-16.29999733-21.62000275l24.40999794-14.18000031s-37.6099987 11.86000062-42.39999867 13.52999879c-.15999985 2.33000183 1.89000034 9.58000183 3.63000011 12.33000183 12 19.30000305 33.29000282 24.37000275 36.79000282 25.40000153 24.75 7.26000214 42.06999969 2.12000275 45.05000305 1.31999969 16.6499939-4.41000366 24.6499939-15.19000244 26.71999359-22.33000183 5.07266235-.1931076 10.1060257-.97160339 15.00000763-2.31999969 14.01998901-5.23000336 14.28999329-12.70999908 11.92999268-18.91999817zm-64.59999847 3.29999924c-4.31468964-2.38365173-6.97531128-6.94087219-6.93000031-11.86999893 0-1.65999985-.36000061-6.38999939-4.51000214-7.59000015-3.41000366-1-6.72000122-1-5.27999878-1 5.72000122.00999832 13.52999878.00999832 21.31999969 2.09999847 1.41999817.38000107 11.44999695 2.84999847 11.55000305 10.88999939.12999725 8.79000092-11.55000305 9.77999878-16.15000153 7.47000122z" fill="#08b1e8"/><path d="m53.47155496 81.07999802-.93000031.31999969c-.52000046.12999725-14.52000046 3-16.37999725 3.26999664s-7.52999878 1-10.52999878 2.83000183c-1.34999847.83000183-5.59000015 3.52999878-5.32999992 7.63999939 8.38594627-.17728424 16.74500465-1.01319122 24.99999809-2.5 2.34999847-.5 10.27999878-2 12.19999695-2.51000214s8.09999847-2.18000031 12-5c.96310425-.73005676 1.60491943-1.8057251 1.79000092-3-5.96032715.26721954-11.93229675-.08466339-17.81999969-1.04999542z" fill="#28648d"/><path d="m119.63155862 84.47999954c-2.06999969-.5-16-2.30999756-21.31999969-2.56999969-1.80000305-.31999969-6.68000031-.69999695-6.68000031-.69999695.20999908-1.33999634.33000183-2.44000244.38999939-3.16000366-1.70195007.6556778-3.4377594 1.21981812-5.19999695 1.69000244-.86000061.23000336-2.90000153.81999969-6 1.37000275.01873016.40116882.07565308.79963684.16999817 1.19000244.22000122.80000305 1.73999786 4.94000244 11.37000275 7.31999969 5.8085556 1.44635773 11.70887756 2.49545288 17.65999603 3.13999939 1.91999817.23000336 14.44999695 1 16.56999207 1h4.63000488c.16999817-1.78000641-.41000366-6.58000946-11.58999634-9.28000641z" fill="#28648d"/><path d="m80.69155618 20.77999878h-.11000061c-7.84999847-2.09999847-15.69999695-2.09999847-21.43000031-2.09999847-.41999817 0-.66000366 0-.66999817.31999969s.26999664.34000015.51000214.36000061c1.80947876.14585876 3.60092163.46396637 5.34999847.95000076 4.15999603 1.20999908 4.29000092 6.27000046 4.27999878 7.27000046-.06227112 5.06177139 2.67175293 9.74537659 7.11000061 12.18000031 1.72996521.76719284 3.60803223 1.14280319 5.5 1.09999847 2.57871246.05486679 5.12349701-.59516144 7.36000061-1.88000107 2.45282745-1.45929337 3.90507507-4.14863968 3.77999878-7-.09000397-7.06999969-7.36000061-10-11.68000031-11.20000076zm6.06999969 16.29000091c2.02149963-.00170517 3.8602829-1.1704216 4.72000122-3-.45040131 1.81935501-1.61952972 3.37819672-3.23999786 4.31999969-3.74466705 2.10234833-8.24369812 2.38215637-12.22000122.75999832-4.19446564-2.34408188-6.78089142-6.78507614-6.75-11.58999634 0-1.08000183-.12999725-6.56000137-4.75-7.90999985-.40000153-.11000061-.81999969-.22000122-1.25-.31999969 5.77349091-.03429413 11.52951813.6373558 17.13999939 2h.11000061c3.47000122.93000031 8.91000366 3.06999969 10.63999939 7.63000107-1.53536987-2.44006348-4.75809479-3.17346191-7.19815826-1.63809204s-3.17346191 4.75809097-1.63809204 7.19815445c.95895386 1.52400589 2.63565063 2.44618988 4.43624878 2.43993759v.1099968z" fill="#231815"/><path d="m140.78155252 35.97999954c-3.91999817-10.31999969-15.30999756-16.5-18.73999023-18.13999939-9.15000153-4.41999817-19.80999756-7.09000015-31.69999695-7.95000076 3.68000031-1.27000046 11.66999817-2.56999969 17.18000031-3.45999908 1.79000092-.29000092 3.33999634-.54000092 4.44999695-.73999977v-.64999962c-18.19000244-.43000031-29.87000275 3.54000092-35.06000519 5.36000061 4.73999786-4.09000015 18.16000366-7.82999992 21.77999878-8.65999985l-.05999756-.64999962c-4.86234283-.21693611-9.73238373.19310188-14.48999786 1.21999931l-.33000183.06999969c-15.40000153 3.08999825-18.71000671 10.04999924-19.27000427 11.59999847l-62.70000078 1.25999833v.65999985c.42000008 0 41 3.38000107 48.06000137 4.25 2.04999924 26.83000183 19.12000275 29.45000458 26.69999695 29.25.08999634 3.37999725-1.73000336 6.55000305-5.15000153 9-13.58999634 9.58000183-31.86999512 5.68000031-35.65999603 4.20999908-15.5-6-16-16.09999847-16.12000084-21.12000275l24.25000191-14.08999634-.25999832-.59000015c-.38000107.11000061-37.68000031 11.88999939-42.40999985 13.52999878l-.21000004.06999969v.20999908c-.18000031 2.47000122 2 9.86999893 3.68000031 12.56999588 5.23999882 8.40000153 15.78999996 19.62000275 36.30000019 25.34999847l.66999817.19999695c3.41288376.99685669 6.87814713 1.80474854 10.38000107 2.41999817-2.29000092.48000336-14.20000076 2.87999725-16 3.19000244-.25999832 0-.59000015.09999847-1 .15000153-2.45999908.37999725-7 1.08000183-9.68000031 2.72000122-3.81999969 2.37000275-5.65999985 5-5.47999954 7.94000244v.26999664h.84000015c8.24312592-.1999588 16.45957947-1.01892853 24.57999802-2.44998932.74000168-.16000366 2-.41999817 3.54000092-.70999908 3.27999878-.65000153 7.34999847-1.44999695 8.68000031-1.80000305 5.37000275-1.43000031 9.44000244-3.13999939 12.11000061-5.05999756.95288849-.72843933 1.61854553-1.76942444 1.87999725-2.94000244 3.01768494-.14821625 6.02337646-.48217773 9-1 .02313995.31044769.07332611.6182785.15000153.91999817.31999969 1.18000031 2.11000061 5.22000122 11.59999847 7.55999756l.36000061.08999634c5.70626068 1.40096283 11.49889374 2.42319489 17.34000397 3.05999756 1.87999725.22000122 14.47999573 1 16.61000061 1h4.92999268v-.30999756c.17999268-2.48999786-1.13999939-7.05999756-11.86999512-9.65000153-2.13999939-.51000214-16.27999878-2.33000183-21.33999634-2.56999969-1.52999878-.26999664-5.19999695-.58999634-6.36000061-.68000031.16000366-1.08999634.26000214-2 .30999756-2.62999725 12.69999695-5 19.44999695-13.83000183 21.45999908-20.59000397 5.02254486-.2161026 10.00437164-1.00111389 14.84999847-2.33999634 6.47000122-2.40000153 10.63000488-5.54000092 12.3500061-9.33000183 1.36999512-2.87998962 1.29998779-6.1599884-.15000916-10.01998901zm-71.5 48.84999848c-2.59999847 1.87999725-6.61000061 3.54000092-11.90000153 5-1.30999756.34999847-5.36999893 1.15000153-8.63999939 1.80000305l-3.54999924.70999908c-8.67000198 1.81999969-22.29999924 2.51999664-24.60000038 2.51000214 0-2.54000092 1.71999931-4.90999603 5.19000053-7 2.52999878-1.56999969 7-2.26000214 9.43000031-2.62999725l1-.15000153c1.77999878-.30999756 15.77000046-3.12999725 16.41999817-3.29000092l.84999847-.29000092.86999893.12000275 1.6099968.22000122c1.55999756.20999908 3.11000061.37999725 4.65000153.5.23000336 0 .44999695 0 .68000031.05999756.87999725.06999969 1.76000214.11000061 2.63999939.15000153h7c-.28443909.93151093-.86341858 1.74559784-1.6499939 2.31999207zm29-2.62000275c5.08000183.25 19.12999725 2 21.25999451 2.55999756 9.81999207 2.37000275 11.3999939 6.33000183 11.38000488 8.66000366h-4.30999756c-2.11999512 0-14.66000366-.80000305-16.52999878-1-5.81386566-.61351013-11.58010101-1.6157608-17.26000214-3l-.36000061-.08999634c-9.36000061-2.36000061-10.90000153-6.36000061-11.11000061-7.12999725-.07266998-.27164459-.11954498-.54954529-.13999939-.83000183 2.58000183-.48000336 4.37999725-1 5.37000275-1.23000336l.30999756-.08000183c.87999725-.23999786 1.76000214-.5 2.62999725-.79000092l1.26999664-.44000244.83999634-.29000092c-.05999756.68000031-.16999817 1.58000183-.33000183 2.62000275l-.05999756.33999634h.36000061s4.87001038.41001129 6.70001221.73001099zm42.08000183-36.49000549c-1.63999939 3.62000275-5.66999817 6.65000153-11.94999695 9-.86999512.23999786-8.66000366 2.30999756-14.88999939 2.30999756h-.25c-3.62349701-.03874207-7.23690033-.39003754-10.80000305-1.04998779-9.90000153-2.61000061-13.22999573-7.31999969-15.18000031-11.58999634l-.59999847.26999664c2 4.40999603 5.44999695 9.26999664 15.62000275 11.94999695 3.43761444.65722656 6.92179108 1.04175568 10.41999817 1.15000153h.36000061c-2 6.52999878-8.54000092 15-20.69000244 19.83999634l-.19999695.08000183-1.06999969.30000305c-.55999756.20999908-1.12000275.41999817-1.69000244.61000061-.87999725.27999878-1.77999878.55999756-2.70999908.80999756l-.30000305.08000183c-13.30999756 3.62000275-29.12999725 3.12000275-44.54999924-1.40000153l-.68999863-.19999695c-20.31000137-5.65000153-30.72000122-16.73000336-35.93000126-25.04000092-1.71000004-2.73000336-3.61999989-9.54000092-3.59000015-12 4.61999989-1.56000137 30.66999912-9.81000137 39.36000156-12.56000137l-21.86000061 12.70000076-.17000008.09999847v.18999863c.14999962 5.13000107.46999931 15.7100029 16.55000114 21.95000076 6.09999847 2.36000061 23.69000244 4.55000305 36.27999878-4.33000183 3.72000122-2.62000275 5.63999939-6.12000275 5.41999817-9.84999847v-.31999969h-.31999969c-7.30999756.26000214-24.45999908-1.97000122-26.45999908-28.88999939v-.25999832h-.27000046c-4.72000122-.61999893-30-2.75999832-42-3.75999832l56.82999802-1.13999939.05999756-.22999954c.25-.83000183 2.83999634-8.17000008 18.80000305-11.38000107l.33999634-.06999969c3.85675049-.84605026 7.79162598-1.28512001 11.74000549-1.31000137h.26999664c-5.13999939 1.38999939-17.51999664 5.09000015-20.84999847 9.29999924l-.69000244.87000084 1.05999756-.36000061 1-.35000038c10.05783081-3.63703156 20.67480469-5.48493576 31.37000275-5.45999908l-.72000122.11000061c-6.69999695 1.09000015-15.87000275 2.57999992-18.65000153 4.04999924l-1 .54999924 1.16000366.06999969c12.37000275.73999977 23.41999817 3.43000031 32.84999084 8 3.33999634 1.61999893 14.57000732 7.68999863 18.41000366 17.81000137 1.37001038 3.62999725 1.44000244 6.70999908.20001221 9.47999573l-.02000427-.03000641z" fill="#231815"/><path d="m110.12155649 102.75999832c.13999939-.66999817-.33999634-1.48000336-1.54000092-3.16000366-.42390442-.41529083-.58860779-1.02815247-.43000031-1.59999847.20101166-.65666962.44829559-1.29827881.73999786-1.91999817-.61000061-.43000031-1.52999878-1-1.52999878-1-1 .63999939-1.77999878 1.23000336-1.77999878 1.23000336-.69000244-.51999664-1.23000336-.84999847-1.23000336-.84999847-.55000305.66999817-1.19000244 1.34999847-1.19000244 1.34999847.84563446 1.72754669.77818298 3.76225281-.18000031 5.43000031-1.33000183 2-2.09999847 1.91000366-1.69999695.70999908.19000244-.76000214 1.19000244-4.47000122 1.23000336-4.86000061s.29000092-1.58000183-1.22000122-1.61000061c-.29000092 0-.94000244.09999847-2.37999725 1.12000275l-.30000305-.51000214c-.87999725.08999634-2.20999908.27999878-2.20999908.27999878-.18000031.69000244-.58999634 2.33000183-.63999939 2.51999664-.16506195.53863525-.63098907.93017578-1.19000244 1 0-.87999725-.26999664-3-2-3.41000366-.37999725-.09999847-1.38999939-.19999695-2.83999634 1-1.38620758 1.30916595-2.39476776 2.96707916-2.91999817 4.80000305-.21863556.95737457-.36240387 1.93031311-.43000031 2.91000366-.73999786.69000244-2 1.66999817-2 1.66999817.34999847-1.55999756 2.26999664-9.73999786 2.26999664-9.73999786l-2 .30999756-.20999908.36000061c-.51542664-.44895172-1.22444153-.60357666-1.87999725-.41000366-.34999847.05999756-1.5.33000183-2.80999756 2.43000031-.87471008 1.38327026-1.39980316 2.95855713-1.52999878 4.59000397-.04640961.70452118-.01623535 1.41199493.08999634 2.11000061-.62000275.58000183-1 .88999939-1.20999908 1.07000732s-.87999725.13999939-.66999817-.81999969c.08999634-.41000366 2-8.26999664 2-8.26999664l-2.09999847.27999878c-.05999756.36000061-.16000366.72000122-.16000366.72000122-.63360596-.4122467-1.41745758-.52213287-2.13999939-.30000305-.95896149.2729187-1.80420685.84810638-2.41000366 1.63999939-1.02646637 1.28471375-1.7387085 2.79138947-2.08000183 4.40000153-.18113708.98917389-.22822571 1.99823761-.13999939 2.99999237-.48000336.49000549-1.88999939 2-2.80999756.49000549-.3253479-1.11723328-.19595337-2.31776428.36000061-3.33999634.69845581-1.70731354 1.8039093-3.21787262 3.22000122-4.40000153-.70999908-.72000122-1.44000244-1.51999664-1.44000244-1.51999664-.87664032.5676651-1.87940216.91107941-2.91999817 1-.80094147.05305481-1.58973694-.21708679-2.19000244-.75l-1.15000153 1.56999207c.34118652 1.15930939.39948273 2.3835144.16999817 3.56999969-.27514648.89594269-.76223755 1.71234131-1.41999817 2.37999725-.30000305.38999939-.55000305.71000671-.72000122.91000366s-.29000092.3500061-.37999725.47999573c.71962738-1.65471649 1.12974548-3.42736053 1.20999908-5.23000336.14035797-1.7277832-.28427887-3.45440674-1.20999908-4.91999817-.95514679-1.658638-2.3824234-2.9954071-4.09999847-3.83999634-1.54813004-.76403809-3.28983307-1.04619598-5-.80999756-1.59867859.15944672-3.1748848.49481201-4.70000076 1-1.54682541.56121063-2.9552002 1.44783783-4.13000107 2.59999847-.45999908.40000153-1.74000168 2.08999634-1.38000107 3.58999634.19028091.85727692.70672989 1.60684204 1.43999863 2.08999634.95202255.54209137 2.13724136.45517731 3-.22000122.41425323-.32848358.67472458-.81325531.72000122-1.33999634 0-.19999695.04999924-.68000031.04999924-.68000031-1.09000015 1-2.18999863.47000122-2.29999924-.68000031-.06000137-.52999878.29000092-1.83000183 2.06999969-2.84999847 1.45358658-.83589935 3.11473465-1.24165344 4.79000092-1.16999817 1.0394249.07962799 2.0411911.4238739 2.90999985 1-2.54222488.97458649-4.59517288 2.91607666-5.70999908 5.40000153-.8396759 1.93811035-1.50887299 3.94570923-2 6-.20999908.63999939-.59999847 2.30999756-.77999878 2.61000061-1.21760178-.56521606-2.62239838-.56521606-3.84000015 0-1.29076385.57398987-2.08843613 1.89013672-2 3.30000305.34320831 1.16877747 1.51053619 1.8924408 2.70999908 1.67999268 1.65548706-.09960938 3.15385437-1.01361084 4-2.44000244.27000046.42999268 3.08000183 1.86000061 6 1.53999329 2.37474442-.15892029 4.6372757-1.0695343 6.45999908-2.6000061 2.05560303-1.65130615 3.69604492-3.76092529 4.79000092-6.16000366.58195496-1.17118073 1.00244904-2.41584778 1.25-3.69999695 1.33999634-.20999908 2.11000061-.38999939 2.11000061-.38999939-1.71582031 1.72624969-2.77661133 3.99635315-3 6.41999817-.17935181 1.06918335.27689362 2.14544678 1.16999817 2.75999451.30000305.17999268 1.77999878 1.05999756 4.90000153-2.22999573.37999725.75999451 1.26999664 2.16000366 2.76999664 1.77999878.95454407-.17079163 1.81454468-.68254089 2.41999817-1.44000244.63892365.64976501 1.68360901.65853882 2.33336639.0196228.04483795-.04408264.08712006-.09069824.12663269-.13961792.56430817-.48016357 1.04427338-1.0513916 1.41999817-1.69000244.6651535.99028015 2.00714874 1.25386047 2.99743652.5887146.04187775-.02813721.08275604-.057724.12256622-.0887146.02615356.16229248.02615356.32771301 0 .49000549-1.08000183 1.1000061-2.86000061 2.82000732-2.86000061 2.82000732-2.65000153.5-14.55999756 3-16.34000397 3.44000244s-7.58000183 1.80999756-9.38999939 2.50999451c-1.73340225.63259888-3.21908569 1.80293274-4.23999405 3.3400116-.2122879.34588623-.34230042.73591614-.38000107 1.13999939 2.6035881-1.41120911 5.73971558-1.42996216 8.36000061-.05000305.73731232-1.28681946 1.94560242-2.23695374 3.37000275-2.6499939.48999786-.11999512 13.09999847-3.77999878 16-4.5-.66000366 1.11000061-1 3.6499939 1.06999969 4.38000488 1.00273132.43696594 2.15706635.34701538 3.08000183-.24000549.87941742-.77429199 1.45088959-1.83914185 1.61000061-3 .18000031-.74000549.76999664-2.80999756.76999664-2.80999756l16.90999603-4.1000061c1.33999634-.33000183 8.68000031-2 9.47999573-2.16000366s2-.06999969 2.65000153-2c.20000458-.41999817.30001068-1.81999207-1.70999146-3.22999573zm-65.89000321 11.80999756c-.46611404.54205322-1.0763855.94081116-1.75999832 1.15000916-.81000137.22000122-1.5-.05999756-1.63000107-.86000061s1-1.47999573 1.68999863-1.58000183c1.24000168-.17999268 1.93999863.16999817 2.11000061.50999451-.07697678.2872467-.21704483.55371094-.40999985.77999878zm10.77000046-5.30000305c-.98824692 1.61004639-2.52658844 2.80732727-4.33000183 3.36999512-1.01172256.21606445-2.0513382.27008057-3.08000183.16000366.90156555-1.50895691 1.71622467-3.06816101 2.43999863-4.66999817.4952774-1.30654144.90940094-2.64241028 1.24000168-4 .32241821-1.34864044.83416367-2.64483643 1.52000046-3.84999847.28420258-.4624939.68856812-.83921051 1.16999817-1.08999634.26145554-.08853149.52877045-.15870667.79999924-.20999908 1.10590363.98196411 1.75121307 2.38134003 1.77999878 3.86000061.13014221 2.2481308-.40553284 4.48473358-1.53999329 6.42999268zm20.63999939-6.91999817c-.06999969.41000366-.56999969 2.68000031-.68000031 3.09999847s-.69999695 2.73999786-.72000122 2.87999725c-.12000275.78999329-.80999756.6499939-1.19999695.25-.56338501-.49882507-.79910278-1.27166748-.61000061-2 .08647919-1.06601715.42957306-2.09529877 1-3 .36547089-.57621765.85378265-1.06452942 1.43000031-1.43000031.12999725-.08000183.23000336-.29000092.55999756-.20999908s.27000427.16001129.22000122.41000366zm4.48999786 15.17999268c-.21413422.47599792-.71140289.75900269-1.23000336.69999695-.75-.07000732-.93000031-.6000061-.80999756-1.25.14031219-.53915405.35219574-1.05708313.62999725-1.53999329l2.16000366-.63000488c-.19589233.92073059-.44633484 1.82899475-.74999237 2.72001648l-.00000763-.00001526zm25.41999817-18.68000031c.52850342.61232758.98483276 1.28340149 1.36000061 2 .32543182.50652313.44024658 1.12007904.31999969 1.70999908-.23711395.52981567-.68202209.93855286-1.23000336 1.12999725-.15000153 0-.5.22000122-1.19000244-.33000183l-.34999847-.26999664c.26000977-1.04998779 1.0900116-4.2399826 1.0900116-4.2399826zm-13.0799942.13001251c.19000244.08000183.63999939.37000275.48999786 1.56999969 0 .27999878-.16999817.90000153-.19999695 1.11000061-.47933197.03430176-.95677948-.08856964-1.36000061-.34999847-.3322525-.20737457-.60186768-.50119019-.77999878-.84999847l-.09999847-.30000305c.26999664-.48000336 1-1.55000305 1.94999695-1.18000031zm-3.36000061 5.47000122c.05360413-.59179688.1607132-1.17752838.31999969-1.75.08999634-.29000092.27999878-.81999969.27999878-.81999969.70576477.73275757 1.60318756 1.25250244 2.58999634 1.5-.29671478.95979309-.82967377 1.82972717-1.55000305 2.52999878-.32836914.32534027-.83692169.38322449-1.23000336.13999939-.14998627-.06999969-.50998688-.41999817-.43998718-1.59999847h.02999878zm-6.38999939 1.80999756c-.14997101.33500671-.48295593.55046844-.84999847.55000305-.23999786 0-1-.44000244-1-2 .11231232-.8108139.33784485-1.60186005.66999817-2.34999847.29117584-.65206146.69008636-1.25042725 1.18000031-1.76999664.19000244-.12000275.66000366-.68000031 1.16000366-.5.15000153.05000305.36000061.13999939.16000366.83000183-.11000061.38999939-.91000366 3.69999695-1 4-.08190918.42236328-.19898987.83713531-.3500061 1.23999023h.02999878zm26.84999847.08000183c-.40000153.09999847-1.80000305.41999817-2.16999817.48999786s-3.09999847.58999634-3.54000092.69000244-19 3.84999847-20.30000305 4.14000702c.15000153-.91000366.23999786-1.49000549.23999786-1.49000549.84999847-.83999634 2.80000305-2.91999817 2.80000305-2.91999817.15000153.31999969.63999939 1.42999268 1.58999634 1.63999939.99420166.23129272 2.03778839-.05880737 2.76999664-.77000427.92825317-.65672302 1.69997406-1.51039886 2.26000214-2.5.64916992-1.00588989 1.09112549-2.13117981 1.30000305-3.30999756l.72000122-.30000305c-.16000366.62000275-1.59999847 5.44999695-1.59999847 5.44999695l2.34999847-.27999878c.37000275-1.51000214 1.56999969-6 1.69000244-6.34999847.09910583-.43625641.35542297-.82072449.72000122-1.08000183.34741211-.27464294.7310257-.50009918 1.13999939-.66999817.15000153 0 .29000092 0 .19999695.31999969s-.43000031 1.69999695-.55000305 2.09999847-.47000122 1.80000305-.55000305 2.08999634c-.16497803.55407715-.21266174 1.13646698-.13999939 1.70999908.07883453.51112366.3886795.9574585.83999634 1.20999908.64493561.15560913 1.32395172.0813446 1.91999817-.20999908.80497742-.42131042 1.49234009-1.03649139 2-1.79000092.54371643.5892334 1.23377228 1.02397156 2 1.26000214.82074738.18132019 1.67682648.11519623 2.45999908-.19000244.65727234-.25901794 1.24588776-.66625214 1.72000122-1.19000244.41598511.1753006.71125793.55384827.77999878 1 .04199219.44194031-.24811554.84724426-.67998505.95001221h.02999878z" fill="#00418d"/></svg>