<?xml version="1.0" encoding="UTF-8"?><svg id="b" xmlns="http://www.w3.org/2000/svg" width="64.901" height="64.90201" xmlns:xlink="http://www.w3.org/1999/xlink" viewBox="0 0 64.901 64.90201"><defs><style>.l{fill:url(#k);}.m{clip-path:url(#f);}.n{clip-path:url(#j);}.o{fill:#fff;}.p{fill:#820018;}.q,.r{fill:none;}.s{fill:url(#g);}.t{clip-path:url(#h);}.u{fill:url(#e);}.v{fill:url(#i);}.w{fill:#5c0000;}.x{fill:#faa61a;}.r{stroke:#231f20;stroke-width:.055px;}.y{clip-path:url(#d);}</style><clipPath id="d"><path class="q" d="M2.28851,32.45187C2.28851,15.81787,15.81952,2.2959,32.44751,2.2959c16.634,0,30.164,13.52197,30.164,30.15598,0,16.63-13.53,30.15601-30.164,30.15601-16.62799,0-30.159-13.526-30.159-30.15601M.69751,32.45187c0,17.50702,14.246,31.75201,31.75,31.75201,17.51202,0,31.75601-14.245,31.75601-31.75201C64.20352,14.94089,49.95953.69788,32.44751.69788,14.94351.69788.69751,14.94089.69751,32.45187"/></clipPath><linearGradient id="e" x1="-399.80948" y1="396.52689" x2="-398.80948" y2="396.52689" gradientTransform="translate(46608.19652 -46866.84521) rotate(-90) scale(117.45923 -117.45923)" gradientUnits="userSpaceOnUse"><stop offset="0" stop-color="#d2bb9a"/><stop offset=".01" stop-color="#d2bb9a"/><stop offset=".13483" stop-color="#fff"/><stop offset=".31461" stop-color="#d7b88f"/><stop offset=".53933" stop-color="#77543a"/><stop offset=".86517" stop-color="#d7b88f"/><stop offset="1" stop-color="#fff"/></linearGradient><clipPath id="f"><path class="q" d="M2.62753,32.45187C2.62753,16.00388,16.00351,2.62189,32.44751,2.62189c16.44601,0,29.832,13.38199,29.832,29.82999,0,16.44601-13.38599,29.823-29.832,29.823-16.444,0-29.81998-13.37698-29.81998-29.823M1.67453,32.45187c0,16.96902,13.80399,30.77701,30.77298,30.77701,16.97302,0,30.77802-13.80798,30.77802-30.77701,0-16.97-13.80499-30.77399-30.77802-30.77399C15.47852,1.67789,1.67453,15.48187,1.67453,32.45187"/></clipPath><linearGradient id="g" x1="-399.80948" y1="396.52688" x2="-398.80948" y2="396.52688" gradientTransform="translate(-29290.32535 29562.91816) rotate(90.00001) scale(73.94901 -73.94901)" gradientUnits="userSpaceOnUse"><stop offset="0" stop-color="#d2bb9a"/><stop offset=".01" stop-color="#d2bb9a"/><stop offset=".13483" stop-color="#fff"/><stop offset=".31461" stop-color="#d7b88f"/><stop offset="1" stop-color="#77543a"/></linearGradient><clipPath id="h"><path class="q" d="M6.13953,32.72189c0-14.50702,11.80399-26.30499,26.30798-26.30499,14.50803,0,26.311,11.79797,26.311,26.30499,0,14.504-11.80298,26.30399-26.311,26.30399-14.504,0-26.30798-11.79999-26.30798-26.30399M4.75253,32.72189c0,15.271,12.42297,27.694,27.69498,27.694,15.27002,0,27.694-12.423,27.694-27.694,0-15.27402-12.42398-27.69299-27.694-27.69299-15.272,0-27.69498,12.41898-27.69498,27.69299"/></clipPath><radialGradient id="i" cx="-399.80948" cy="396.52689" fx="-399.80948" fy="396.52689" r=".99995" gradientTransform="translate(11104.1065 11013.46861) scale(27.69313 -27.69313)" gradientUnits="userSpaceOnUse"><stop offset="0" stop-color="#910028"/><stop offset="1" stop-color="#580000"/></radialGradient><clipPath id="j"><path class="q" d="M5.60452,32.72189c0-14.80499,12.04001-26.84302,26.84299-26.84302,14.80103,0,26.84201,12.03802,26.84201,26.84302,0,14.797-12.04099,26.841-26.84201,26.841-14.80298,0-26.84299-12.04401-26.84299-26.841M4.75253,32.72189c0,15.271,12.42297,27.694,27.69498,27.694,15.27002,0,27.694-12.423,27.694-27.694,0-15.27402-12.42398-27.69299-27.694-27.69299-15.272,0-27.69498,12.41898-27.69498,27.69299"/></clipPath><linearGradient id="k" x1="-399.80948" y1="396.52688" x2="-398.80948" y2="396.52688" gradientTransform="translate(-32261.2008 32553.81523) rotate(90) scale(81.44126 -81.44126)" gradientUnits="userSpaceOnUse"><stop offset="0" stop-color="#d2bb9a"/><stop offset=".01" stop-color="#d2bb9a"/><stop offset=".24719" stop-color="#fed7ab"/><stop offset=".3427" stop-color="#fffabc"/><stop offset=".53933" stop-color="#896044"/><stop offset=".60264" stop-color="#a3693a"/><stop offset=".66419" stop-color="#b56f33"/><stop offset=".70786" stop-color="#bc7231"/><stop offset="1" stop-color="#6c2c29"/></linearGradient></defs><g id="c"><path class="o" d="M7.98401,5.16299c-.65201,2.80002.16498,4.63901.74197,5.173C3.31598,16.13602,0,23.91299,0,32.45102c0,17.892,14.55899,32.45099,32.448,32.45099,17.896,0,32.453-14.55899,32.453-32.45099C64.901,14.556,50.34399,0,32.448,0c-7.21701,0-13.89001,2.37-19.28601,6.371-.733-.38199-3.96298-2.08899-4.798-2.52899,0,0-.198.496-.37997,1.32098"/><g class="y"><rect class="u" x="-12.2969" y="-12.29651" width="89.49482" height="89.49482" transform="translate(-13.28008 28.60264) rotate(-40.1902)"/></g><g class="m"><rect class="s" x="-10.46579" y="-10.46236" width="85.83154" height="85.83156" transform="translate(-12.80281 24.81075) rotate(-35.41691)"/></g><path class="r" d="M58.44803,32.64099c0,14.32602-11.61502,25.94702-25.944,25.94702-14.33301,0-25.94702-11.621-25.94702-25.94702,0-14.33099,11.61401-25.948,25.94702-25.948,14.32898,0,25.944,11.617,25.944,25.948Z"/><path class="p" d="M62.24271,32.72208c0,16.453-13.33902,29.798-29.79501,29.798-16.45499,0-29.797-13.345-29.797-29.798C2.6507,16.2641,15.99271,2.92108,32.44769,2.92108c16.45599,0,29.79501,13.34302,29.79501,29.80099"/><g class="t"><rect class="v" x="4.7525" y="5.0289" width="55.38901" height="55.38699"/></g><g class="n"><rect class="l" x="-6.00051" y="-5.72483" width="76.89503" height="76.89448" transform="translate(-12.75301 23.74893) rotate(-34.0133)"/></g><path class="w" d="M32.87714,34.81207v.00101l-.09302-.776-.23401-1.93399c-.05698-.47699-.108-.91199-.147-1.233h-.00198l-.065-.54501-.06799-.556c.00198,0-.56.00702-.56.00702l-2.62201.03598c-3.38.048-6.87299.09903-10.56.035l-.70001-.01099.06802.69699c.08398.83801.95999,1.77499,1.95398,2.08902.16202.05099.327.09998.491.14999.34601.37799.80801.69199,1.30301.84799,3.38599,1.07199,7.28699,1.564,11.33099,1.98901v-.00601c-.026-.21201-.05899-.48401-.09598-.79102"/><path class="w" d="M32.08362,28.31598l.008.00201-.08801-.75601-.40799-3.53799-.06201-.522-.52301-.02899c-5.02197-.27499-11.07498-.724-17.92499-1.952l-.75299-.134.01898.76401c.026.96899.70001,1.89301,1.67502,2.29999.26498.11002.53198.21701.802.323.28799.396.689.72202,1.16599.92102,4.44601,1.85397,9.897,3.07599,16.207,3.638l-.11798-1.01703Z"/><path class="w" d="M55.07001,39.133l.82199-.24197-6.23199-4.31403c-.194.06802-.64502.16901-.64502.16901-1.69598.33002-4.07498.758-6.091,1.048-.138.02002-.26599.02899-.38599.03101-.035-.14401-.06601-.30499-.08401-.48401l-.04999-.42999c-.08801-.73499-.28201-2.36401-.48999-4.573,2.505.19299,5.03699.32199,7.53598.379l.677.01099c-.017-.194-.06-.672-.06-.672l-.26801-2.87399-.12799-1.36801-.05099-.53897-.54199-.00803c-.09201-.00198-.17902-.004-.27002-.00497l-.06299-.68701-.052-.55499-.56-.01001c-2.51401-.03799-4.75699-.086-6.811-.13998l-.00601-.05701-.064-.685c3.97702.306,7.625.48999,10.091.508l.741.005c-.05899-.35202-.14999-.75302-.14999-.75302-.203-.82898-.603-1.58499-1.173-2.25098-1.129-2.51801-4.18201-4.21701-8.245-4.51501-12.491-.91501-23.573-4.04599-32.94901-9.30701l-.93298-.52298.00299,1.069c.004,1.284.48099,2.32599,1.45499,3.18698.65601.577,1.36801,1.14301,2.12903,1.69601,4.702,4.12799,12.33798,7.67099,20.25699,9.453l.66901,6.043c.36298,3.328.677,6.203.80499,7.08099.45099,3.12601,1.47501,5.18399,3.12601,6.29199.297.19699.61298.36301.952.504.104.08301.21298.164.32498.23901,1.776,1.19,4.26602,1.29401,8.07602.34l3.48398-.84601c1.79602-.427,3.49301-.83099,5.33801-1.32599l.79199-.21201-.97498-.67902Z"/><path class="x" d="M33.53802,33.70999l.00098.00101-.09399-.776-.233-1.93399c-.05798-.47699-.10901-.91101-.147-1.233h-.00198l-.06601-.54501-.06799-.55499c.00198,0-.55902.00601-.55902.00601l-2.62198.03598c-3.38.04901-6.87302.09903-10.561.03601l-.69901-.01199.06799.698c.08401.83701.95901,1.77399,1.95401,2.08801.16199.05099.32599.10098.48999.14999.34601.37799.80801.69299,1.30301.849,3.38599,1.07098,7.28601,1.564,11.332,1.98898v-.00598c-.026-.21201-.06-.48502-.09698-.79202"/><path class="x" d="M32.74451,27.21417l.008.00101-.08801-.755-.40799-3.53799-.061-.522-.52402-.02899c-5.02197-.27499-11.07397-.724-17.92499-1.952l-.75198-.13501.01898.76501c.026.96799.69901,1.89301,1.67401,2.29999.26498.11002.53299.21701.80298.323.28702.396.68903.72202,1.16501.92102,4.44601,1.85397,9.897,3.07599,16.207,3.638l-.11798-1.01703Z"/><path class="x" d="M55.73181,38.03088l.82098-.24197-6.23099-4.31302c-.194.06799-.64603.168-.64603.168-1.69498.33002-4.07397.759-6.09,1.04901-.138.01999-.267.02798-.38599.03-.03601-.14401-.06702-.30402-.08401-.483l-.05099-.431c-.08701-.73401-.28101-2.36401-.48999-4.57199,2.505.19199,5.03699.32199,7.53699.37799l.677.01099c-.01801-.194-.06-.67099-.06-.67099l-.26898-2.87399-.12701-1.36902-.05099-.53897-.543-.00702c-.091-.00198-.17902-.005-.26999-.00598l-.06302-.686-.05099-.55701-.56-.008c-2.51501-.039-4.75699-.086-6.81201-.14099l-.005-.05701-.064-.68402c3.978.30502,7.62601.48901,10.09.50702l.742.00598c-.06-.353-.14899-.754-.14899-.754-.20401-.82898-.604-1.58499-1.17502-2.25098-1.12799-2.51801-4.18198-4.21701-8.24399-4.51501-12.491-.91501-23.573-4.04599-32.95001-9.30701l-.93198-.52298.00299,1.069c.00299,1.28497.48099,2.32599,1.45499,3.18698.655.577,1.36801,1.14301,2.12802,1.69601,4.70398,4.12799,12.33798,7.67099,20.258,9.453l.66901,6.043c.362,3.328.677,6.203.80499,7.082.45001,3.125,1.474,5.18298,3.12698,6.29099.29602.19699.612.36401.95001.504.10501.08401.21399.164.32599.23901,1.77502,1.19098,4.26602,1.29401,8.07501.341l3.48499-.84601c1.79703-.42801,3.492-.83099,5.33801-1.32599l.79199-.21301-.97498-.67902Z"/><path class="o" d="M50.17578,34.17899c-1.69199.33801-4.28598.81299-6.50198,1.13-1.60699.23001-2.186-.61401-2.32602-1.95001-.04398-.40298-.32797-2.595-.625-5.89899,2.87802.23599,5.70203.38101,8.47.444-.13699-1.47501-.26898-2.888-.40698-4.37201-2.965-.04599-5.74899-.104-8.43701-.186-.11099-1.259-.22598-2.36099-.31198-3.31998,3.83499.30399,8.10898.55698,11.09698.57797-.746-3.043-4.185-4.68298-8.00101-4.961-11.97699-.879-23.26898-3.80698-33.20898-9.38599.00299,1.11099.396,1.97601,1.241,2.72101,5.11899,4.51099,13.70099,8.34598,22.42401,10.01199.58099,5.02701,1.41599,13.09201,1.64099,14.63998.96899,6.694,4.44901,7.68903,10.685,6.12601,3.14801-.789,5.96301-1.39798,9.086-2.237l-4.82501-3.34ZM31.63678,22.995c-5.496-.302-11.379-.77301-18-1.96201.01602.64499.47803,1.401,1.293,1.742,4.513,1.88098,10.26202,3.19501,17.117,3.75598l-.41-3.53598ZM32.37781,29.29797c-4.285.052-8.55801.15002-13.20102.07202.05701.577.763,1.31598,1.522,1.556,3.69601,1.16998,8.05402,1.66199,12.12799,2.08398l-.44897-3.71201Z"/><path class="w" d="M15.12601,48.78421c0,.03699.01199.06699.03598.09097.02402.02301.08603.04001.186.052v.09402h-1.629v-.09402c.10001-.01199.16202-.02899.185-.052.02402-.02399.03601-.05399.03601-.09097v-3.68503c0-.03799-.01199-.06699-.03601-.09198-.02298-.02301-.08499-.04102-.185-.05099v-.09402h2.89401c.58499,0,1.01001.10602,1.27301.319.26398.21402.396.54401.396.99301,0,.36301-.10703.64801-.32001.854-.21399.20599-.48401.353-.811.44299l.93301,1.31302c.06299.09497.13998.14297.22897.14297v.09402h-1.64398v-.09402c.116-.00699.173-.05298.173-.14297,0-.01001-.02002-.048-.06302-.11102-.04199-.06299-.095-.13998-.15799-.229-.06299-.09-.133-.18698-.20901-.28998-.077-.10101-.15097-.20001-.22198-.29501-.07101-.09601-.133-.17999-.186-.254s-.08701-.12399-.10199-.14899h-.776v1.328ZM16.45502,46.61618c.23199,0,.39099-.04199.478-.12997.08698-.086.13098-.18802.13098-.30301,0-.116-.04401-.21799-.13098-.306-.08701-.08701-.246-.129-.478-.129h-1.32901v.86798h1.32901Z"/><path class="w" d="M20.36938,48.84741c0,.02698.01001.04599.02802.05899s.05701.021.11499.021v.09302h-1.39999v-.09302c.05801-.01199.10001-.02899.12701-.052.026-.02499.052-.06799.07898-.13098.01001-.026.03601-.09802.078-.21402.043-.116.09799-.26099.16699-.439.06802-.17599.14502-.37201.229-.58798.08401-.216.16901-.436.25302-.66101.08398-.22299.168-.44202.24899-.65601.082-.21399.15399-.405.21799-.57401.06302-.16901.11401-.30499.15402-.41098.03998-.10501.05899-.16101.05899-.16602,0-.02701-.017-.04498-.05099-.05499s-.07001-.01901-.10703-.02402v-.09399h2.06403v.09399c-.04202.005-.07602.01401-.103.02402-.026.01001-.039.03601-.039.07901,0,.00998.02499.07898.07498.20499.05002.12701.11401.29099.194.495.07901.203.17001.43201.272.68701.104.25598.20999.51801.32101.784.10999.26599.21698.52499.31998.77899.103.25201.19601.48001.28101.67902.04199.09598.078.159.10699.19098.02902.03101.06702.048.11401.048v.09302h-1.55801v-.09302c.10001-.00699.151-.03799.151-.09601,0-.00497-.013-.04099-.03998-.10699-.026-.065-.05502-.13998-.08701-.22098-.03201-.082-.06201-.16-.091-.233-.02899-.07501-.04599-.125-.05099-.151h-1.87402c-.05298.142-.09497.259-.12698.34799-.03201.09-.05701.16101-.07501.21399-.01898.052-.03198.091-.03998.11401-.00803.02399-.01202.04099-.01202.052M22.29141,47.48639l-.76703-1.88199-.70398,1.88199h1.47101Z"/><path class="w" d="M28.26212,48.92697c.04797,0,.08398-.00497.11099-.01297.026-.00803.039-.03702.039-.09003,0-.017-.02402-.064-.07101-.14297-.048-.078-.108-.17603-.18201-.29202-.07397-.116-.15598-.241-.245-.37198-.09-.13101-.17398-.259-.25299-.38s-.14999-.22702-.21301-.31601c-.064-.08899-.10599-.14999-.12698-.18201l-.77499.69601v.94901c0,.03699.01199.06699.03497.09198.02402.022.08603.039.186.05099v.09402h-1.629v-.09402c.10001-.01199.16202-.02899.186-.05099.02402-.02499.03601-.05499.03601-.09198v-3.685c0-.03802-.01199-.06702-.03601-.09201-.02399-.02301-.086-.04102-.186-.05099v-.09399h1.629v.09399c-.09998.00998-.16199.02798-.186.05099-.02298.02499-.03497.05399-.03497.09201v1.42297h.05499c.15799-.15298.328-.31097.51001-.474.18198-.164.34998-.31598.50299-.45499.15201-.14001.28-.258.383-.35699.103-.09601.15399-.155.15399-.177,0-.048-.013-.07501-.039-.082-.02698-.009-.061-.01599-.103-.021v-.09399h2.009v.09399c-.05301.005-.09698.01401-.13098.02399-.03403.01102-.06601.026-.095.048-.02902.021-.06003.04501-.095.07501-.03403.02798-.07501.064-.12201.10699l-1.36801,1.177,1.61301,2.41299c.04199.06201.08099.10001.11899.10999.03601.01001.08102.017.134.017v.09402h-1.81097v-.09402Z"/><path class="w" d="M34.28012,45.09879c0-.03699-.01202-.06699-.03601-.09097-.02301-.02402-.08499-.04202-.185-.052v-.09402h1.629v.09402c-.10001.00998-.16299.02798-.186.052-.02399.02399-.03601.05399-.03601.09097v2.11902c0,.349-.056.64099-.16998.87799-.11301.23801-.26901.427-.466.57001-.198.14099-.42999.241-.69601.29599-.267.05502-.54999.08301-.84998.08301-.30103,0-.58401-.02798-.85101-.08301-.26599-.05499-.49799-.155-.69601-.29599-.19699-.14301-.353-.332-.46597-.57001-.11401-.237-.17001-.52899-.17001-.87799v-2.11902c0-.03699-.01199-.06699-.03601-.09097-.02298-.02402-.086-.04202-.18597-.052v-.09402h1.62997v.09402c-.10098.00998-.16299.02798-.18597.052-.02402.02399-.03601.05399-.03601.09097v2.11902c0,.306.08701.52499.26099.65601.17401.133.41901.198.73602.198.31598,0,.56097-.065.73499-.198.17401-.13101.26102-.35001.26102-.65601v-2.11902Z"/><path class="w" d="M37.95782,48.92697c.09998-.01199.16199-.02899.18597-.05099.02402-.02499.035-.05499.035-.09198v-2.95801h-1.35999c-.04202,0-.073.01498-.095.04401-.021.02798-.03601.08899-.047.17798h-.095v-1.409h.095c.01099.09.026.15002.047.17902.022.02899.05298.04401.095.04401h3.90698c.04202,0,.07401-.01501.095-.04401s.03702-.08902.047-.17902h.095v1.409h-.095c-.00998-.08899-.026-.14999-.047-.17798-.021-.02902-.05298-.04401-.095-.04401h-1.35999v2.95801c0,.03699.01199.06699.035.09198.02399.022.086.039.186.05099v.09402h-1.629v-.09402Z"/><path class="w" d="M44.94891,47.50317c-.01001-.05298-.03302-.09598-.06702-.13098-.035-.03299-.09201-.052-.17099-.052h-1.47v.737h2.53799c.04199,0,.07401-.01599.095-.04401.021-.03.03699-.09399.047-.19501h.095v1.35303h-.095c-.01001-.06802-.026-.11002-.047-.12601-.021-.017-.05301-.02402-.095-.02402h-3.94601v-.09399c.10001-.01199.16202-.02899.186-.052.02301-.02399.035-.05399.035-.091v-3.685c0-.03799-.01199-.06699-.035-.09198-.02399-.02301-.086-.04102-.186-.05103v-.09399h3.94601c.04199,0,.07401-.01599.095-.04401.021-.03.03699-.08899.047-.17899h.095v1.37799h-.095c-.01001-.091-.026-.14999-.047-.17899s-.05301-.04401-.095-.04401h-2.53799v.65601h1.47c.07898,0,.13599-.017.17099-.05002.034-.03497.05701-.078.06702-.13098h.09497v1.23398h-.09497Z"/><path class="w" d="M47.32922,45.09879c0-.03699-.01202-.06699-.03601-.09097-.02402-.02402-.08499-.04202-.185-.052v-.09402h1.905v.09402c-.08902.005-.14902.01797-.177.03598-.03.01801-.04401.04102-.04401.06702,0,.00998.034.05798.103.14301.06799.08398.15802.189.26901.315.10999.12799.23499.26797.375.42398.13998.15601.28101.311.42398.46701.142.15601.27902.30301.41101.44299.13199.13901.245.26001.34.35901v-2.11102c0-.09-.056-.13797-.16599-.14297v-.09402h1.44699v.09402c-.10001.00998-.16199.02798-.186.052-.02399.02399-.03601.05399-.03601.09097v3.68503c0,.03699.01202.06699.03601.09198.02402.02301.086.04001.186.05099v.09402h-1.50299v-.09402c.07401,0,.12299-.009.147-.02499.02298-.01498.03497-.03699.03497-.06198,0-.01602-.008-.03601-.02399-.06-.01498-.02402-.04999-.06403-.10199-.12201-.05301-.05801-.13101-.142-.23401-.25-.10199-.108-.23801-.25299-.40701-.435-.16898-.181-.37698-.40802-.625-.67902-.24698-.272-.54498-.603-.89297-.99298v2.483c0,.03699.01199.06699.03497.09198.02402.02301.08603.04001.186.05099v.09402h-1.50198v-.09402c.10001-.01099.16098-.02798.185-.05099.02399-.02499.03601-.05499.03601-.09198v-3.68503Z"/><path class="w" d="M21.14133,53.37848c-.01001-.04797-.03003-.08798-.061-.12-.03201-.03-.08301-.047-.155-.047h-1.33902v.67102h2.311c.03799,0,.06702-.01401.086-.04001.01901-.02701.03302-.086.043-.177h.086v1.23099h-.086c-.00998-.06198-.02399-.10098-.043-.11398-.01898-.01602-.048-.02301-.086-.02301h-3.59201v-.08499c.091-.01102.147-.026.16901-.048s.03201-.048.03201-.082v-3.35501c0-.034-.01001-.061-.03201-.08298-.022-.02103-.078-.03702-.16901-.047v-.08502h3.59201c.03799,0,.06702-.01401.086-.03998.01901-.02701.03302-.08102.043-.16302h.086v1.25302h-.086c-.00998-.082-.02399-.13501-.043-.16202-.01898-.026-.048-.04001-.086-.04001h-2.311v.59702h1.33902c.07199,0,.12299-.01501.155-.04501.03098-.03198.05099-.07199.061-.12h.086v1.12399h-.086Z"/><path class="w" d="M23.9628,54.6011c0,.02499.008.04202.02499.05402.01703.01199.052.01898.10501.01898v.086h-1.27399v-.086c.052-.01099.09-.026.11499-.047.02399-.022.047-.06198.07199-.12.009-.02301.03302-.08899.07101-.194.039-.10599.08899-.23801.15201-.39899.06198-.16101.13199-.33902.20798-.53601.077-.19699.15402-.397.23102-.60101.07599-.20398.15198-.40298.22699-.59799.07401-.194.14001-.36899.198-.522.05701-.15298.104-.27798.14001-.37399.03598-.09601.05399-.146.05399-.151,0-.02499-.01599-.04099-.047-.04999-.03101-.01001-.064-.01801-.09698-.022v-.086h1.879v.086c-.039.004-.07001.01199-.09402.022-.02399.009-.03598.03299-.03598.07098,0,.01001.02298.073.069.18802.04498.11499.104.26398.17599.44998.07199.185.155.39301.24799.625.09402.233.19101.47101.29202.71402.09998.24197.198.478.29099.70898.09399.229.17902.43701.25601.61801.03799.08701.07098.14398.09698.17398.026.02802.061.043.104.043v.086h-1.418v-.086c.091-.00598.13699-.034.13699-.08698,0-.005-.01199-.03702-.03598-.09702-.02402-.06-.05002-.12799-.07901-.20099-.02899-.07501-.05701-.146-.08301-.21301-.026-.06799-.04199-.11301-.047-.13599h-1.70599c-.048.12799-.086.23499-.11499.31598-.02902.08102-.052.146-.06802.194-.017.048-.02899.08301-.03598.104-.00702.02301-.01102.03799-.01102.047M25.71182,53.3631l-.69803-1.71298-.64099,1.71298h1.33902Z"/><path class="w" d="M30.54922,53.38507c-.039,0-.065.013-.07901.04001-.01501.026-.02402.061-.02899.104h-.086v-1.009h.086c.00998.08701.04599.13101.108.13101h2.12399v.086c-.077.005-.116.04599-.116.12201v1.19498c0,.034.00497.06201.01498.08701.009.02301.03302.03601.07199.03601h.03601v.086c-.65298.345-1.42499.51898-2.31799.51898-.30301,0-.59399-.03799-.875-.11298-.28-.07401-.52899-.19-.745-.349-.216-.15802-.39001-.358-.522-.60101-.13202-.241-.198-.526-.198-.853,0-.32501.06598-.61002.198-.853.13199-.241.306-.444.522-.60501.216-.16.465-.27899.745-.35901.28101-.07999.57199-.11798.875-.11798.12,0,.22501.00198.31699.00699.091.005.17902.01401.26602.02802.086.01498.17499.03198.26599.05399s.19901.04901.32401.08301c.12.034.23099.07401.33099.11899.10101.04501.16599.06802.19501.06802.03799,0,.07199-.01801.10001-.05701l.08698.02798-.46799.95001-.086-.05002c.009-.02798.01401-.05499.01401-.07898,0-.03302-.04102-.07101-.12302-.112-.08099-.04001-.18399-.078-.30899-.11099-.125-.03302-.26501-.06302-.42099-.08701-.15601-.02402-.30801-.035-.457-.035-.173,0-.33701.022-.49301.06799s-.29501.116-.418.21201c-.12201.09601-.21899.215-.29102.35699-.07199.14099-.108.31-.108.50699,0,.19302.043.35901.12903.50101.08698.14099.19598.258.32797.349.13202.091.27902.15802.44202.20102.164.04398.32401.065.483.065.20099,0,.38199-.01202.543-.03702.16101-.02301.31601-.05701.465-.10001v-.47501h-.92899Z"/><path class="w" d="M37.25763,53.88208c.03799,0,.06699-.01398.08698-.03998.01901-.02701.03302-.08099.043-.16101h.086v1.245h-.086c-.00998-.077-.02399-.125-.043-.14099-.01999-.017-.04898-.02499-.08698-.02499h-3.75702v-.086c.091-.01001.147-.026.16901-.047.021-.022.03198-.04901.03198-.08301v-3.354c0-.034-.01099-.061-.03198-.08301-.022-.022-.078-.03799-.16901-.047v-.086h1.483v.086c-.091.009-.14801.02499-.16998.047-.02103.022-.03201.04901-.03201.08301v2.69199h2.47601Z"/><path class="w" d="M41.13782,53.37848c-.01001-.04797-.03003-.08798-.061-.12-.03201-.03-.08301-.047-.155-.047h-1.33902v.67102h2.311c.03799,0,.06702-.01401.086-.04001.01901-.02701.034-.086.043-.177h.08701v1.23099h-.08701c-.009-.06198-.02399-.10098-.043-.11398-.01898-.01602-.048-.02301-.086-.02301h-3.59201v-.08499c.091-.01102.147-.026.16901-.048s.03201-.048.03201-.082v-3.35501c0-.034-.01001-.061-.03201-.08298-.022-.02103-.078-.03702-.16901-.047v-.08502h3.59201c.03799,0,.06702-.01401.086-.03998.01901-.02701.034-.08102.043-.16302h.08701v1.25302h-.08701c-.009-.082-.02399-.13501-.043-.16202-.01898-.026-.048-.04001-.086-.04001h-2.311v.59702h1.33902c.07199,0,.12299-.01501.155-.04501.03098-.03198.05099-.07199.061-.12h.086v1.12399h-.086Z"/><path class="w" d="M43.41931,53.29849c-.01001.02902-.01401.08002-.01401.151,0,.048.04401.10202.133.16202.08798.061.20401.117.345.16998.142.052.30399.09702.48599.13202.18301.03598.367.05399.55402.05399.36099,0,.62399-.04099.79199-.125.168-.08499.25198-.20499.25198-.36298,0-.08701-.073-.14801-.21899-.18503-.147-.03598-.32999-.064-.55099-.086-.22101-.021-.45801-.04599-.71301-.07199-.254-.02701-.491-.07501-.71198-.14401-.22101-.069-.40402-.16998-.55103-.30197-.146-.13202-.21899-.31302-.21899-.543,0-.18301.04202-.34903.12601-.49802.08401-.14801.20099-.27499.35199-.38101.151-.10599.33502-.18799.55103-.24899.21597-.05899.45599-.08899.71997-.08899.24503,0,.47202.01498.68402.047.211.03.39798.06601.561.104.16299.03799.29999.073.41.10498.11099.03003.18997.04602.23798.04602s.086-.01102.11502-.03201c.02899-.021.05499-.047.07898-.07498l.08002.02798-.49701,1.00101-.08701-.04401v-.078c0-.04401-.04599-.08798-.13998-.134-.09302-.04599-.21201-.08701-.35602-.12198-.14398-.03601-.30499-.06702-.483-.09003-.177-.02499-.34998-.03699-.51797-.03699-.31201,0-.53003.03699-.65503.108-.125.073-.18698.14899-.18698.23099s.043.14301.129.18301c.08701.04099.20001.07098.33899.09.13901.01999.297.035.47501.047.177.01199.36002.03.547.05402.18701.02499.36902.05698.547.10098.17801.043.336.108.47501.19101.13901.08398.25201.194.33899.33099.086.13602.12903.30801.12903.51401,0,.15799-.03201.315-.09702.46799-.065.155-.17499.29202-.33099.41501-.15601.12201-.36502.21899-.62701.29199-.26099.07101-.586.10699-.97501.10699-.30197,0-.56198-.01498-.78098-.043-.21802-.03-.40402-.06299-.55801-.10397-.15298-.04102-.27399-.07901-.36301-.11301-.08899-.03302-.155-.05002-.198-.05002-.02899,0-.05399.01001-.07599.02902-.021.01898-.04401.04099-.06799.065l-.086-.02103.53198-1.28198.07202.03598Z"/><path class="o" d="M14.8266,48.29663c0,.03699.01199.06699.03598.09097.02402.02301.08603.04001.186.052v.09402h-1.629v-.09402c.10001-.01199.16202-.02899.185-.052.02402-.02399.03601-.05399.03601-.09097v-3.68503c0-.03799-.01199-.06699-.03601-.09198-.02298-.02301-.08499-.04102-.185-.05099v-.09402h2.89401c.58499,0,1.01001.10602,1.27301.319.26398.21402.396.54401.396.99301,0,.36301-.10703.64801-.32001.854-.21399.20599-.48401.353-.811.44299l.93301,1.31302c.06299.09497.13998.14297.22897.14297v.09402h-1.64398v-.09402c.116-.00699.173-.05298.173-.14297,0-.01001-.021-.048-.06302-.11102-.04199-.06299-.095-.13998-.15799-.229-.06299-.09-.133-.18698-.20901-.28998-.077-.10101-.15097-.20001-.22198-.29501-.07101-.09601-.133-.17999-.186-.254s-.08701-.12399-.103-.14899h-.77499v1.328ZM16.15561,46.1286c.23199,0,.39099-.04199.478-.12997.08698-.086.13098-.18802.13098-.30301,0-.116-.04401-.21799-.13098-.306-.08701-.08701-.246-.129-.478-.129h-1.32901v.86798h1.32901Z"/><path class="o" d="M20.06989,48.35989c0,.02698.01001.04599.02802.05899s.05701.021.11499.021v.09302h-1.39999v-.09302c.05801-.01199.10001-.02899.12701-.052.026-.02499.052-.06799.07898-.13098.01001-.026.03601-.09802.078-.21402.043-.116.09799-.26099.16699-.439.06802-.17599.14502-.37201.229-.58798.08401-.216.16901-.436.25302-.66101.08398-.22299.168-.44202.24899-.65601.082-.21399.15399-.405.21799-.57401.06302-.16901.11401-.30499.15402-.41098.03998-.10501.05899-.16101.05899-.16501,0-.02802-.017-.04599-.05099-.056s-.07001-.01901-.10703-.02402v-.09399h2.06403v.09399c-.04202.005-.07602.01401-.103.02402-.026.01001-.039.03601-.039.07901,0,.00998.02499.07898.07498.20499.05002.12701.11401.29199.194.495.07901.203.17001.43201.272.68701.104.25598.20999.51801.32101.784.10999.26599.21698.52499.31998.77899.103.25201.19601.48001.28101.67902.04199.09598.078.159.10699.19098.02902.03101.06702.048.11401.048v.09302h-1.55801v-.09302c.10001-.00699.151-.03799.151-.09601,0-.00497-.013-.04099-.03998-.10699-.026-.065-.05502-.13998-.08701-.22098-.03201-.082-.06201-.16-.091-.233-.02899-.07501-.04599-.125-.05099-.151h-1.87402c-.05298.142-.09497.259-.12698.34799-.03201.09-.05701.16101-.07501.21399-.01898.052-.03198.091-.03998.11401-.00803.02399-.01202.04099-.01202.052M21.99191,46.99887l-.76703-1.88199-.70398,1.88199h1.47101Z"/><path class="o" d="M27.96271,48.43948c.04797,0,.08398-.00497.11099-.01297.026-.00803.039-.03702.039-.09003,0-.017-.02402-.064-.07101-.14297-.048-.078-.108-.17603-.18201-.29202-.07397-.116-.15598-.241-.245-.37198-.09-.13101-.17398-.259-.25299-.38s-.14999-.22702-.21301-.31601c-.064-.08899-.10599-.14999-.12698-.18201l-.77499.69601v.94901c0,.03699.01199.06699.03497.09198.02402.022.08603.039.186.05099v.09402h-1.629v-.09402c.10001-.01199.16202-.02899.186-.05099.02402-.02499.03601-.05499.03601-.09198v-3.685c0-.03802-.01199-.06702-.03601-.09201-.02399-.02301-.086-.04102-.186-.05099v-.09399h1.629v.09399c-.09998.00998-.16199.02798-.186.05099-.02298.02499-.03497.05399-.03497.09201v1.42297h.05499c.15799-.15298.328-.31097.51001-.474.18198-.164.34998-.31598.50299-.45499.15201-.14001.28-.258.383-.35699.103-.09601.15399-.155.15399-.177,0-.048-.013-.07501-.039-.082-.02698-.009-.061-.01599-.103-.021v-.09399h2.009v.09399c-.05301.005-.09698.01401-.13098.02399-.03403.01102-.06601.026-.095.048-.02902.021-.06003.04501-.095.07501-.03403.02798-.07501.064-.12201.10699l-1.36801,1.177,1.61301,2.41299c.04199.06201.08099.10001.11899.10999.03601.01001.08102.017.134.017v.09402h-1.81097v-.09402Z"/><path class="o" d="M33.98093,44.6113c0-.03699-.01202-.06699-.03601-.09097-.02402-.02402-.08499-.04202-.185-.052v-.09402h1.629v.09402c-.10101.00998-.16299.02798-.186.052-.02399.02399-.03601.05399-.03601.09097v2.11902c0,.349-.056.64099-.16998.87799-.11301.23801-.26901.427-.466.57001-.198.14099-.42999.241-.69699.29599-.26602.05502-.54901.08301-.85001.08301-.30002,0-.58401-.02798-.85001-.08301-.26599-.05499-.49799-.155-.69601-.29599-.19699-.14301-.353-.332-.46698-.57001-.11301-.237-.16901-.52899-.16901-.87799v-2.11902c0-.03699-.01199-.06699-.03601-.09097-.02399-.02402-.086-.04202-.18597-.052v-.09402h1.62997v.09402c-.10098.00998-.16299.02798-.18698.052-.02301.02399-.035.05399-.035.09097v2.11902c0,.306.08701.52499.26099.65601.17401.133.41901.198.73502.198.31699,0,.56198-.065.73599-.198.17401-.13101.26102-.35001.26102-.65601v-2.11902Z"/><path class="o" d="M37.65833,48.43948c.09998-.01199.16199-.02899.18597-.05099.02402-.02499.035-.05499.035-.09198v-2.95801h-1.35999c-.04202,0-.07401.01498-.095.04401-.021.02798-.03601.08899-.047.17798h-.095v-1.409h.095c.01099.09.026.15002.047.17902s.05298.04401.095.04401h3.90698c.04202,0,.07401-.01501.095-.04401s.03702-.08902.047-.17902h.095v1.409h-.095c-.00998-.08899-.026-.14999-.047-.17798-.021-.02902-.05298-.04401-.095-.04401h-1.35999v2.95801c0,.03699.01199.06699.035.09198.02399.022.086.039.186.05099v.09402h-1.629v-.09402Z"/><path class="o" d="M44.64923,47.01569c-.01001-.05298-.03302-.09598-.06702-.13098-.035-.03299-.091-.052-.17001-.052h-1.47098v.737h2.53799c.043,0,.07401-.01599.095-.04401.021-.03.03699-.09399.048-.19501h.09399v1.35303h-.09399c-.01102-.06802-.02701-.11002-.048-.12601-.021-.017-.052-.02402-.095-.02402h-3.94601v-.09399c.10001-.01199.16202-.02899.186-.052.02402-.02399.03601-.05399.03601-.091v-3.685c0-.03799-.01199-.06699-.03601-.09198-.02399-.02301-.086-.04102-.186-.05103v-.09399h3.94601c.043,0,.07401-.01599.095-.04401.021-.03.03699-.08899.048-.17899h.09399v1.37799h-.09399c-.01102-.091-.02701-.14999-.048-.17899s-.052-.04401-.095-.04401h-2.53799v.65601h1.47098c.07901,0,.13501-.017.17001-.05002.034-.03497.05701-.078.06702-.13098h.09497v1.23398h-.09497Z"/><path class="o" d="M47.02972,44.6113c0-.03699-.01202-.06699-.03601-.09097-.02402-.02402-.08499-.04202-.185-.052v-.09402h1.905v.09402c-.08902.005-.14902.01797-.177.03598-.03.01801-.04401.04102-.04401.06702,0,.00998.034.05798.103.14301.06799.08398.15802.189.26901.315.10999.12799.23499.26797.375.42398.13998.15601.28101.311.42398.46701.142.15601.27902.30301.41101.44299.13101.13901.245.26001.33899.35901v-2.11102c0-.09-.05499-.13797-.16498-.14297v-.09402h1.44699v.09402c-.10001.00998-.16199.02798-.186.052-.02399.02399-.03601.05399-.03601.09097v3.68503c0,.03699.01202.06699.03601.09198.02402.02301.086.04001.186.05099v.09402h-1.50299v-.09402c.07401,0,.12299-.009.147-.02499.02298-.01498.03497-.03699.03497-.06198,0-.01602-.008-.03601-.02298-.05902-.01599-.02499-.05099-.065-.103-.12299-.05301-.05801-.13101-.142-.23401-.25-.10199-.108-.23801-.25299-.40701-.435-.16898-.181-.37698-.40802-.625-.67902-.24799-.272-.54498-.603-.89297-.99298v2.483c0,.03699.01199.06699.03497.09198.02402.02301.08603.04001.186.05099v.09402h-1.50198v-.09402c.10001-.01099.16098-.02798.185-.05099.02399-.02499.03601-.05499.03601-.09198v-3.68503Z"/><path class="o" d="M20.84183,52.89099c-.01001-.04797-.03003-.08798-.061-.12-.03201-.03-.08301-.047-.155-.047h-1.33902v.67102h2.311c.03799,0,.06702-.01401.086-.04001.01901-.02701.034-.086.043-.177h.086v1.23099h-.086c-.009-.06198-.02399-.10098-.043-.11398-.01898-.01602-.048-.02301-.086-.02301h-3.59201v-.08499c.091-.01102.147-.026.16901-.048s.03201-.048.03201-.082v-3.35501c0-.034-.01001-.061-.03201-.08298-.022-.02103-.078-.03702-.16901-.047v-.08502h3.59201c.03799,0,.06702-.01401.086-.03998.01901-.02701.034-.08102.043-.16302h.086v1.25302h-.086c-.009-.082-.02399-.13501-.043-.16202-.01898-.026-.048-.04001-.086-.04001h-2.311v.59702h1.33902c.07199,0,.12299-.01501.155-.04501.03098-.03198.05099-.07199.061-.12h.086v1.12399h-.086Z"/><path class="o" d="M23.66339,54.11359c0,.02499.008.04202.02499.05402.01703.01199.052.01898.10501.01898v.086h-1.27399v-.086c.052-.00998.091-.026.11499-.047.02399-.022.047-.06198.07199-.12.009-.02301.03302-.08899.07101-.194.039-.10599.08899-.23801.15201-.39899.06198-.16101.13199-.33902.20798-.53601.077-.19699.15402-.397.23102-.60101.07599-.20398.15198-.40298.22699-.59799.07401-.194.14001-.36899.198-.522.05701-.15298.104-.27798.14001-.37399.03598-.09601.05399-.146.05399-.151,0-.02499-.01599-.04099-.047-.04999-.03101-.01001-.064-.01801-.09698-.022v-.086h1.879v.086c-.039.004-.07001.01199-.09402.022-.02399.009-.03598.03299-.03598.07098,0,.01001.02298.073.069.18802.04498.11499.104.26398.17599.44998.07199.185.155.39301.24799.625.09402.233.19101.47101.29202.71402.09998.24197.198.478.29099.70898.09399.229.17902.43701.25601.61801.03799.08701.07098.14398.09698.17398.026.02802.061.043.104.043v.086h-1.418v-.086c.091-.00598.13699-.034.13699-.08698,0-.005-.01199-.03702-.03598-.09702-.02402-.06-.05002-.12799-.07901-.20099-.02899-.07501-.056-.146-.08301-.21301-.026-.06799-.04199-.11301-.047-.13599h-1.70599c-.048.12799-.086.23499-.11499.31598-.02902.08102-.052.146-.06802.194-.017.048-.02899.08301-.03598.104-.00702.02301-.01102.03799-.01102.047M25.41241,52.87558l-.69803-1.71298-.64099,1.71298h1.33902Z"/><path class="o" d="M30.24982,52.89758c-.039,0-.065.013-.07901.04001-.01501.026-.02402.061-.02899.104h-.086v-1.009h.086c.00998.08701.04599.13101.108.13101h2.12399v.086c-.077.005-.116.04599-.116.12201v1.19498c0,.034.00497.06201.01498.08701.009.02301.03302.03601.07199.03601h.03601v.086c-.65298.345-1.42499.51898-2.31799.51898-.30301,0-.59399-.03799-.875-.11298-.28-.07401-.52899-.19-.745-.349-.216-.15802-.39001-.358-.522-.60101-.13202-.241-.198-.526-.198-.853,0-.32501.06598-.61002.198-.853.13199-.241.306-.444.522-.60501.216-.16.465-.27899.745-.35901.28101-.07999.57199-.11798.875-.11798.12,0,.22501.00198.31699.00699.091.005.17902.01401.26602.02802.086.01498.17499.03198.26599.05399s.19901.04901.32401.08301c.12.034.23099.07401.33099.11899.10101.04501.16599.06802.19501.06802.03799,0,.07199-.01801.10001-.05701l.08698.02798-.46799.95001-.086-.05002c.009-.02798.01401-.05499.01401-.07898,0-.03302-.04102-.07101-.12302-.112-.08099-.04001-.18399-.078-.30899-.11099-.125-.03302-.26501-.06302-.42099-.08701-.15601-.02402-.30801-.035-.457-.035-.173,0-.33701.022-.49301.06799s-.29599.116-.418.21201-.21899.215-.29102.35699c-.07199.14099-.108.31-.108.50699,0,.19202.043.35901.12903.5.08698.142.19598.259.32797.35001.13202.091.27902.15802.44202.20102.164.04398.32401.065.483.065.20099,0,.38199-.01202.543-.03702.16101-.02301.31601-.05701.465-.10001v-.47501h-.92899Z"/><path class="o" d="M36.95831,53.39459c.03799,0,.06699-.01398.086-.03998.01999-.02701.034-.08099.04398-.16202h.086v1.246h-.086c-.00998-.077-.02399-.125-.04398-.14099-.01901-.017-.048-.02499-.086-.02499h-3.75702v-.086c.091-.01001.147-.026.16901-.047.021-.022.03198-.04901.03198-.08301v-3.354c0-.034-.01099-.061-.03198-.08301-.022-.022-.078-.03799-.16901-.047v-.086h1.48199v.086c-.091.009-.147.02499-.16898.047-.02103.022-.03201.04901-.03201.08301v2.69199h2.47601Z"/><path class="o" d="M40.83823,52.89099c-.009-.04797-.03003-.08798-.061-.12-.03201-.03-.08301-.047-.155-.047h-1.33902v.67102h2.311c.03799,0,.06702-.01401.086-.04001.01901-.02701.034-.086.043-.177h.08701v1.23099h-.08701c-.009-.06198-.02399-.10098-.043-.11398-.01898-.01602-.048-.02301-.086-.02301h-3.59201v-.08499c.091-.01102.147-.026.16901-.048s.03201-.048.03201-.082v-3.35501c0-.034-.01001-.061-.03201-.08298-.022-.02103-.078-.03702-.16901-.047v-.08502h3.59201c.03799,0,.06702-.01401.086-.03998.01901-.02701.034-.08102.043-.16302h.08701v1.25302h-.08701c-.009-.082-.02399-.13501-.043-.16202-.01898-.026-.048-.04001-.086-.04001h-2.311v.59702h1.33902c.07199,0,.12299-.01501.155-.04501.03098-.03198.052-.07199.061-.12h.08698v1.12399h-.08698Z"/><path class="o" d="M43.11981,52.81097c-.01001.02902-.01401.08002-.01401.151,0,.048.04401.10202.133.16202.08899.061.20401.117.345.16998.142.052.30399.09702.48599.13202.18301.03598.367.05399.55499.05399.35901,0,.62302-.04099.79102-.125.168-.08499.25198-.20499.25198-.36298,0-.08701-.073-.14801-.21899-.18503-.147-.03598-.32999-.064-.55099-.086-.22101-.021-.45801-.04599-.71301-.07199-.254-.02701-.491-.07501-.71198-.14401-.22101-.069-.405-.16998-.55103-.30197-.146-.13202-.21899-.31302-.21899-.543,0-.18301.04202-.34903.12601-.49802.08301-.14801.20099-.27499.35199-.38101.151-.10599.33502-.18799.55103-.24899.21597-.05899.45599-.08899.71997-.08899.24503,0,.47202.01498.68402.047.211.03.39798.06601.561.104.16299.03799.29999.073.41.10498.11099.03003.18997.04602.23798.04602s.086-.01102.11502-.03201c.02899-.021.05499-.047.07898-.07498l.08002.02798-.49701,1.00101-.08701-.04401v-.078c0-.04401-.04599-.08798-.13998-.134-.09302-.04599-.21201-.08701-.35602-.12198-.14398-.03601-.30499-.06702-.48199-.09003-.17801-.02499-.35098-.03699-.51898-.03699-.31201,0-.53003.03699-.65503.108-.125.073-.18698.14899-.18698.23099s.043.14301.129.18301c.08701.04099.20001.07098.33899.09.13901.01999.297.035.47501.047.177.01199.36002.03.547.05402.18701.02499.37.05698.547.10098.177.043.336.108.47501.19101.13901.08398.25201.194.33899.33099.086.13602.12903.30801.12903.51401,0,.15799-.03201.315-.09702.46799-.065.155-.17499.29202-.33099.41501-.15601.12201-.36502.21899-.62601.29199-.26199.07101-.58701.10699-.97601.10699-.30197,0-.56299-.01498-.78098-.043-.21802-.03-.40402-.06299-.55801-.10397-.15298-.04102-.27399-.07901-.36301-.11301-.08899-.03302-.155-.05002-.198-.05002-.02899,0-.05399.01001-.07599.02902-.021.01898-.04401.04099-.06799.065l-.086-.02103.53198-1.28198.07202.03598Z"/></g></svg>