<?xml version="1.0" encoding="UTF-8"?>
<svg xmlns="http://www.w3.org/2000/svg" width="35.990207507771984mm" height="41.106803361451767mm" viewBox="0 0 102.019487380981445 116.523223876953125">
  <defs>
    <style>
      .cls-1 {
        fill: #005a99;
      }

      .cls-1, .cls-2, .cls-3, .cls-4 {
        stroke-width: 0px;
      }

      .cls-2 {
        fill: #040000;
      }

      .cls-3 {
        fill: #005b94;
      }

      .cls-4 {
        fill: #fff;
      }
    </style>
  </defs>
  <polygon class="cls-2" points="51.060098648071289 0 49.737092971801758 1.100006103515625 1.994096755981445 41.0880126953125 .108098983764648 42.664001464842841 1.994096755981445 44.245025634765625 49.737092971801758 84.236007690429688 51.060098648071289 85.339004516601562 52.381097793579102 84.236007690429688 100.133089065551758 44.245025634765625 102.01909065246582 42.664001464842841 100.133089065551758 41.0880126953125 52.381097793579102 1.100006103515625 51.060098648071289 0"/>
  <polygon class="cls-4" points="3.317001342773438 42.66412353515625 51.059999465942383 82.649124145507812 98.809991836547852 42.66412353515625 51.059999465942383 2.683135986328125 3.317001342773438 42.66412353515625"/>
  <polygon class="cls-1" points="73.151399612426758 21.1749267578125 73.151399612426758 64.1539306640625 98.810396194458008 42.6639404296875 73.151399612426758 21.1749267578125"/>
  <polygon class="cls-4" points="93.226099014282227 42.66412353515625 85.103097915650324 41.51715087890625 86.842096328734442 37.698150634765625 83.318094253540039 40.092132568359375 82.138093948364258 32.9581298828125 80.968095779418945 40.092132568359375 77.840097427368164 38.48614501953125 79.702096939086914 42.673126220703125 77.840097427368164 46.84814453125 80.968095779418945 45.243133544921875 82.138093948364258 52.381134033203125 83.318094253540039 45.243133544921875 86.842096328734442 47.639129638671875 85.103097915650324 43.815124511717841 93.226099014282227 42.66412353515625"/>
  <polygon class="cls-2" points="38.02549934387207 24.9708251953125 67.892496109008789 24.9708251953125 67.892496109008789 21.183837890625 34.147497177124023 21.183837890625 34.147497177124023 61.064849853515625 38.02549934387207 64.5218505859375 38.02549934387207 24.9708251953125"/>
  <polygon class="cls-2" points="39.44639778137207 26.387725830078125 39.44639778137207 40.9117431640625 60.408395767211914 40.9117431640625 60.408395767211914 37.0787353515625 43.148393630981445 37.0787353515625 43.148393630981445 30.183746337890625 67.892396926879883 30.183746337890625 67.892396926879883 26.387725830078125 39.44639778137207 26.387725830078125"/>
  <polygon class="cls-2" points="39.44639778137207 42.25982666015625 39.44639778137207 65.787841796875 43.148393630981445 69.0948486328125 43.148393630981445 46.085845947265625 60.408395767211914 46.085845947265625 60.408395767211914 42.25982666015625 39.44639778137207 42.25982666015625"/>
  <path class="cls-3" d="M85.89000129699707,109.122207641601562v-5.37799072265625h-7.864997863769531v5.938995361328125h6.80999755859375l1.055000305175781-.561004638671875ZM84.320001602172852,108.055206298828125h-4.732002258300781v-2.679000854492188h4.732002258300781v2.679000854492188Z"/>
  <polygon class="cls-3" points="78.025003433227539 110.177810668945312 78.025003433227539 116.522811889648438 79.58799934387207 116.522811889648438 79.58799934387207 111.807815551757812 81.822999954223633 111.807815551757812 83.951997756958008 116.522811889648438 85.680002212525324 116.522811889648438 82.82499885559082 110.177810668945312 78.025003433227539 110.177810668945312"/>
  <polygon class="cls-3" points="75.978097915650324 101.624114990234375 75.978097915650324 116.523117065429688 77.544092178344727 116.523117065429688 77.544092178344727 103.251129150390625 86.367097854614258 103.251129150390625 86.367097854614258 109.4271240234375 84.944093704223633 110.178115844726562 83.359094619750977 110.178115844726562 86.205095291137695 116.523117065429688 87.940095901489258 116.523117065429688 85.717096328734442 111.597122192382812 87.940095901489258 110.4271240234375 87.940095901489258 101.624114990234375 75.978097915650324 101.624114990234375"/>
  <polygon class="cls-3" points=".000101089477539 101.624114990234375 .000101089477539 116.523117065429688 1.559101104736328 116.523117065429688 1.559101104736328 103.251129150390625 11.959100723266602 103.251129150390625 11.959100723266602 101.624114990234375 .000101089477539 101.624114990234375"/>
  <polygon class="cls-3" points="2.04210090637207 108.823806762695312 9.432100296020508 108.823806762695312 9.432100296020508 107.194808959960938 3.607099533081055 107.194808959960938 3.607099533081055 105.376815795898438 11.959100723266602 105.376815795898438 11.959100723266602 103.743820190429688 2.04210090637207 103.743820190429688 2.04210090637207 108.823806762695312"/>
  <polygon class="cls-3" points="2.04210090637207 109.324813842773438 2.04210090637207 116.5228271484375 3.607099533081055 116.5228271484375 3.607099533081055 110.951828002929688 9.432100296020508 110.951828002929688 9.432100296020508 109.324813842773438 2.04210090637207 109.324813842773438"/>
  <rect class="cls-3" x="15.801000595092773" y="101.624206542967841" width="1.564998626708984" height="14.899002075196222"/>
  <rect class="cls-3" x="13.758001327514648" y="101.624206542967841" width="1.562000274658203" height="14.899002075196222"/>
  <polygon class="cls-3" points="22.02549934387207 114.401412963867188 29.884496688842773 114.401412963867188 29.884496688842773 108.403427124023438 29.884496688842773 108.340423583984375 28.323495864868164 109.21441650390625 28.323495864868164 112.76641845703125 23.597497940063477 112.76641845703125 23.597497940063477 105.376419067382812 31.93549919128418 105.376419067382812 31.93549919128418 103.744415283203125 22.02549934387207 103.744415283203125 22.02549934387207 114.401412963867188"/>
  <polygon class="cls-3" points="19.980501174926758 101.624114990234375 19.980501174926758 116.523117065429688 31.93549919128418 116.523117065429688 31.93549919128418 107.19512939453125 30.367498397827148 108.0731201171875 30.367498397827148 114.898117065429688 21.550500869750977 114.898117065429688 21.550500869750977 103.251129150390625 31.93549919128418 103.251129150390625 31.93549919128418 101.624114990234375 19.980501174926758 101.624114990234375"/>
  <polygon class="cls-3" points="54.26280403137207 103.744216918945312 54.26280403137207 116.523223876953125 55.828798294067383 116.523223876953125 55.828798294067383 105.376220703125 59.338800430297852 105.376220703125 59.338800430297852 103.744216918945312 54.26280403137207 103.744216918945312"/>
  <polygon class="cls-3" points="48.701700210571289 103.744216918945312 48.701700210571289 105.376220703125 52.221696853637695 105.376220703125 52.221696853637695 116.523223876953125 53.781694412231445 116.523223876953125 53.781694412231445 103.744216918945312 48.701700210571289 103.744216918945312"/>
  <rect class="cls-3" x="48.701997756958008" y="101.624221801757812" width="10.637001037597656" height="1.626998901367188"/>
  <polygon class="cls-3" points="61.541101455688477 101.624114990234375 61.541101455688477 116.523117065429688 73.501100540161133 116.523117065429688 73.501100540161133 114.898117065429688 63.106096267700195 114.898117065429688 63.106096267700195 103.251129150390625 73.501100540161133 103.251129150390625 73.501100540161133 101.624114990234375 61.541101455688477 101.624114990234375"/>
  <polygon class="cls-3" points="63.588403701782227 108.823806762695312 70.974397659301758 108.823806762695312 70.974397659301758 107.194808959960938 65.154397964477539 107.194808959960938 65.154397964477539 105.376815795898438 73.501398086547852 105.376815795898438 73.501398086547852 103.743820190429688 63.588403701782227 103.743820190429688 63.588403701782227 108.823806762695312"/>
  <polygon class="cls-3" points="63.588403701782227 114.401412963867188 73.501398086547852 114.401412963867188 73.501398086547852 112.76641845703125 65.154397964477539 112.76641845703125 65.154397964477539 110.951416015625 70.974397659301758 110.951416015625 70.974397659301758 109.324417114257812 63.588403701782227 109.324417114257812 63.588403701782227 114.401412963867188"/>
  <polygon class="cls-3" points="99.973207473754883 109.324813842773438 91.628206253051758 109.324813842773438 91.628206253051758 103.251815795898438 102.019197463989258 103.251815795898438 102.019197463989258 101.623825073242188 90.056207656859442 101.623825073242188 90.056207656859442 110.951828002929688 98.403200149536133 110.951828002929688 98.403200149536133 112.771820068359375 90.056207656859442 112.771820068359375 90.056207656859442 114.401824951171875 99.973207473754883 114.401824951171875 99.973207473754883 109.324813842773438"/>
  <polygon class="cls-3" points="92.107500076293945 103.744216918945312 92.107500076293945 108.82421875 100.452486038208008 108.82421875 100.452486038208008 114.898223876953125 90.056497573852539 114.898223876953125 90.056497573852539 116.523223876953125 102.019487380981445 116.523223876953125 102.019487380981445 107.195220947265625 93.676492691040039 107.195220947265625 93.676492691040039 105.376220703125 102.019487380981445 105.376220703125 102.019487380981445 103.744216918945312 92.107500076293945 103.744216918945312"/>
  <polygon class="cls-3" points="36.588899612426758 109.324813842773438 36.588899612426758 116.5228271484375 38.160898208618164 116.5228271484375 38.160898208618164 110.951828002929688 42.890893936157227 110.951828002929688 42.890893936157227 116.5228271484375 44.45689582824707 116.5228271484375 44.45689582824707 109.324813842773438 36.588899612426758 109.324813842773438"/>
  <polygon class="cls-3" points="44.457101821899414 108.823806762695312 44.457101821899414 101.623809814453125 42.89109992980957 101.623809814453125 42.89109992980957 107.194808959960938 38.161096572875977 107.194808959960938 38.161096572875977 101.623809814453125 36.58909797668457 101.623809814453125 36.58909797668457 108.823806762695312 44.457101821899414 108.823806762695312"/>
  <rect class="cls-3" x="44.938997268676758" y="101.624206542967841" width="1.569999694824219" height="14.899002075196222"/>
  <rect class="cls-3" x="34.545999526977539" y="101.624206542967841" width="1.567001342773438" height="14.899002075196222"/>
  <polygon class="cls-3" points="83.488801956176758 91.025909423828125 82.80479621887207 91.025909423828125 82.80479621887207 97.543914794921875 83.488801956176758 97.543914794921875 83.492799758911133 97.543914794921875 83.492799758911133 91.025909423828125 83.488801956176758 91.025909423828125"/>
  <polygon class="cls-3" points="83.705598831176758 94.385818481445312 83.705598831176758 97.5438232421875 84.385591506958008 97.5438232421875 84.385591506958008 95.107818603515625 86.44859504699707 95.107818603515625 86.44859504699707 97.5438232421875 87.139596939086914 97.5438232421875 87.139596939086914 94.385818481445312 83.705598831176758 94.385818481445312"/>
  <rect class="cls-3" x="87.352998733520508" y="91.026214599609375" width=".675003051757812" height="6.51800537109375"/>
  <polygon class="cls-3" points="87.139703750609442 94.167007446289062 87.139703750609442 91.026016235351562 87.137697219848633 91.026016235351562 86.448701858520508 91.026016235351562 86.448701858520508 93.461013793945312 84.385698318481445 93.461013793945312 84.385698318481445 91.026016235351562 83.705698013305664 91.026016235351562 83.705698013305664 94.167007446289062 87.139703750609442 94.167007446289062"/>
  <rect class="cls-3" x="56.478998184204102" y="91.026214599609375" width=".688003540039062" height="6.51800537109375"/>
  <rect class="cls-3" x="55.586999893188477" y="91.026214599609375" width=".681999206542969" height="6.51800537109375"/>
  <polygon class="cls-3" points="58.141199111938477 97.54400634765625 58.822198867797852 97.54400634765625 58.822198867797852 91.735015869140625 62.681192398071289 91.735015869140625 62.681192398071289 94.440017700195312 62.061197280883789 94.769012451171875 59.034196853637695 94.769012451171875 59.034196853637695 97.54400634765625 59.72319221496582 97.54400634765625 59.72319221496582 95.480010986328125 62.233194351196289 95.480010986328125 63.370195388793945 94.879013061523438 63.370195388793945 91.026016235351562 58.141199111938477 91.026016235351562 58.141199111938477 97.54400634765625"/>
  <path class="cls-3" d="M62.006998062133789,94.550216674804688l.464004516601562-.244003295898438v-2.35400390625h-3.437004089355469v2.598007202148438h2.972999572753906ZM61.788003921508789,93.839218139648438h-2.06500244140625v-1.171005249023438h2.06500244140625v1.171005249023438Z"/>
  <path class="cls-3" d="M71.452997207641602,96.596206665039062h3.431999206542969v-4.643997192382812h-3.431999206542969v4.643997192382812ZM72.12700080871582,92.668212890625h2.06500244140625v3.231002807617188h-2.06500244140625v-3.231002807617188Z"/>
  <path class="cls-3" d="M70.539796829223633,97.544418334960938h5.236999511719659v-6.51800537109375h-5.236999511719659v6.51800537109375ZM71.240800857543945,91.73541259765625h3.849998474121094v5.082000732421875h-3.849998474121094v-5.082000732421875Z"/>
  <path class="cls-3" d="M68.214998245239258,94.550216674804688l.458000183105469-.244003295898438v-2.35400390625h-3.430999755859375v2.598007202148438h2.972999572753906ZM67.989999771118164,93.839218139648438h-2.067001342773438v-1.171005249023438h2.067001342773438v1.171005249023438Z"/>
  <polygon class="cls-3" points="64.342798233032227 97.54400634765625 65.026796340942383 97.54400634765625 65.030794143676758 91.735015869140625 68.882791519165039 91.735015869140625 68.882791519165039 94.440017700195312 68.268793106079102 94.769012451171875 65.241792678833008 94.769012451171875 65.241792678833008 97.54400634765625 65.923791885375977 97.54400634765625 65.923791885375977 95.480010986328125 68.434793472290039 95.480010986328125 69.571794509887695 94.879013061523438 69.571794509887695 91.026016235351562 64.342798233032227 91.026016235351562 64.342798233032227 97.54400634765625"/>
  <polygon class="cls-3" points="88.957597732543945 95.753509521484375 89.28459358215332 96.477523803710938 88.879594802856445 97.544509887695312 89.558595657348633 97.544509887695312 90.234590530395508 95.753509521484375 88.957597732543945 95.753509521484375"/>
  <path class="cls-3" d="M91.91569709777832,91.952529907226562l-1.36700439453125,3.584991455078125h3.220001220703125l-1.3699951171875-3.584991455078125h-.483001708984375ZM91.494699478150324,94.834518432617188l.663993835448309-1.737991333007812.665000915527344,1.737991333007812h-1.328994750975653Z"/>
  <polygon class="cls-3" points="92.945398330688477 91.025909423828125 91.366395950318292 91.025909423828125 89.91539192199707 94.834915161132812 88.54539680480957 94.834915161132812 88.859392166137695 95.537918090820312 90.324396133422852 95.537918090820312 91.772394180297852 91.73492431640625 92.54039192199707 91.73492431640625 94.751398086547852 97.543914794921875 95.434396743775324 97.543914794921875 92.945398330688477 91.025909423828125"/>
  <polygon class="cls-3" points="90.463403701782227 95.753509521484375 89.781396865844727 97.544509887695312 90.454401016234442 97.544509887695312 90.866403579711914 96.477523803710938 93.447397232055664 96.477523803710938 93.858400344848633 97.544509887695312 94.526399612426758 97.544509887695312 93.849397659301758 95.753509521484375 90.463403701782227 95.753509521484375"/>
  <polygon class="cls-3" points="54.010797500610352 96.816909790039062 53.47679328918457 96.816909790039062 50.55479621887207 91.951919555664062 50.360795974731445 91.951919555664062 50.360795974731445 97.543914794921875 51.05479621887207 97.543914794921875 51.05479621887207 94.123916625976562 53.109796524047852 97.543914794921875 53.117792129516602 97.543914794921875 54.699792861938477 97.543914794921875 54.699792861938477 91.025924682617188 54.010797500610352 91.025924682617188 54.010797500610352 96.816909790039062"/>
  <polygon class="cls-3" points="50.153398513793945 91.73541259765625 50.153398513793945 91.73541259765625 50.153398513793945 91.732421875 50.68339729309082 91.732421875 53.615396499633789 96.601425170898438 53.801393508911133 96.601425170898438 53.801393508911133 91.026412963867188 53.11839485168457 91.026412963867188 53.11839485168457 94.453414916992188 51.054391860961914 91.026412963867188 49.465394973754883 91.026412963867188 49.465394973754883 97.544418334960938 50.153398513793945 97.544418334960938 50.153398513793945 91.73541259765625"/>
  <polygon class="cls-3" points="81.286699295043945 96.816909790039062 80.757692337036133 96.816909790039062 77.831697463989258 91.951919555664062 77.640695571900324 91.951919555664062 77.640695571900324 97.537918090820312 77.431695938109442 97.537918090820312 77.431695938109442 91.73492431640625 77.431695938109442 91.73291015625 77.955698013305664 91.73291015625 80.887697219848633 96.600921630859375 81.077692031859442 96.600921630859375 81.077692031859442 91.025924682617188 80.399698257446289 91.025924682617188 80.399698257446289 94.452911376953125 78.32969856262207 91.025924682617188 76.749696731568292 91.025924682617188 76.749696731568292 97.543914794921875 78.32969856262207 97.543914794921875 78.32969856262207 94.123916625976562 80.395692825318292 97.543914794921875 80.399698257446289 97.543914794921875 81.973695755004883 97.543914794921875 81.973695755004883 91.025924682617188 81.286699295043945 91.025924682617188 81.286699295043945 96.816909790039062"/>
  <polygon class="cls-3" points="100.433198928833008 91.025909423828125 98.982194900512695 93.43292236328125 97.532197952270508 91.025909423828125 95.954195022583008 91.025909423828125 95.954195022583008 97.543914794921875 96.633195877075195 97.543914794921875 96.633195877075195 91.73492431640625 96.633195877075195 91.73291015625 97.168191909790039 91.73291015625 98.982194900512695 94.765914916992188 100.806184768676758 91.73291015625 101.341188430786133 91.73291015625 101.341188430786133 91.73492431640625 101.341188430786133 97.543914794921875 102.019197463989258 97.543914794921875 102.019197463989258 91.025909423828125 100.433198928833008 91.025909423828125"/>
  <polygon class="cls-3" points="100.938493728637695 91.95220947265625 98.982492446900324 95.198211669921875 97.029489517211914 91.95220947265625 96.84349250793457 91.95220947265625 96.84349250793457 97.544219970703125 97.531488418579102 97.544219970703125 97.531488418579102 94.124221801757812 98.982492446900324 96.531219482421875 100.433488845825195 94.124221801757812 100.433488845825195 97.544219970703125 101.13047981262207 97.544219970703125 101.13047981262207 91.95220947265625 100.938493728637695 91.95220947265625"/>
  <rect class="cls-3" x="30.799001693725586" y="91.026214599609375" width=".681999206542969" height="6.51800537109375"/>
  <rect class="cls-3" x="31.696001052856445" y="91.026214599609375" width=".681999206542969" height="6.51800537109375"/>
  <path class="cls-3" d="M26.887399673461914,91.956527709960938l-1.368999481201172,3.589004516601562h3.226001739501953l-1.369003295898438-3.589004516601562h-.487998962402344ZM26.466402053833008,94.834518432617188l.665996551513672-1.739990234375.663002014160156,1.739990234375h-1.328998565673828Z"/>
  <polygon class="cls-3" points="27.923898696899414 91.025909423828125 26.338895797729492 91.025909423828125 24.886896133422852 94.834915161132812 23.520898818969727 94.834915161132812 23.841897964477539 95.545913696289062 25.292898178100586 95.545913696289062 26.74589729309082 91.73492431640625 27.51789665222168 91.73492431640625 29.729898452758789 97.543914794921875 30.410898208618164 97.543914794921875 27.923898696899414 91.025909423828125"/>
  <polygon class="cls-3" points="23.936101913452148 95.762313842773438 24.263101577758789 96.477325439453125 23.856100082397461 97.544326782226562 24.534101486206055 97.544326782226562 25.211099624633789 95.762313842773438 23.936101913452148 95.762313842773438"/>
  <polygon class="cls-3" points="25.435098648071289 95.762313842773438 24.757097244262695 97.544326782226562 25.435098648071289 97.544326782226562 25.842096328735352 96.477325439453125 28.42509651184082 96.477325439453125 28.82609748840332 97.544326782226562 29.505098342895508 97.544326782226562 28.82609748840332 95.762313842773438 25.435098648071289 95.762313842773438"/>
  <path class="cls-3" d="M11.385000228881836,91.026214599609375h-5.231998443603516v6.51800537109375h5.231998443603516v-6.51800537109375ZM10.695001602172852,96.831207275390625h-3.851001739501953v-5.095993041992188h3.851001739501953v5.095993041992188Z"/>
  <path class="cls-3" d="M7.05000114440918,96.612213134765625h3.440998077392578v-4.656005859375h-3.440998077392578v4.656005859375ZM7.736001968383789,92.668212890625h2.063999176025391v3.231002807617188h-2.063999176025391v-3.231002807617188Z"/>
  <path class="cls-3" d="M40.283998489379883,96.612213134765625h3.439002990722656v-4.656005859375h-3.439002990722656v4.656005859375ZM40.96800422668457,92.668212890625h2.066001892089844v3.231002807617188h-2.066001892089844v-3.231002807617188Z"/>
  <path class="cls-3" d="M44.619997024536133,91.026214599609375h-5.232002258300781v6.51800537109375h5.232002258300781v-6.51800537109375ZM43.931001663208008,96.831207275390625h-3.85400390625v-5.095993041992188h3.85400390625v5.095993041992188Z"/>
  <polygon class="cls-3" points=".896499633789062 94.396011352539062 .896499633789062 97.544021606445312 1.578498840332031 97.544021606445312 1.578498840332031 95.107025146484375 3.640499114990234 95.107025146484375 3.640499114990234 97.544021606445312 4.334497451782227 97.544021606445312 4.334497451782227 94.396011352539062 .896499633789062 94.396011352539062"/>
  <rect class="cls-3" x="4.536699295043945" y="91.025908944913624" width=".691497802734375" height="6.518006328922738"/>
  <rect class="cls-3" y="91.026214599609375" width=".683000564575195" height="6.51800537109375"/>
  <polygon class="cls-3" points="4.334001541137695 94.17681884765625 4.334001541137695 91.025833129882812 3.645000457763672 91.025833129882812 3.64000129699707 93.460830688476562 1.579000473022461 93.460830688476562 1.579000473022461 91.025833129882812 .895999908447266 91.025833129882812 .895999908447266 94.17681884765625 4.334001541137695 94.17681884765625"/>
  <polygon class="cls-3" points="16.552301406860352 91.025909423828125 15.648298263549805 91.025909423828125 13.896299362182617 93.102920532226562 13.896299362182617 91.025909423828125 13.20829963684082 91.025909423828125 13.20829963684082 94.990921020507812 16.552301406860352 91.025909423828125"/>
  <polygon class="cls-3" points="16.635801315307617 97.54400634765625 14.799798965454102 93.445007324217841 13.207799911499023 95.327011108398438 13.207799911499023 97.54400634765625 13.89579963684082 97.54400634765625 13.89579963684082 95.595016479492188 14.621801376342773 94.7340087890625 15.88279914855957 97.54400634765625 16.635801315307617 97.54400634765625"/>
  <polygon class="cls-3" points="16.865301132202148 97.54400634765625 17.626298904418945 97.54400634765625 15.758298873901367 93.384017944335938 17.749300003051758 91.026016235351562 16.832300186157227 91.026016235351562 14.950300216674805 93.2650146484375 16.865301132202148 97.54400634765625"/>
  <rect class="cls-3" x="12.315999984741211" y="91.026214599609375" width=".687000274658203" height="6.51800537109375"/>
  <rect class="cls-3" x="18.294000625610352" y="91.026214599609375" width=".687999725341797" height="6.51800537109375"/>
  <polygon class="cls-3" points="22.847700119018555 97.54400634765625 23.602697372436523 97.54400634765625 21.740697860717773 93.384017944335938 23.72669792175293 91.026016235351562 22.809698104858398 91.026016235351562 20.925699234008789 93.2650146484375 22.847700119018555 97.54400634765625"/>
  <polygon class="cls-3" points="22.609899520874023 97.54400634765625 20.775896072387695 93.445007324217841 19.190896987915039 95.327011108398438 19.190896987915039 97.54400634765625 19.87989616394043 97.54400634765625 19.87989616394043 95.595016479492188 20.597898483276367 94.7340087890625 21.854898452758789 97.54400634765625 22.609899520874023 97.54400634765625"/>
  <polygon class="cls-3" points="22.53380012512207 91.025909423828125 21.631799697875977 91.025909423828125 19.879796981811523 93.102920532226562 19.879796981811523 91.025909423828125 19.190797805786133 91.025909423828125 19.190797805786133 94.990921020507812 22.53380012512207 91.025909423828125"/>
  <path class="cls-3" d="M33.227602005004883,91.026016235351562v6.51800537109375h4.087997436523438l1.140998840332031-.603012084960938v-5.31298828125l-1.140998840332031-.602005004882812h-4.087997436523438ZM37.767602920532227,92.066009521484375v4.436004638671875l-.614006042480469.329010009765625h-3.238994598388672v-5.09600830078125h3.238994598388672l.614006042480469.33099365234375Z"/>
  <path class="cls-3" d="M34.12700080871582,91.956207275390625v4.656005859375h2.968002319335938l.468994140625-.2449951171875v-4.16900634765625l-.468994140625-.24200439453125h-2.968002319335938ZM36.875001907348633,95.899215698242188h-2.063999176025391v-3.231002807617188h2.063999176025391v3.231002807617188Z"/>
</svg>