<?xml version="1.0" encoding="UTF-8"?>
<svg xmlns="http://www.w3.org/2000/svg" width="205.537093923509019" height="205.533694807782013" viewBox="0 0 205.537093923509019 205.533694807782013">
  <defs>
    <style>
      .cls-1 {
        fill: #ffe100;
      }

      .cls-1, .cls-2, .cls-3, .cls-4, .cls-5, .cls-6, .cls-7 {
        stroke-width: 0px;
      }

      .cls-2 {
        fill: #f7ab00;
      }

      .cls-3 {
        fill: #221815;
      }

      .cls-4 {
        fill: #e60012;
      }

      .cls-5 {
        fill: #fff;
      }

      .cls-6 {
        fill: #241a17;
      }

      .cls-7 {
        fill: #e8380d;
      }
    </style>
  </defs>
  <path class="cls-6" d="M102.76899651964959,203.884294849449361C47.012200000000121,203.884294849449361,1.649900000000343,158.523383580038171,1.649900000000343,102.766097403909953,1.649900000000343,47.010298812419933,47.012200000000121,1.650383580038579,102.76899651964959,1.650383580038579c55.755898591487494,0,101.118197445539408,45.359915232381354,101.118197445539408,101.115713823871374,0,55.757286176128218-45.362298854051915,101.118197445539408-101.118197445539408,101.118197445539408"/>
  <path class="cls-5" d="M102.76899651964959,3.29979991664004c54.934098612247908,0,99.467797487232019,44.532198875022004,99.467797487232019,99.46729748724465,0,54.933598612260539-44.533698874984111,99.466797487257281-99.467797487232019,99.466797487257281-54.932096519649349,0-99.469196519649813-44.533198874996742-99.469196519649813-99.466797487257281C3.299799999999777,47.831998791662045,47.836900000000242,3.29979991664004,102.76899651964959,3.29979991664004M102.76899651964959,0C46.101999999999862,0,0,46.101098835388257,0,102.767097403884691s46.101999999999862,102.766597403897322,102.76899651964959,102.766597403897322c56.666998568471172,0,102.768097403859429-46.100598835400888,102.768097403859429-102.766597403897322S159.435995088120762,0,102.76899651964959,0"/>
  <path class="cls-5" d="M63.579600000000028,164.77049583754706c0,1.282699967596272-.590799999999945,5.88669985128945,1.251900000000205,5.88669985128945,2.059097426013977,0,4.423897366274105-8.146899794191995,4.423897366274105-10.667899730506178,0-1.396999964708812-.072799998160917-1.947799950794433-1.041999973676866-2.41899993889092-1.286699967495224-.62599998418591-2.431699938570091.48289998780092-3.739797392597211.48289998780092-.914000000000669,0-1.846199999999953-.642999983756454-2.201200000000426-.892999977440923-.357899999999972-.250999993659207-6.732899999999972-4.777899879300094-7.250900000000001-5.172899869321554-.683100000000195-.521999986813171-.985899999999674-1.777799955088994-.913099999999758-2.756799930357374.03610000000026-.503899987270415.684099999999489-2.978112650082039-1.954600000000028-2.978112650082039-.408199999999852,0-3.899400000000242.449712713954796-7.083000000000538,1.527912686717173-3.020999999999731,1.0170873132829-5.879399999999805,2.128899946219462-5.589399999999841,3.50729991139815.465400000000045,2.20169994438038,3.061999999999898.824699979166326,8.379399999999805.824699979166326,1.080600000000231,0,2.26470000000063.132299996657821,3.039600000000064.658199983372469.781200000000354.528799986641388,2.284200000000055,1.656699958148238,2.508300000000418,1.82809995381831.22609999999986.170899995682703.118099999999686.563999985752162-.052300000000287.750999981028144-.171800000000076.189999995200196-10.506800000000112,10.975599722733023-10.506800000000112,10.975599722733023-.701199999999517.665999983175425-1.307099999999991,1.136187781766239-2.688000000000102,1.136187781766239-1.377899999999499,0-2.018999999999323-.403787800268219-2.861799999999675-.403787800268219-.808100000000195,0-2.050299999999879.509787800267986-2.050299999999879,1.440899963599804,0,.834999978906126,1.099100000000362,1.480999962586793,1.511199999999917,1.834999953644001.409700000000157.360799990885425,7.461900000000242,5.892099851153034,7.930699999999888,6.250999842086458.60739999999987.461888040937993,1.486300000000483.840799978759605,1.951200000000426.840799978759605.610799999999472,0,1.97019999999975-.196799995028414,1.97019999999975-1.610799959307769,0-1.666111978513982-.896999999999935-2.43799993841094-.896999999999935-3.689999906782759,0-1.036112071731623,1.356899999999769-2.381299939843302,1.89890000000014-2.934999925855664.67869999999948-.696299982409982,9.613800000000083-9.791112145875559,9.613800000000083-9.791112145875559.288099999999758-.323187598615732.449200000000019-.218187601268255.751999999999498-.037087605843226.303200000000288.178299995495763,2.36620000000039,1.836899953596003,2.88130000000001,2.215799944024184.871600000000399.643099983753928.717800000000352,1.901399951966596.717800000000352,3.193399919327931"/>
  <path class="cls-5" d="M82.738797025655003,167.113295778362954c0-2.273912198324979-2.310099941641965-3.428199913396384-4.499099886343174-3.428199913396384-1.365699965499516,0-3.244099918047141.75089998103067-3.244099918047141,2.521899936291447,0,2.179199944948778,2.965299925090221,3.425299913469644,4.929199875477934,3.425299913469644.990199974985444,0,2.813999928912381-.596199984938721,2.813999928912381-2.518999936364708"/>
  <path class="cls-5" d="M77.598097155520009,171.517595667100977c-1.329999966401374-.796899979868613-4.68009988177073-1.81199995422503-5.896899851031776-1.81199995422503-1.030299973972433,0-2.002999949399964.640099983829714-2.002999949399964,1.596199959676596,0,.954499975887302.570799985580379,1.171799970397842,1.094799972343026,1.552699960775499.524899986739911.380887946710573.548299986148777.765099980671948.286099992772506,1.12209997165337-.264199993325747.359787975056861-4.200199893894023,5.225999867980136-5.059099872196384,6.204999843248515-.859899978277099.979999975243118-1.266097448007713.929699976513803-2.219697448007537.929699976513803-.956100000000333,0-2.913099999999758.099199997493997-2.913099999999758,1.694399957195856,0,1.483899962513533,3.145999999999731,2.736799930862617,5.10889744861106,3.630799908278277,1.883799952411209.859888289820447,4.393999888998223,1.665099957936036,5.10889987093833,1.600099959578074.784099980191968-.073211669758166,1.887199952325318-.381299990367552,1.887199952325318-1.57421166975746,0-1.193788260316978-.646999983655405-1.717788247079625-1.341299966115912-2.436999999999898-.689999982569134-.715788210828578-.663599983236054-1.096688201206234-.164599995841854-1.717788185515928.499999987368938-.620099984334956,4.84379987763532-5.966299849278585,6.276899841432169-7.783211814484275,1.433099963796849-1.814887943047324.905699977120094-2.36078792925673-.165099995829223-3.006787912937398"/>
  <path class="cls-5" d="M103.56739649948031,170.580595690771588c-1.814999954149243,0-2.815896499480004,1.152787889266619-3.914099901121517,1.152787889266619-1.623999958974309,0-1.338899966176541-1.242687886995554-5.203599868546007-1.242687886995554-9.224099766979634,0-10.336399738880573,8.760799778683577-10.336399738880573,10.479999735252932,0,6.550799834512873,5.801203009067649,7.087899820944585,7.280203009067918,7.087899820944585,1.049796780498582,0,1.526896768446022-.287099992747244,2.194896751570923-.426799989218125.667899983127427-.142099996410252,1.006299974578724.382799990329659.71629998190474.952699975932774-1.735399956160109,3.47799991213833-4.10399989632424,4.915999875811394-6.205099843245989,4.915999875811394-1.528299961391895,0-2.759299930294219-1.142111531728006-2.420899938842922-1.477111531728042.334999991537188-.336888422446464,1.895999952103011-.024888430328247,1.895999952103011-1.720688387488735,0-1.812999954199768-1.956999950562022-2.720199931281968-3.341299915591662-2.720199931281968-1.38479996501701,0-3.055699922806525.858888318770369-3.055699922806525,3.151888318770943,0,1.885211553981208,1.87799995255773,5.252411468918581,7.662599806426442,5.252411468918581,10.948299723422679,0,14.178203128481982-12.140099693315278,17.185099565867858-21.068299467769975.778299980338488-2.301799941851641-.428699989170127-4.337899890415429-2.457999937905697-4.337899890415429M96.166500000000269,183.093795374661568c-.570803299137879,1.050699973457085-1.335903279809827,2.245099943284004-3.340803229161793,2.245099943284004-2.004399949364597,0-2.816399928851752-1.432199963819585-2.816399928851752-3.00539992407721,0-1.580111813829717,1.765099955409823-6.970699823905306,3.246099917996617-8.164999793734751,1.481899962564057-1.195799969791551,2.627899933613662-1.002999974662089,2.627899933613662-1.002999974662089,1.241203306402895,0,2.720203306403164.905299977130198,2.720203306403164,2.531299936053983,0,1.620588018512535-1.860803328113434,6.348588018512601-2.436999999999898,7.396999813136063"/>
  <path class="cls-5" d="M114.643500000000131,184.310995343912509c.740796200960176,0,7.634796026803087-.428199989182758,9.977095967631612-1.836899953596003,1.920904032368526-1.155299970814667,2.245099943284004-2.360299940373807,2.245099943284004-3.688899906810548,0-4.069399897198309-4.011195910916285-5.371099864314601-7.123999820032623-5.371099864314601-6.482399836240802,0-11.816399701492628,5.195799868743052-11.816399701492628,11.388599712299765,0,5.740299854987825,4.926299875551194,7.769099803736026,8.305203610609169,7.769099803736026,5.948196029319661,0,8.934000000000196-4.223699893300363,9.755795933131594-5.729999855248025.824204066868333-1.502899962033553-.409699989650107-1.79589995463175-.948699976033822-1.363799965547514-.537095957097335.425799989243387-4.045899897791969,3.727099905845535-7.049299821919703,3.727099905845535-3.334999915750814,0-3.869699902243156-3.102099921634363-3.869699902243156-3.902399901417084,0-.512699987048109.121099996940757-.991699974947551.524903767065553-.991699974947551M118.415500000000065,175.706995561267831c1.289096091820284,0,3.293999999999869,1.266099968015624,3.293999999999869,3.232899918330077,0,.358899990933423-.144103955187347.78519998016418-.4399999999996,1.029799973985064-1.051203921157139.85939997828973-4.751903827669594,1.537099961169588-5.574203806896548,1.537099961169588-.467796193103823,0-1.004899974614091-.176699995536183-1.004899974614091-.859799978279625,0-1.454099963266344,1.482899962538795-4.939999875205103,3.72510378151037-4.939999875205103"/>
  <path class="cls-5" d="M143.301295495717568,164.353495848081366c-3.198795495717604,0-4.999099873712112,4.728999880535412-5.191899868841574,5.132799870334566-.19189562687643.409199989662739-.478099987922178.704087861622611-.71629998190474.263199993351009-.403899989796628-.734899981434864-1.23879996870528-1.766112131728732-2.960999925198848-1.766112131728732-3.056595719772304,0-4.869595719772406,3.007812100360752-4.869595719772406,4.681212058087112,0,1.671787941912953,1.458999999999833,2.578599934859085,2.625,2.578599934859085,1.173795746823089,0,1.744595732403468-1.029811992946634,1.909695728232691-1.363811992946466.167899995758489-.335000000000036.383304271766974-.356887963584995.433999989036238.190912022576413.051304282730598.623999984236434.821304282731035,6.292999841025448.961999975697836,7.509299810299126.144999996336992,1.216788167124832-.03369569296683,1.825699953878939-.499999987368938,2.434999938486726-.461999988328898.60699998466589-1.44579996347602,1.257899968222773-1.323799966557999,2.183599944837624.310104260959633,2.339399940901785,3.975104260960507.431188283800111,6.157699844443414-.467699988184904,2.185099944799731-.89411172801465,4.799404416517064-1.859899953014974,4.799404416517064-3.435111728014817,0-1.576188145389096-2.043000000000575-1.434088148978844-2.54110447356652-1.434088148978844-.502895526434258,0-1.003895526433553-.249999993684469-1.146895526433582-.927699976564327-.144104440953015-.682099982768705-.933104421021199-6.228999842642224-.933104421021199-8.488299785567506,0-2.157699945491913.83589997888339-2.33979994089168,1.242104421020485-1.823699953929463.441000000000713.553699986012361,1.110895519537735,1.180599970175535,2.017595496632566,1.180599970175535,1.933099951165786,0,3.043999923102092-1.27881210513533,3.043999923102092-3.010699923943321,0-1.742199955988326-.751999981002882-3.437999913148815-3.007799924016581-3.437999913148815"/>
  <path class="cls-5" d="M164.033694971973091,158.341795999949682c-3.483899911989283,0-7.338899814603792,3.936999900543015-9.882799750339473,3.936999900543015-.857499978337728,0-1.79009995477827-.393999990046723-1.79009995477827-1.751899955743283,0-2.612299934007751,2.756899930354848-4.58399988419842,3.182599919600761-4.58399988419842.204104813543381,0,.386299990241241.056599998570164.349199991178466.297799992476939-.044999998863204.28909999269672-.131899996667926.585999985196395-.131899996667926.834999978906126,0,.464799988258164.392099990094721,1.554199960737606,1.861804819032841,1.554199960737606,2.359395074330678,0,3.152395054297813-2.76909993004665,3.152395054297813-3.726099905870797,0-1.733899956198002-1.448299963412865-2.329099941161985-2.329099941161985-2.329099941161985-1.920899951473984,0-5.614295113135086,2.292999942073948-7.618199807548081,5.085899871519359-2.176699945011933,3.035199923324399-2.370095305587711,4.334999890488689-2.370095305587711,6.660199831749196,0,2.222199943862506,1.968295315738033,3.793899904158025,3.903295266855821,3.793899904158025,3.818899903526471,0,7.207999817910604-3.761199904984096,9.461899760972301-3.661099907512835,1.32619996649737.055199998605531,1.387699964943749,1.155299970814667,1.387699964943749,1.58599995993427,0,3.223099918577645-3.688894992771566,4.583899884200946-4.0858949927715,4.714299880906765-.390604894142598.12989999671845-.902804881203338.191899995152198-1.071804876934038.06099999845901-.142099996410252-.114199997115065.037099999062775-.349099991180992.037099999062775-.741199981275713,0-.395999989996199-.393999990046723-1.67179995776678-1.862295122128671-1.67179995776678-.877904808648054,0-2.969704755804742,1.243599968584022-2.969704755804742,3.94189990041923,0,1.789999954780797,1.427704755804371,2.611799934020382,3.185099919537606,2.611799934020382,5.117604836266764,0,11.311999714234844-6.518099835338944,11.311999714234844-12.99559967170353,0-1.185099970061856-.427299989205494-3.61819990859658-3.721199905994581-3.61819990859658"/>
  <path class="cls-5" d="M30.725099999999657,57.224598554385011c-.770999999999731-.555214974347109-1.053199999999379-.696299982409982-1.47019999999975-.696299982409982-.409700000000157,0-1.034700000000157.376999990476179-1.498599999999897.376999990476179-.467200000000048,0-.969200000000455-.344799991289619-1.076100000000224-.912599976945785-.083999999999833-.457999988429947.125900000000001-.902399977203459.41399999999976-1.184099970087118.283699999999953-.286099992772506,3.704099999999926-4.352999890033971,3.975100000000566-4.653299882447754.26760000000013-.305699992277368.61869999999999-.524915152932408.981999999999971-.432599989071605.483799999999974.126899996794236.948699999999917.663999983225949.859800000000178,1.359799965648563-.100100000000566.799799979795353-.088800000000447,1.6659999579133.482899999999972,2.151884870490903.575199999999313.481915062973712,2.418999999999869,1.970215025376092,2.829099999999926,2.234415018701839.412099999999555.270499993166595.946799999999712.467699988184904,1.575199999999313-.157299996026268.625-.62599998418591,3.583000000000538-4.214799893525196,3.88380000000052-4.603999883693177.30619999999999-.395999989996199.5649999999996-.973115138982394.163099999999758-1.360799965623301-.432099999999991-.411199989612214-3.096199999999953-2.6288999335884-3.331999999999425-2.808099929061427-.229000000000269-.181215244298073-.57130000000052-.415099989513692-.893100000000231-.415099989513692-.320800000000418,0-.450200000000223.073799998135655-.732899999999972.20119999491726-.288100000000668.122599996902863-.576200000000426.282684750298358-.789099999999962.282684750298358-.21480000000065,0-.49120000000039-.081000000000131-.788100000000668-.376884747918666-.296799999999166-.293999992572935-.341699999999946-.857899978327623.018100000000231-1.411199964350089.357899999999972-.556599985939101,3.401899999999841-4.156699894992926,3.75880000000052-4.477999886876205.361299999999574-.321799991870648.610399999999572-.515599986974848.967299999999341-.515599986974848.518100000000231,0,1.037100000000464.551684586120246,1.037100000000464,1.107899972012092,0,.554699985987099-.122100000000501.768999980573426-.122100000000501,1.18309997011238,0,.409684643995206.300799999999981.640599983817083.572799999999916.856899978352885.267100000000028.215899994545907,8.680200000000696,7.163099819044874,8.680200000000696,7.163099819044874.662099999999555.515599986974848.933100000000195.642599983766559,1.272899999999936.642599983766559s1.091800000000148-.376999990476179,1.557099999999991-.376999990476179c.46389999999974,0,.983900000000176.341399991375511.983900000000176,1.077199972787639,0,.732884880520032-.983900000000176,1.787099954854057-2.058100000000195,3.1488848805202-1.077100000000428,1.364315005466779-2.004899999999907,2.451214978009375-2.686000000000604,2.451214978009375-.67869999999948,0-1.125999999999294-.500999987343675-1.125999999999294-1.162099970642885,0-.66411500736649.105999999999767-.411199989612214.105999999999767-.732899981485389,0-.324215025881131-.127000000000407-.719299981828954-.501000000000204-1.040099973724864-.377899999999499-.319799991921172-2.58010000000013-2.074199947601301-2.846700000000055-2.290999942124472-.268100000000231-.214799994573696-.768999999999323-.538115110031868-1.291000000000167.017099999568018-.517100000000028.553699986012361-3.61619999999948,4.332999890539213-3.992199999999684,4.798784890399475-.373999999999796.466314976592912-.573199999999815,1.164114958965001-.051800000000185,1.613314947617255.518600000000333.446799988712883,2.378999999999905,2.057599948020652,2.774900000000343,2.326685052383255.394099999999526.266114882117108.714899999999943.320314880747901.948800000000119.320314880747901.645999999999731,0,.751900000000205-.355999991006684,1.270999999999731-.355999991006684.428200000000288,0,1.112299999999777.338899991438666,1.112299999999777,1.109899971961568,0,.48289998780092-.290100000000166.894999977390398-.684099999999489,1.412099964327354-.392100000000028.520999986838433-2.632300000000214,3.240685173969723-3.043900000000576,3.707999906328041-.408300000000054.465799988232902-.784200000000055.62599998418591-1.092299999999341.62599998418591-.30370000000039,0-1.144100000000435-.286099992772506-1.144100000000435-1.112314716544461,0-.782685235583813.161200000000463-.819785234646588.161200000000463-1.196785225122767,0-.302214774877029-.267100000000028-.538099986406451-.571800000000621-.804214774877437-.305199999999786-.268999999999323-8.218299999999545-6.821785032473599-8.596199999999953-7.091785025652825"/>
  <path class="cls-5" d="M148.969195352534371,44.383798878770904c-.332999991587712.430199989132234-.799799979795353.917999976809369-.799799979795353,1.275899967768055,0,.774899980424379.656799983407836,1.289999967411859.717799981866847,1.815899954126508.092799997655675.804199979684199-.523899986765173,1.219199969200417-1.160199970690883,1.219199969200417-.481899987826182,0-1.310999966881354-.33689999148919-2.072699947639194-.840299978772236-.548399986146251-.355499991019315-3.114299921326165-2.105499946810596-3.605999908904778-2.481899937301932-.494099987517984-.375999990501441-1.076099972815427-.940999976228341-1.122999971630634-1.590899959810486-.020999999469495-.300699992403679.094699997607677-.986799975071335.989699974998075-1.131799971408327.781299980262702-.121099996940757,1.231999968877062.049799998741946,1.850099953262543-.067899998284702.296899992499675-.058999998509535.850099978524668-.725999981659697,1.098199972257135-1.051199973444454.246999993760255-.322799991845386,5.665999856864801-7.870199801182025,5.946699849773722-8.234899791968928.571299985567748-.752899980980146.630399984074757-1.081999972666381.630399984074757-1.493199962278595,0-.654699983460887-.601999984792201-.946699976084346-.685999982670182-1.731899956248526-.066399998322595-.606899984668416.388699990180612-1.273899967818579,1.043899973628868-1.273899967818579.372099990599963,0,.932599976440542.163999995857012,1.564999960464775.593699985001876.656699983410363.451199988601729,3.685999906883808,2.554199935475481,4.237799892944167,2.960999925198848,1.000899974715139.745099981177191,1.029299973997695,1.414999964254093.895999977365136,1.766099955384561-.216799994523171.562999985777424-.718799981841585.705099982187676-1.422899964054523.666999983150163-.805199979658937-.039099999012251-1.267099967990362.109799997226219-1.767099955359299.787099980116182-.4989999873942.683099982743443-5.410099863329378,7.62109980747482-6.337899839891179,8.811999777390156"/>
  <path class="cls-5" d="M72.639097280794886,23.108383580038208c-.233799994093715-.929184140331927-.322199991860543-1.342284129896143-.644999983705929-1.592284123580612-.329099991686235-.250999993659207-1.361799965598038-.268099993227224-1.767999955336563-.582999985272181-.361899990857637-.28371589114704-.556199985949206-.852999978451408-.29199999262346-1.375999965239316.210899994672218-.414499989528849,1.003899974639353-.691899982521136,1.395999964734074-.786599980128813.402799989824416-.101999997423263,3.396899914187088-.819299979302741,3.793899904158025-.897499977327243.400899989872414-.076615968451733.880899977746594.103599997382844,1.192899969864811.314499992055062,1.674299957703624,1.143599971110234,9.266099765918625,6.232884039493001,10.885199725016719,7.325699814937252.410199989637476.281184224555545.823799979189062.243099993858777.67089998305164-.442899988811405-.129799996720976-.580999985322705-1.030699973962328-4.599099883816962-1.358899965671299-6.049799847169197-.167899995758489-.726115939463853-.672799983003642-1.164115939463954-1.495999962207861-1.443399963536649-.309099992191477-.099599997483892-.853099978448881-.489715975926629-.853099978448881-1.063899973123625,0-.416999989465694.234899994065927-.923816002803505.997099974811135-1.182099970137642.622099984284432-.213899994596431,4.557099884877971-1.134799971332541,5.029799872936564-1.224716032666038.64209998377919-.123999999999796,1.190399969927967-.170883932078141,1.690399957296904.188000000000102.41899998941517.300816051256334.601599984802306.993716033752207.12699999679171,1.520116020454225-.288099992721982.315883979546015-.856999978350359.804599979674094-.591299985062506,1.913999951648293.391999990097247,1.657699958122976,2.963299925140745,12.7465996779938,3.153299920340942,13.570799657172756.185999995301245.82719997910317.172799995634705,1.347199965966865-.136299996556772,1.729999956296524-.375899990503967.464799988258164-1.057099973295408.726084414428442-2.37199994007824-.150915585571056-1.45899996314256-.976084385958529-12.095699694436917-8.153284204647207-12.784699677031313-8.630384192594647-.527299986679282-.366699990736379-.92039997674874-.170899995682703-.761199980770471.550299986098253.14599999631173.672899983001116,1.621999959024834,7.219299817625142,1.728999956321786,7.687999805784784.105899997324741.472199988071225.20119999491726.749999981053406.428199989182758.937999976304127.399899989897676.325199991784757.925799976612325.329084424407483,1.335899966252327.643084424406879.339899991413404.260715552761212.545899986209406.955115535219193.133799996619928,1.459915522466872-.308099992216739.375999990501441-1.247999968472868.764199980694684-1.87589995261078.951199975970667-.626999984160648.187999995250721-3.205099919032364.900884501562359-3.816899903576996,1.016599974318524-.563999985752162.108399997261586-1.607899959381029.136199996559299-2.052299948154541-.155715472756128-.255799993537948-.16608451911452-.708999982089153-.714884505250666-.130799996695714-1.457084486501117.359799990910687-.459915513498345.630799984064652-.743099981227715.815899979388632-1.071799972924055.164999995831749-.301199992391048-.045899998840468-1.290999967386597-.117699997026648-1.620115540574261-.03219999918656-.14888441473704-2.155299945552542-9.383284181456474-2.327199941209983-10.082000000000335"/>
  <path class="cls-5" d="M161.107895045885016,42.413098928554973c.692899982495874-.663099983248685,1.160199970690883-1.098199972257135,1.182099970137642-1.457999963167822.040099998986989-.595199984963983-.344199991304777-1.248099968470342-.276299993020075-1.751999955740757.069299998249335-.461899988331425.538999986383715-.826099979130959,1.123999971605372-.811999979487155.476999987949966.01319999966654,1.046399973565713.531799986565602,1.322199966598419.821799979239586.314999992042431.330099991660973,1.467799962920253,1.547399960909388,1.710999956776504,1.826199953866308.265099993303011.309999992168741.428199989182758.923799976662849.399899989897676,1.297799967214814-.163099995879747,2.021999948919984-1.236799968755804,11.36919971278985-1.464899962993513,13.34329966291989-.058999998509535.494599987505353.261799993386376.744599981189822.717799981866847.363699990812165.455099988503207-.382799990329659,3.701199906499824-3.291899916839611,4.797399878807482-4.296799891453702.547799986161408-.503899987270415.96579997560184-.932199976450647.609799984595156-1.720199956544093-.161099995930272-.351099991130468-.102999997398001-1.112799971888307.394099990044197-1.39509996475681.359899990908161-.204599994831369.935999976354651-.211899994646956,1.539999961096328.322299991858017.491699987578613.438999988909927,3.135799920783029,3.379899914616544,3.44579991295177,3.747999905317556.425299989256018.49609998746746.776899980373855.953199975920143.707099982137152,1.479099962634791-.06889999825944.509699987123895-.519099986886431.931099976478436-1.218799969210522.823699979191588-.49609998746746-.071799998186179-1.194299969829444-.4638999882809-1.950199950733804.224099994338758-1.25489996829856,1.146999971024343-9.566899758319778,8.870099775922426-10.228999741593725,9.456099761118821-.636199983928236.56289998577995-1.189899969940598.81689997936337-1.680199957554578.740699981288344-.588799985125661-.09769999753189-1.324699966535263-.679699982829334-1.215799969286309-2.255899943011173.123999996867497-1.752899955718021,1.429199963895371-13.314899663637334,1.50389996200829-14.144999642667244.058099998532271-.639599983842345-.308099992216739-.824699979166326-.855899978378147-.327599991724128-.509799987121369.459899988381949-4.7690998795224,4.197699893957179-5.12209987060487,4.519499885827827-.359899990908161.326199991759495-.552699986037624.543499986270035-.604999984716414.838399978820235-.087899997779459.500999987343675.262199993376271,1.161599970655516.140099996460776,1.664999957938562-.146899996288994.584999985221657-.7030999822382.873099977943639-1.276799967745319.775899980399117-.477999987924704-.078099998027028-1.117199971777154-.646999983655405-1.588399959873641-1.096199972307659-.473599988035858-.452599988566362-2.173799945085193-2.359899940383912-2.579599934833823-2.829599928518292-.373999990551965-.434099989033712-.972099975442688-1.330099966398848-.943299976170238-1.862299952954345.017099999568018-.302699992353155.289999992673984-1.008799974515568,1.221199969149893-.872099977968901.579999985347968.085999997827457.868099978069949.345299991276988,1.238699968707806.288099992721982.311099992140953-.048799998767208,1.059099973244884-.655699983435625,1.314999966780306-.883799977673334.112299997163063-.101999997423263,7.117199820204405-6.330999840065488,7.636199807093362-6.827099827532948"/>
  <path class="cls-5" d="M125.997499999999491,20.667999477882404c.216795927372004-.609399984605261.456095921326778-1.081099972689117.296895925348508-1.541999961045804-.140099996460776-.392099990094721-.483895925348406-.678199982867227-.611799984544632-1.125999971554847-.138199996508774-.49319998754072.127904059196226-.943399976167711.488799987651873-1.119099971729156.416999989465694-.207999994745478.754899980929622-.151899996162683,1.32610407154425.039999998989515.575195880424872.19089999517746,4.674895776857738,2.030799948697677,4.98779576895322,2.196799944504164.356999990981421.194299995091569.673399982988485.454099988528469.682204231046853.831999978981912.013195751385865.4989999873942-.105999999999767.886199977612705-.825204227434369,1.05319997339393-.783699980202073.182599995387136-1.005899974588829.194899995076412-1.31589996675757.878899977797118-.311099992140953.681199982791441-1.846699953348434,3.88379990188696-1.992699949660164,4.350099890107231-.14599999631173.470699988109118-.134299996607297.909699977019045.637699983890343,1.340899966126017.774899980424379.433099989058974,5.487299861379142,2.483799937253934,5.94189984989498,2.666899932628439.462399988318793.185099995323981,1.121999971655896.25399999358342,1.384204310066707-.239699993944669.280795647871855-.52539998672728,1.788095609794254-3.833999903145013,1.899000000000342-4.107399896238348.109795604218561-.269599993189331.358895597925766-.658699983359838.358895597925766-1.037599973788019,0-.320299991908541-.163099995879747-.596199984938721-.440999988859403-.790999980017659-.2528956090664-.186999995275983-.445799988738145-.514199987010215-.445799988738145-.910199977006414,0-.733899981460127.697799982372089-1.126899971532112,1.449699963377498-.820799979264848.640204416294182.255899993535422,4.582099884246418,1.902799951931229,5.092299871357682,2.130899946168938.338904544936668.149899996213207.815999979386106.455999988480471.815999979386106.857899978327623,0,.778799980325857-.465899988230376.985799975096597-.758299980843731,1.001899974689877-.289599992684089.017099999568018-.567899985653639.107899997274217-.889699977524288.303299992337998-.197299995015783.121999996918021-.548299986148777.634699983966129-.679199982841965.94969997600856-.131799996670452.315899992019695-4.269999892130727,9.722099754399096-4.553699884963862,10.29539973991632-.288099992721982.568799985630903-.646999983655405,1.340799966128543-.559099985875946,1.84369995342422.070799998211442.388199990193243.380904377600018.687999982619658.537099986431713,1.126999971529585.268599993214593.753899980954884-.410099989640003,1.216799969261046-.911099976983678,1.216799969261046-.644095631847449,0-1.711899956753768-.385799990253872-3.292999916811823-1.088899972492072-1.647899958370544-.736799981386866-3.314899916258582-1.341799966103281-3.314899916258582-2.310099941641965,0-.573699985507119.377899990453443-.8968999773424.841804201222658-1.002899974664615.531195764092445-.122999996892759.785095757678391-.100099997471261,1.093195749895131-.186999995275983.309599992178846-.087899997779459.526899986689386-.221699994399387.733899981460127-.67379998297838.206099994793476-.448299988674989,1.369699965398468-3.012199923905428,1.502999962031026-3.330099915874598.134699996597192-.316899991994433.300699992403679-.938999976278865-.374095693386153-1.289999967411859-.678204280030513-.343799991314881-5.748999999999796-2.525899936190399-6.293904138165999-2.759799930281588-.553199986024993-.23629999403056-1.094299972355657-.177299995521025-1.386199964981643.443799988788669-.288099992721982.622099984284432-1.270099967914575,2.731999930983875-1.422895896852424,3.185099919537606-.149904063415306.451199988601729-.173804062811541.774899980424379-.110804064403055.999999974737875.174804064403361.620099984334956.491699987578613.61279998451937.63280406440299,1.112799971888307.117195916650417.413099989564216-.024904079759835,1.099099972234399-.766104061035549,1.310999966881354-.464895938964219.12989999671845-1.12209997165337-.093699997632939-1.728099956344522-.330999991638237-.605899984693679-.240699993919407-3.65179598261966-1.521999961551046-4.212899893573194-1.799799954533228-.592699985027139-.296899992499675-.76169998075784-.335999991511926-.897896089046299-.818899979312846-.084000000000742-.289999992673984-.128903885014552-1.119099971729156.664096094952583-1.343199966067914.757799980856362-.213899994596431.948699976033822-.077199998049764,1.290999967386597-.232999994113925.192799995129462-.086899997804721.500903937660041-.724099981707695.67669998290512-1.089799972469336.176299995546287-.36619999074901,4.290099891622958-9.752399753633654,4.449203954754921-10.185999742679996"/>
  <path class="cls-5" d="M72.583499999999731,37.530299051904876c-.405802707548901-.415999989490956-.644999999999527-.440499988872034-1.322802684383532-.356499990994052-.392099990094721.049299998754577-.863299978191208-.142499996400147-1.075197315616606-.287599992734613-.213802651820515-.142099996410252-13.165999999999258-8.772899778377905-13.808099999999286-9.092299770309182-.59270000000015-.295899992524937-.816900000000714-.26559999329038-1.482899999999972.106999997296953,0,0-1.717800000000352,1.179199970210902-2.074700000000121,1.395999964734074-.358400000000074.215299994561065-.288100000000668.610299984582525-.249000000000706,1.000999974712613.033699999999953.393999990046723,3.281700000000455,16.38619958604977,3.30370000000039,16.747999576909933.020999999999731.391099990119983-.347700000000259.667999983124901-.488800000000083,1.131299971420958-.144999999999527.464899988255638-.104000000000269.937099976326863.237799999999879,1.314999966780306.238299999999981.2597999934369.883300000000418.343699991317408,1.278299999999945.117699997026648.429700000000594-.249999993684469,3.802800000000389-2.563999935227912,4.236899999999878-2.995599924324779.537100000000464-.537199986429187.607899999999972-1.145999971049605.167900000000373-1.553299960760341-.382800000000316-.348099991206254-.89890000000014-.22309999436402-1.108900000000176-.297799992476939-.217200000000048-.069399998246809-.361299999999574-.320299991908541-.432099999999991-.573299985517224-.070799999999508-.248999993709731-.358900000000176-1.714799956680508-.429199999999582-2.254799943038961-.070800000000418-.538099986406451,0-1.145999971049605.322299999999814-1.430199963870109.321799999999712-.28909999269672,2.897899999999936-2.043999948364217,3.29489999999987-2.258799942937912.314000000000306-.170899995682703.773000000000138-.195299995066307,1.002000000000407-.036099999088037.248999999999796.181099995425029,2.110797446835022,1.290999967386597,2.363197440458862,1.505799961960292.248599993719836.213399994609063.426799989218125.250999993659207.426799989218125.607399984655785,0,.358899990933423-.211899994646956.381899990352395-.355999991006684.668999983099638-.143999996362254.286099992772506-.123999996867497.778799980325857.177799995508394,1.087899972517334.305102565820562.305199992289999.994102565820867.330999991638237,1.528299961391895.058099998532271.607899984643154-.310099992166215,4.09369989658444-2.99219992441067,4.45409988747997-3.352099915318831.254899993560684-.259199993452057.477999987924704-.802199979734723.033702716948937-1.255799968275824M60.786599999999453,36.91309906749666c-.233899999999267.185999995301245-1.180199999999786.871099977994163-1.567900000000009,1.101099972183874-.383299999999508.231899994141713-.680099999999584.056099998582795-.76799999999912-.312099992115691-.062000000000808-.248999993709731-.503000000000611-2.147899945739482-.557200000000194-2.476999937425717-.052700000000186-.332999991587712-.108799999999974-.487799987677136.090900000000147-.627899984137912.19629999999961-.14309999638499.367199999999684-.08209999792598.670399999999972.094699997607677.321799999999712.191899995152198,1.770999999999731,1.142099971148127,2.074699999999211,1.353999965795083.319300000000112.2143999945838.288100000000668.680199982816703.057099999999991.867199978092685"/>
  <path class="cls-5" d="M106.887196415615108,13.529299658221134c-4.372099889551464,0-6.981899823622371,2.063999947858974-6.981899823622371,4.463899887232401,0,.55999998585321-.112299997163063,3.853999902639771,5.690899856235774,5.823184034584301,3.379899914616544,1.148915789285638,6.016099848020531,2.252000000000407,6.016099848020531,4.286615710020669,0,.894999977390398-.416999989465694,2.185099944799731-3.353999915270833,2.185099944799731-3.079099922215391,0-4.770999879474402-2.031799948672415-5.455099862192583-2.782715654820095-.679199982841965-.751000000000204-.928199976551696-.965384250494935-1.643999958469067-.965384250494935-.718799981841585,0-1.586899959911534.728099981606647-2.197799944478902,1.333999966300325-.607399984655785.609384284194675-2.279299942420039,2.391099939595733-1.493099962281121,3.426299913444382.433099989058974.571799985555117,1.037999973777914.438999988909927,1.64989995832002.249999993684469.461899988331425-.140099996460776,1.431099963847373-.679199982841965,2.217199943988817-.679199982841965,1.660699958047189,0,4.868699877006293,2.542999935758417,9.452699761204713,2.542999935758417,4.118099895968044,0,6.874999826322892-2.433599938522093,6.874999826322892-5.19389986879105,0-2.753899930430634-1.940899950968742-4.131815707060014-3.936999900543015-5.119099870680657-2.69779993184784-1.336899966227065-8.449699786542624-1.812999954199768-8.449699786542624-4.870599876958295,0-1.526399961439893,1.715799956655246-2.087399947267841,2.96869992500433-2.087399947267841,1.612299959269876,0,2.722199931231444.657199983397732,4.155299895028293,1.695283987846778,1.430599963860004,1.040000000000873,2.695799931898364,1.944815920196561,3.880799901962746,1.944815920196561,1.181199970160378,0,3.244199918044615-2.015099949094292,3.244199918044615-3.626899908376799,0-.511299987083476-.34719999122899-1.00491601181966-1.110399971948937-1.00491601181966-.497999987419462,0-2.040999948440003,1.289000000000669-2.935999925830401,1.289000000000669-1.490699962341751,0-3.777799904564745-2.911083921817408-8.591799782952876-2.911083921817408"/>
  <path class="cls-7" d="M102.796396518957408,163.206095877067128c33.378899156778061,0,60.437998473207699-27.0580993164549,60.437998473207699-60.436098473255697,0-33.377899156803323-27.059099316429638-60.438898473184963-60.437998473207699-60.438898473184963-33.375999156851321,0-60.437996518957334,27.06099931638164-60.437996518957334,60.438898473184963,0,33.377999156800797,27.061997362106013,60.436098473255697,60.437996518957334,60.436098473255697"/>
  <path class="cls-3" d="M98.626500000000306,62.881798411472118c-2.183203320550092-.191899995152198-4.367203265377611.008799999777693-6.454103212658083.603099984764413,2.061999947909499-.572299985542486,4.251899892587971-.693899982470612,6.454103212658083-.603099984764413"/>
  <path class="cls-6" d="M63.447699999999713,76.456098068556457c-.908199999999852,2.992599924400565-3.100099999999657,5.535599860158982-2.518000000000029,8.768999778476427.796900000000278,3.667999907338526,3.103000000000065,7.144999819502118,2.179200000000492,10.783699727580824-.039099999999962.126899996794236-.075200000000223.273899993080704-.109400000000278.431099989109498,1.122999999999593-2.402799939300166,2.081097471738758-4.805099878612964,1.984400000000278-7.4227998124843.02779747347904-1.750999955766019-.816400000000613-3.523899910978798-1.224100000000362-5.502499860995158-.422899999999572-.882799977698596-.189000000000306-1.536599961182219-.173899999999776-2.412499939055124.235899999999674-.873099977943639,1.148999999999432-3.052299922892416,2.004897458849882-1.721199956518831,1.071799972924055,1.332999966325588,1.025899974083586,3.96379989986599,2.772999929948128,4.214799893525196,3.067799922500853.275399993042811,2.268999942680239-4.346699890193122,2.30809994169249-6.537599834846333-.174397330491047-2.632299933502509-2.32129994135903-5.302199866055162-.957999975798884-7.908199800222064.909602645308041-1.959999950486235,3.329499915889755-2.351999940583482,5.300699866093055-2.318799941422185,1.535199961217586.023899999396235,3.498099911630561.716799981892109,4.123099895841733,2.480899937327194.629899984087388,1.546899960922019-.714899981940107,3.278799917170545.361802883373457,4.393099889020959,3.214397026284132,4.22069989337615,6.619096940274176-2.29489994202595,9.933096856555494-3.991199899173807.886199977612705-.424799989268649,1.544903143444571-.630899984062125,2.433099938534724-1.057199973292882,2.207999944221228-1.054599973358563,4.607899883594655-.354899991034472,7.022999822584097-.533699986517604,1.100099972209136-.197199995018309,2.219199943938293-1.495999962207861,1.136199971297174-2.171799945135717-2.375999939977191-2.01609994906903-5.693396588971154-.540099986355926-8.3402997893063.512699987048109-1.098699972244503.198199994993047-2.199699944430904.399899989897676-3.295899916738563.160099995955534-.431196882926997-.225099994313496-.639196882926626-.890099977514183-.414099989538954-1.100099972209136.979999975243118-.741199981275713,2.023903106612124-1.288099967459857,3.116199921278167-1.691899957259011-.187999995250721.06889999825944-.373999990551965.127999996766448-.559099985875946.199699994955154-1.515099961725355.62019998433243-3.017099923781643,1.288099967459857-4.539999885309953,1.641199958539801-1.727999956347048.397899989948201-3.240196943479532.804199979684199-4.960899874677125.989199975010706-2.151899945638434-.038099999037513-4.298899891400652-.075199998100288-6.433199837483699-.756299980894255-1.923799951400724-.678699982854596-3.635699908154493-1.138699971234018-5.335899865203828-2.242699943344633-1.277799967720057-.666999983150163-2.338899940914416-1.330099966398848-3.611799908758258-2.427299938681244-1.273397457356623-.882799977698596-2.986297457357068-1.341799966103281-4.086397457356725.145099996334466-.658699999999953.848099978575192-1.106000000000677,1.912999951673555-1.340900000000147,2.98189992467087-.707000000000335,3.428199913396384,1.827199999999721,6.050299847156566,3.068900000000212,8.864299776068947.410100000000057,1.084899972593121.392100000000028,2.157699945491913.156199999999444,3.228999918428599"/>
  <path class="cls-6" d="M143.623499999999694,88.083997774810996c1.861795440545393-1.393099964807334,1.744195443516219-1.839899953520217,1.994195437200688-3.101099921659625.248999993709731-1.255799968275824-.179195437200178-1.934099951140524-.177299995521025-2.15179994564096-1.041999973676866-1.95219995068328-1.436999963698327-3.893099901652022-.75389544167956-6.033199847588548,1.122095432378046-2.77199992997339,3.510795372034409-4.234899893017428,4.840795338435782-6.571799833982368,1.32909996642411-2.129399946206831-1.211899969384831-4.322299890809518-3.133795338435448-5.002999873613589-1.284104549959011-.451099988604255-2.788000000000466-.476999987949966-4.081000000000131-.285099992797768-4.099104375751267.788099980090919-7.37310429304307,3.955999900063034-11.662104184693817,3.235799918256816-2.783699929677823-.480899987851444-5.341799865054782-1.595699959689227-8.342799789243145-2.29489994202595-3.631299908265646-1.139199971221387-6.884299826087954.522999986787909-10.523899734143924-.398899989922938-3.425299913469644-.920899976736109-6.628399832552532-1.834999953644001-10.267099740631238-2.75589993038011-1.059096551288349-.234399994078558-1.917999951547245.166999995781225-2.769999930023914.163599995867116,1.030699973962328.047399998802575,2.059099947982759.134299996607297,3.080999922167393.247099993757729,3.72169990598195.28119999289629,6.52299983521516,3.181099919638655,10.005903456568376,4.558099884852709.87209626863023.234799994068453,1.748000000000502.247999993734993,2.625.262199993376271,2.40179616367368.481899987826182,3.908196125618815,2.26269994283939,6.083999999999833,3.176699919749808,1.307096037633528.464899988255638,3.042895993783532,1.368199965436361,4.382795959934811.079099998001766.451204040065932-.649899983582145.026299999335606-1.535099961220112.042999998913729-2.412099939065229.005299999866111-.217699994500435.227999994240236-.434999989010976.4432999888013-.428699989170127,1.756799955619499.026899999320449,3.487799911890761,1.154799970827298,5.249999867373845.746099981151929.880904184976316-.204099994844,1.542999961020541-.41109998961474,2.421904184976484-.613299984506739,3.074195676180352-.168899995733227,6.159195598246697-1.209899969435355,8.99119552670436-.06389999838575,1.958999950511497.913999976910418-.500999987343675,3.497999911633087-1.40329996454966,5.018999873209395-.916999976834632,2.396999939446687,1.232899968854326,4.623999883187935.973104437845905,7.033199822326424-.230000000000473.652799983508885-.691904444949614,1.958999950511497-1.559104423042299,1.505899961957766-.868099978069949-.450199988626991-1.510699961836508-1.343299966065388-1.499999962106813-2.217299943986291-.408199989688001-1.544899960972543-.601999984792201-3.078599922228022-1.234799968806328-4.406799888674868-.643095646045367-.890099977514183-1.723199956468306-1.783199954952579-2.828199928553659-1.365199965512147-1.98679994980921.842299978721712-3.563895717491505,3.225099918527121-2.058099948008021,5.006399873527698,4.280299891870527,5.773899854139017,12.181204230516414,8.931599774368806,16.186099591104721,16.15569959187269-1.332099966348324,1.074199972863426-3.916999901048257.583999985246919-5.453099862243107.781299980262702l-4.672899881952617-1.697299957122596c-1.31009996690409-.243199993856251-3.447799912901246-1.374999965264578-4.564895616392278-.079099998001766-1.347204234255514,1.727999956347048-1.820804222291372,3.47219991228485-.759804249094486,5.4618998620208.207999994745478.661199983296683,1.070804249094181,1.334999966275063,1.718699956581986,2.003399949389859,1.810104292512733,1.339899966151279,3.766199904857785,1.321799966608523,5.005899873540329,2.059099947982759,1.081999972666381.676799982902594,1.722204418972069,1.784699954914686,1.482399962551426,3.09569992179604-.472099988073751,1.963899950387713-1.815399954139139,3.477099912161066-3.588399909349391,4.541999885259429-1.546795634229966.629899984087388-3.308099916430365,1.038099973775388-5.05899987219891.790099980040395-5.244699867507734-.751999981002882-8.918999774687109-3.885799901836435-13.253899665178324-6.590899833499861-1.950699950721173-1.349099965918867-4.597699883852329-.518999986888957-6.595699833378603.979999975243118-4.449299887601228,3.647999907843769-5.638196263474129,8.89209977536666-9.011299772355414,13.654799655050738-.894999977390398,1.081099972689117-1.350999965870869,2.168899945208977-2.671799932504655,2.584999934697407,0,0-.438999988909927-.228999994214973-.434096558614328-.44779998868762.525796556297792-5.032199872875935,3.014096493438046-9.37209976324084,5.941896419475597-13.707999653706793,1.571299960305623-1.946299950832326,3.139103580524534-3.891099901702546,5.343199865019415-4.730999880484887,3.972699899641157-1.464299963008671,8.106999795199954.360899990882899,11.797903715505527,2.399899939373427,1.084895959047572.675799982927856,2.831000000000131.926799976587063,3.509695897791971-.158199996003532.460499988366792-1.083899972618383-.841799978734343-1.985799949834472-1.718695897791804-2.00289994940249-2.618203992648887-.7030999822382-5.692903914975432-.319799991921172-7.627000000000407-2.540999935808941-.207999999999629-.664099983223423.454096122412921-1.090799972444074.895096111272323-1.084999972590595,4.392999889023486-.579099985370704,7.621999807452084,2.763199930195697,11.323699713939277,4.36379988976114,1.089299972481967.456999988455209,3.054204174788538.932099976453173,3.296399916725932-.380899990377657.477999987924704-2.401799939325429-2.796399929356994-3.118099921230169-4.538099885357951-3.807599903811933-2.611299934033013-1.140099971198651-5.248095856579312-.967299975563947-7.631399807214621-2.542499935771048-.429599989147391-.446699988715409-.857899978327623-.89399997741566-.629799984089914-1.547799960899283.229899994192238-.651899983531621.889103934725426-.861799978229101,1.54929996086139-.627899984137912,1.952599950673175.913099976933154,5.617699858084961,4.480899886802945,6.549803973863163,1.425699963983789.244095854508487-1.307599966967246-1.498999999999796-1.995599949586904-2.807104068411718-2.457499937918328-2.180699944910884-.694299982460507-4.355999889958184-1.830099953767785-6.314999840469682-2.521499936301552-2.831999928457662-1.147899971001607-5.89699985102925-1.200599969670293-8.551699783965887.067399998297333-2.874999927371391,1.486799962440273-4.680196307152073,4.306699891203607-5.608399858319899,7.359899814073287-1.150899970925821,3.266099917491374-2.085999947303208,6.539099834808439-3.024899923584599,10.030799746600678-.710999982038629,3.058099922745896-1.423896525247983,6.112299845590314-3.44389652524751,8.708899779994681-1.339803353906063,1.510299961846613-2.24320333108426,3.031299923422921-3.151903308128567,4.7690998795224-2.485299937216041,4.341299890329537-3.0140966918716,9.373999763192842-1.120999971681158,14.010199646072579.427699989195389.667999983124901,1.29979996716429.90189997721609,1.963799950390239.693899982470612.436999988960451-.211899994646956.446299988725514-.649899983582145.673899982975854-1.084999972590595.483299987790815-2.623999933712184-1.221699969137262-5.285099866487144.569299985618272-7.442899811976531.439903360825156-.21279999462422,1.09569997232029.016199999590754,1.309099966929352.458099988427421.605899984693679,2.860799927730113-1.19339996985218,5.460899862046062-.808099979585677,8.538999784286716,1.000903373481378,5.497099861131574,6.425699837673164,8.659699781237578,11.697699704491242,8.096699795460154,5.932099850142549-.773899980449642,11.229999716306338-2.873999927396653,17.141099566979392-2.333999941038201.875999977870379.23629999403056,1.746104102010577.470199988121749,2.398999939396163.702199982260936,1.302199967103661.680099982819229,1.943299950908113,1.789999954780797,2.578104162614181,3.112799921364058v.003399999914109c-.844304206413653-3.5463999104104-3.610904136523459-7.60549980786891-3.610904136523459-7.60549980786891l.807699979595782-1.828599953805679s2.861299927717482.311999992118217,3.723099905946583.110799997200957c1.451199963339604-.343699991317408,1.960899950463499-.539999986358453,2.971199924941175-2.238699943445681.667999983124901-1.279299967682164,3.309099916405103-1.399499964645656,3.671904326040021-3.13529992079566.322195573060526-1.538099961144326-.216804413323189-1.785099954904581-.216804413323189-3.09569992179604,0-2.411099939090491,3.492599911769503-1.806099954374076-.662099983273947-7.841299801912101-.271999993128702-.396999989970936-.381899990352395-1.34809996594413-.161199995927745-1.771999955235515,1.781299955000577-3.408199913901626,4.043999897839967-5.517999860603595,6.24999984211172-8.917899774714897,1.10210455041306-1.697299957122596,1.637199958640849-2.205099944294489,2.350104550413562-4.175799894510419.536195376672367-1.470199962859624.918999999999869-2.269099942677713,1.41019535459327-3.736399905610597.570804645406497-1.717699956607248,1.075699972825532-3.434999913224601,1.075699972825532-6.550699834515399,0-3.438999913123553-6.339895327419072-9.205099767459615-6.339895327419072-9.205099767459615"/>
  <path class="cls-3" d="M91.223096811323558,63.787098388602317c.190999995174934-.073199998150812.384799990279134-.130799996695714.580099985345441-.191899995152198-.195299995066307.061099998456484-.387199990218505.121599996928126-.580099985345441.191899995152198"/>
  <path class="cls-1" d="M91.865696795090116,68.657198265573243c-.888196795090153.425799989243387-1.546899960922019.631899984036863-2.433099938534724,1.056699973305513-3.313999916281318,1.696299957147858-6.718699830271362,8.212399792537326-9.933096856555494,3.991199899173807-1.076702865313564-1.113799971863045.268097100713931-2.845714558014151-.361802883373457-4.393099889020959-.624999984211172-1.76369995544519-2.587899934624147-2.456999937930959-4.123099895841733-2.480899937327194-1.970699950215931-.032799999171402-4.391097220785014.35879999093595-5.300699866093055,2.31928526833417-1.363299965560145,2.605914607244813.783602645307838,5.27591453979494.957999975798884,7.906714473335342-.039099999012251,2.191899944627949.759699980808364,6.813999827863881-2.30809994169249,6.538099834833702-1.747099955864542-.249999993684469-1.701199957024073-2.88129992721224-2.772999929948128-4.213899893547932-.85589745885045-1.330999966376112-1.768997458850208.847699978585297-2.004897458849882,1.719799956554198-.01510000000053.876899977847643-.248999999999796,1.531199961318634.173899999999776,2.413099939039967.40769999999975,1.978999950006255,1.251897473479403,3.750899905244296,1.224100000000362,5.501899861010315.146897470470321,3.950199900209554-2.105000000000473,7.41699981263082-3.703100000000632,11.116199719181168-1.589899999999943,3.042999923127354-4.26129999999921,5.409699863339483-5.190999999999804,8.462899786209164-.916999999999462,2.394099939519947,1.677800000000389,4.413099888515717.972700000000259,7.030799822387053-.239800000000287,1.309099966929352-.697799999999916,2.400386500996319-.720699999999852,3.715299906143628-.009300000000621.437999988935189.198699999999917,1.100086594852655.626899999999296,1.544899960972543,4.325200000000223,3.583999909460545,6.434100000000399,8.222186633880483,8.981997449758637,13.09089966929605.84909997854993,1.551199960813392,2.591802550241482,2.238199943458312,4.114199896066566,2.923286964584804,7.850602654175418,2.328612902741042,15.944899597197946,3.349612876948413,23.325699410743255,7.642612768498111,4.991199873911683,2.937999925779877,8.195299792969308,7.817387231501925,13.183099666966882,10.9691997228947,4.124999895793735,2.267099942728237,8.931199774378911,3.227999918453861,13.339899663005781,1.770999955260777,3.309999916382367-1.256812446654294,6.615199832885992-2.076199947550776,9.92090391345937-3.116199921278167,2.430095774528127-.834999978906126,3.573195745650992-3.664099907437048,2.519999999999527-6.093799846057664-.634804211706069-1.323199966573156-1.27590419551052-2.433999938511988-2.577704162624286-3.113199921353953-.653295837375481-.232899994116451-1.52289996152831-.465899988230376-2.398899939398689-.701699982273567-5.911099850673054-.539999986358453-11.209499716824212,1.560087224309427-17.141099566979392,2.333999941038201-5.271999866818078.562999985777424-10.697296330997233-2.600099934315949-11.698199704478611-8.097199795447523-.384799990279134-3.078099922240654,1.413999964279355-5.677712921281454.807099979610939-8.538999784286716-.211899994646956-.442899988811405-.868196606129459-.67089998305164-1.308099966954615-.458099988427421-1.790999954755534,2.158299945476756-.085999997827457,4.819386851432682-.568899985628377,7.442899811976531-.227999994240236.435099989008449-.236799994017929.873099977943639-.67379998297838,1.085487039455984-.664099983223423.208000000000538-1.53609996119485-.0263870662111-1.964299950377608-.694387049336001-1.893096720190442-4.635699882892368-1.363799965547514-9.668899755743041,1.120999971681158-14.00969964608521.909199977031676-1.738299956086848,1.811099954247766-3.260299917637894,3.151903308128567-4.7690998795224,2.019999999999527-2.597099934391736,2.73339654319625-5.650899857246259,3.444296525237405-8.708999779992155.938999976278865-3.493099911756872,1.874099952656252-6.765099829099199,3.024899923584599-10.032199746565311.927803551177931-3.051699922907574,2.731999930983875-5.872099851658277,5.606999858355266-7.35889981409855,2.656199932898744-1.268999967942364,5.721199855470331-1.214799969311571,8.553199783927994-.066899998309964,1.958999950511497.690899982546398,4.133799895571428,1.826699953853677,6.314899840472208,2.520999936314183,1.308099966954615.461899988331425,3.049799922955572,1.148999970973819,2.806704068421823,2.457999937905697-.931704115788307,3.054699922831787-4.596704023202619-.514099987012742-6.550803973837901-1.426199963971158-.659196026161226-.233899994091189-1.317899966707046-.023999999393709-1.547899960896757.628386003661035-.227999994240236.652813963973131.199799994952627,1.100613952660751.629899984087388,1.547813941363529,2.381899939828145,1.574699960219732,5.020099873181607,1.400899964610289,7.629899807252514,2.541999935783679,1.743199955963064.688999982594396,5.017099873257393,1.405799964486505,4.538099885357951,3.808099903799302-.241195741962656,1.31299996683083-2.20699994424649.837899978832866-3.294899916763825.379899990402919-3.703099906451826-1.600099959578074-6.93119982490316-4.941899875157105-11.325199713901384-4.363299889773771-.439999988884665-.006799999828218-1.102096111297215.421399989354541-.894096111297586,1.085486118424342,1.933096085050238,2.220713798054021,5.009296007338889,1.837913807724362,7.627000000000407,2.541000000000167.877395919044829.016613789543044,2.178195886183858.918913766749029,1.719195897779173,2.002913739364885-.679195897779209,1.084999972590595-2.4247999387444.833999978931388-3.51019589777934.156799996038899-3.691903920280311-2.039099948488001-7.824703815877001-3.862799902417464-11.797903715505527-2.398999939396163-2.204096284494881.839899978782341-3.772899904688529,2.78519992963993-5.342699865032046,4.72999988051015-2.929199926002184,4.335999890463427-5.416099863177806,8.677286323481894-5.942396419462966,13.707999653706793-.004903430295599.22019999443728.433096558639591.448799988662358.433096558639591.448799988662358,1.322199966598419-.415599989501061,1.778299955076363-1.50389996200829,2.673299932466762-2.584999934697407,3.372603508893917-4.762699879684078,4.561999884754186-10.006799747206969,9.010799772368046-13.655799655025476,1.997999949526275-1.498999962132075,4.643999882682692-2.329099941161985,6.596099833368498-.97899997526838,4.334999890488689,2.705099931663426,8.007899797703431,5.838899852496979,13.253999665175797,6.590899833499861,1.750899955768546.247999993734993,3.511704237981576-.159699995965639,5.05899987219891-.790099980040395,1.772999955210253-1.064899973098363,3.114799921313534-2.577599934884347,3.587899909362022-4.541999885259429.239804456420643-1.310513722095493-.399899989897676-2.418899938893446-1.481899962564057-3.09569992179604-1.241199968644651-.737299981374235-3.196295581014965-.71919998183148-5.005899873540329-2.059999947960023-.648395707475174-.667999983124901-1.511199961823877-1.340899966126017-1.719199956569355-2.002999949399964-1.061999973171623-1.990199949723319-.586899985173659-3.732899905699014.759804249094486-5.460899862046062,1.117095703491032-1.296399967250181,3.255295649475556-.164099995854485,4.565395616379647.078599998014397l4.672799881955143,1.697299957122596c1.536199961192324-.197299995015783,4.538099885357951-.144099996359728,5.875999851559754-1.214899969309045-4.163099894831248-7.764099803862337-12.329099688540737-9.94819974868733-16.608899580423895-15.723099602801085-1.506295769470853-1.77981442392047.070799998211442-4.164099894805986,2.058099948008021-5.004899873565591,1.104999972085352-.417999989440432,2.184604282520922.475085449645121,2.826699928591552,1.364699965524778.634299983976234,1.328199966446846.828099979080434,2.86238548412075,1.236299968768435,4.407299888662237-.011199999717064.873999977920903.631899984036863,1.76659995537193,1.499999962106813,2.216799943998922.866699978105316.453099988553731,1.328604423054458-.853999978426145,1.558604423054931-1.505899961957766.260295530995791-2.409199939138489-1.889604414693167-4.636199882879737-.972604437858536-7.033199822326424.901799977218616-1.521999961551046,3.361799915073789-4.105899896276242,1.402799964562291-5.018999873209395-2.831999928457662-1.145999971049605-5.916999850524007-.104999997347477-8.99119552670436.06389999838575-.878904223955942.202199994891998-1.541000000000167.409199989662739-2.421904184976484.613299984506739-1.761699955495715.409185326060651-3.492699911766977-.71919998183148-5.249999867373845-.746099981151929-.214799994573696-.00579999985348-.438999988909927.210999994669692-.442899988811405.429199989157496-.017099999568018.876999977845117.407804041162308,1.760799955518451-.042899998916255,2.41159993907786-1.339899966151279,1.289099967434595-3.077199922263389.385299990266503-4.383295959922179-.078599998014397-2.175803874381018-.913999976910418-3.681703836338784-2.696299931885733-6.083999999999833-3.177199919737177-.876999999999498-.013714703271944-1.75290373136977-.026899999320449-2.625-.261714703271537-3.483903621327954-1.377000000000407-6.283703550599057-4.277385182061153-10.005903456568376-4.558085174970074-4.815899878340133-.523999986762647-9.856899750993762-.614299984481477-13.852999650043785,2.388599939658889-.225096893387672.210485235311353-.017096893388043.874999977895641.414099989538954,1.100099972209136,1.096199972307659.240299993929511,2.197199944494059.038099999037513,3.295899916738563-.160099995955534,2.646903200335146-1.052799973404035,5.964299849329109-2.529799936091877,8.3402997893063-.512699987048109,1.082999972641119.675799982927856-.036099999088037,1.975099950104777-1.136199971297174,2.171799945135717-2.415099938989442.179199995473027-4.814999878362869-.521899986815697-7.022999822584097.534199986504973"/>
  <path class="cls-5" d="M117.19769615514997,111.742197177154594c-.765099980671948.76169998075784-2.329099941161985.584899985224183-2.329099941161985,2.039999948465265,0,.705099982187676,1.076199972812901.84909997854993,1.076199972812901,1.351099965868343,0,.9525999759353-1.876899952585518,4.951699874909536-2.554199935475481,5.942899849869718-1.087899972517334,1.583999959984794-.539999986358453,1.90818663868049.742199981250451.810999979512417,4.122099895866995-3.546899910397769,4.196799893979914-7.602999807932065,6.824703767423671-7.602999807932065,1.752896015887927,0,2.075196007745944,1.372099965337839,2.971195985111081,1.372099965337839s1.065899973073101-.387299990215979,1.94189995094348-.387299990215979c2.304199941791012,0,1.88329995242384,2.304199941791012,3.436999913174077,2.304199941791012.608904150772105,0,.789099980065657-.360299990898056,1.928199951289571-.360299990898056,1.136704199481755,0,1.752999955715495,1.623999958974309,2.40579993922438,1.623999958974309.654299983470992,0,1.39890426025795,0,1.39890426025795.794399979931768,0,.95808660217881-.887704273171948,2.345799940740108-1.432604259406617,3.506899911408254-.503395740593987,1.066899973047839-1.622099959022307,2.489699937104888-1.657199958135607,3.180186690770824,2.668899932577915-1.218286740332587,3.903804217541619-4.895999999999731,5.592699858716514-5.926286621398503.462399988318793-.281713378601125.748104358825913-.960899975725624.541104358825578-1.393099964807334-.682704355248461-1.066899973047839-.422904361811561-1.345699966004759-.377999999999702-1.917899951549771.015195636669887-.213899994596431-.14600000000064-.462899988306162-.360804353831554-.4638999882809-.64209998377919-.01609999959328-.928195646169115.436999988960451-1.690899957284273.228999994214973-.97609997534164-.266099993277749-1.004899974614091-.958999975773622-1.67429568888474-1.216299969273678-.626999999999498-.242699993868882-1.515704230529082.080099997976504-1.886804221154307-.035699999098142-.725099981682433-.225099994313496-.951099975973193-1.001899974689877-1.33489996627759-1.122999971630634-.384295812567871-.111813528175844-.84909997854993.063999998383224-1.351099965868343.063999998383224-1.206099969531351,0-1.087899972517334-1.360899965620774-1.920899951473984-1.360899965620774-.619099984360219,0-.576199985443964.40579998974863-1.423295895225237.40579998974863-1.563000000000102,0-1.118704040558441-1.708999956827029-2.504904005540084-1.708999956827029-.926799976587063,0-1.395999964734074.380899990377657-1.992699949660164.380899990377657-1.226999969003373,0-1.12209997165337-1.95461358423745-2.587396044799789-1.95461358423745-.989703864835064,0-1.028803863847315.691913616135935-1.780803844850197,1.444813597116081"/>
  <path class="cls-1" d="M143.657695486714147,106.215797316763201c-.710899982041155,1.535199961217586-2.980999924693606,6.254899841987935.022999999418971,6.561999834229937,1.287999967462383.133799996619928,3.116199921278167-3.481899912039808,3.628899908326275-4.602999883718439.695299982435245-1.504899961983028,1.386199964981643-3.415999913704582,1.721199956518831-4.680199881768203.140099996460776-.532699986542866.092704649021471-1.265099968040886-1.268099967965099-1.265099968040886-1.356899965721823,0-3.339899915627029,2.340299940879049-4.104999896298978,3.986299899297592"/>
  <path class="cls-5" d="M147.164499999999862,87.385697792451538c.676795381027659,1.58889995986101,2.048895346365498,3.696799906610977,2.110895344799246,4.102099896372238,0,0,.02929999925982-1.542999961020541-.120099996966019-2.723199931206182-.203699994854105-1.628899958850525-.339899991413404-2.142999945863266-.744699981187296-3.439899913100817-.204095366645561-.643999983731192-.806095366646332-1.910099951746815-1.855899953116023-1.410099964377878-.746099981151929.359785699899476-.086399997817352,1.837785699899541.609804586470091,3.471099912312638"/>
  <path class="cls-5" d="M149.99359532665585,87.030297801429697c.786199980138917,2.803699929172581.803799979694304,5.693799856162514.803799979694304,5.693799856162514,2.892999926916673-6.062999846835737.139104693649642-11.886714077553734-1.243699968581495-11.466799710324267-1.909195337768324.574699985481857-.044899998865731,4.067899897236202.439899988887191,5.772999854161753"/>
  <path class="cls-4" d="M123.462395996890336,136.171896560008463c-3.865199902356835,0-7.896999800505,2.106899946775229-9.307099764882878,2.720699931269337-1.408699964413245.617199984408217-5.411699863288959,1.384299965029641-6.048899847191933,1.433099963796849-1.829999953770312.144999996336992-3.94089638481546.073199998150812-3.94089638481546.861299978241732,0,.633799983988865,3.127896405353567.785699980151549,4.692896365818342.785699980151549,3.11179992138932,0,7.588899808288261-2.934599925865768,12.564899682583928-2.934599925865768,1.719299956566829,0,4.582999884223682.571799985555117,5.690899856235774,1.000999974712613,1.112399971898412.431599989096867,1.289099967434595-2.935099925853137,1.289099967434595-2.935099925853137,0,0-1.608899959355767-.932099976453173-4.940899875182367-.932099976453173"/>
  <path class="cls-1" d="M137.117695651928443,135.766596570247202c.804199979684199-.41109998961474,2.937999925779877-.955099975872145,2.937999925779877-3.030299923448183,0-1.170913066760477-.29199999262346-1.061999973171623-.29199999262346-2.378913066761015,0-1.320786839776702,1.252899968349084-2.126000000000204,1.495099962230597-3.219686791806453.029799999247189-1.754399955680128-1.480999962586793-3.311999916331843-2.329099941161985-4.86431320819338-2.674799932428868,2.585000000000036-6.203099843296513,3.839913234071901-8.447799786590622,6.64991316308533-1.343199966067914,1.511299961821351-2.438499938398309,3.704086836914939-1.754395819562887,5.874086836915012.643095847636687,2.049312962923068-.117604133146415,3.703112921144566,1.110395835831696,3.954999999999927,2.577604164168406.525912901495758,4.102999896349502.163112910660857,5.155699869756063-.596087070160138,1.90290429441211-1.224699969061476,1.145099971072341-1.886799952335423,2.124099946340721-2.3896999396311"/>
  <path class="cls-6" d="M81.965297045195257,99.420897488416813c-1.689899957309535,2.170899945158453-3.302199916579411,4.235799892994692-5.269999866868602,6.352999839509721-1.314899966782832,1.481999962561531-1.990199949723319,3.188999919439084-3.308099916430365,4.88579987657431-2.645999933156418,3.822199903443106-1.001999974687351,7.935999799519777.441899988836667,11.61419970660063.198199994993047.864799978153314.161099995930272,3.012699923892797-1.336899966227065,2.769999930023914-1.070799972949317-.234299994081084-1.698799957084702-1.318299966696941-2.331099941111461-2.189899944678473-1.863699952918978-3.90229990141961-3.082999922116869-8.007299797718588-2.5775973433947-12.29539968939207,1.2167973777714-7.932599799605669,7.321797223546127-12.982899672024359,11.939897106883109-19.134799516614294,2.196799944504164-2.755799930382636.106999997296953-6.017099847995269.587899985148397-9.016099772234156.013202907968662-.646999983655405.671899983026378-1.492699962291226,1.522999961525784-1.048799973505083,3.184999919540132,2.205099944294489,3.544899910448294,6.29489984097745,3.482899912014545,9.732899754126265.163099995879747,3.013199923880165-1.172899970370054,5.78319985390408-3.151899920376309,8.329099789589236"/>
  <path class="cls-6" d="M91.917499999999563,95.509797587219509c1.121096765460607-1.601099959552812,2.563896729012413-2.631414007180865,3.493096705538846-3.163099920093373.932699976438016-.5303140870883,4.781799879201571-2.926314087088031,6.692903294461757-1.60499995945429,1.912096488157658,1.326685872366397-1.887203415863951,2.780799929751083-2.616203397447862,3.144999920550617-.731899981510651.361799990860163-1.320796602552036.870099978019425-2.409699939125858,1.498099962154811-.870096663426921.63179998403939-2.621096663426215,2.533699935993354-1.343199966067914,2.983899924620346.857899978327623.231899994141713,2.395999939471949-1.462899963044038,3.891103302641568-1.221199969149893.643000000000029.22599999429076,1.275896566829033.882299977711227,1.043896572689846,1.741199956013588-.218699994475173.424799989268649-.656699983410363.845686078177096-1.09569997232029,1.267099967990362,0,0-2.144999945812742,2.716799931367859-3.493099911756872,4.14889989518997-.913096688613223.968686214996524-1.596199959676596,1.628899958850525-3.189999919413822,3.210899918885843-1.474096769198695,1.466786296110513-3.633299908215122,4.927786296110753-4.095199896546546,6.849099826977181-.250999993659207,2.149899945688958,1.000999974712613,4.104999896298978.320299991908541,6.242686469133332-.675299982940487,1.919913324662048-1.354999965769821,3.844313276047615-1.820299954015354,5.770000000000437-.261699993388902,2.79011315691605.986299975083966,5.173413096708828,2.01899994899577,7.556213036514237.409199989662739,1.084999972590595.81689997936337,2.379899939878669-.06099999845901,3.438999913123553-.438999988909927.419899989392434-1.080999972691643.409099989665265-1.50679996193503.186999995275983-3.803299903920561-3.720699906007212-6.303299840765249-8.274899790958443-7.074199821290676-13.449212944913597-1.17289707785676-6.676786546660878,3.997999899002025-13.592786371948023,6.535102922142869-17.293000000000575,2.537096848674082-3.69968618501025,3.592796822004857-9.705586033288455,4.710000000000036-11.307585992818531"/>
  <path class="cls-5" d="M87.541996904315965,93.535597637091996c.213399994609063-1.741699956000957,2.541999935783679-1.718699956581986,3.795399904120131-1.444799963501282,1.608899959355767.32079999189591,5.827599852782441,1.066899973047839,7.752899804145272,2.398899939398689-.985299975109228.036199999085511-1.765099955409823.138199996508774-2.770999929998652.204099994844-3.018999923733645.197799995003152-8.993099772815185.581099985320179-8.777299778266752-1.158199970741407M92.618196776080367,99.966797474626219c-3.017099923781643-.054199998630793-7.277899816144782-.300799992401153-7.516199810124817,1.18599997003912-.237799993992667,1.490799962339224,1.380399965128163,1.118699971739261,1.727099956369784,1.148999970973819.579099985370704.049799998741946,6.980899823647633-.163099995879747,12.310999688997981-1.466799962945515-2.253899943061697-.541099986330664-4.257799892438925-.831099979004648-6.521899835242948-.868199978067423M93.472196754506513,104.839797351523885c-2.010799949202919-.035099999113299-5.062999872097862.895999977365136-4.772999879423878,2.776899929849606.410199989637476,2.70309993171395,11.16799971787259-2.258799942937912,12.368199687552988-2.799799929271103,0,0-5.332099865299824.06099999845901-7.595199808129109.022899999421497"/>
  <path class="cls-6" d="M98.518996627013621,74.348598121796385c-2.210899944147968,1.056699973305513-4.332999890539213,2.07178545824172-5.443799862478045,4.202199893843499-.449199988652254,1.066899973047839.175799995558918,2.149899945688958,1.243599968584022,2.599585564398694.638199983877712.22611436421812,1.289099967434595.020999999999731,1.939999950991478-.39600000000064,3.038099923251139-1.66408557802697,6.970199823917937-5.251999999999498,10.35109973850922-1.967785570354863,2.157199945504544-.390099990145245,4.952099874899432-.55709998592647,6.203099843296513,1.830099953767785,1.03709997380065,1.949685616586976.776799980376381,4.523899885716673-1.177799970246269,5.778799854015233-2.172299945123086,1.467799962920253-4.526299885656044.782199980239966-6.694299830887758,1.819799954027985-.862799978203839.199299994965259-1.723099956470833.184085808544296-2.575699934932345-.261699993388902-2.769999930023914-1.337899966201803-4.86809987702145-4.169899894659466-8.297299790392572-4.659214198067275-2.360899940358649-.256785677744119-4.746099880103429.994214290652963-6.868699826482043-.546785670418103-2.546399935672525-1.981999949930469-.982399975182489-5.390214329581795,1.196799969766289-7.07429982128815,1.306099967005139-.835914508293172,2.802199929210474-.380799990380183,3.88909990175307-1.218699969213048,1.533699961255479-1.477999962662579,3.06109992267011-2.743214539080327,5.003999873588327-3.354999915245571,1.725999956397573-.398899989922938,5.157699869705539-.121099996940757,4.686999881596421,2.233899943566939-.235899994040665,1.285199967533117-2.15919994545402.393099990069459-3.457099912666308,1.015099974356417"/>
  <path class="cls-6" d="M125.218295952532571,83.840797882003244c1.515099961725355,1.044899973603606,4.489699886580638,1.583999959984794,3.799799904008978,3.934099900616275-.897999977314612,2.35009994063148-3.698799906560453,2.728999931059661-5.825699852830439,1.618699959108199-1.281299967631639-.668999983099638-2.769999930023914-1.55379996074771-4.064999897309463-1.148999970973819-1.300299967151659.408199989688001-2.177199944999302,1.470199962859624-3.468199912385899,1.659199958085082-1.076199972812901-.01609999959328-2.561099935301172-1.117199971777154-2.109899946699443-2.397899939423951.885699977625336-1.490299962351855,1.989799949733424-2.97609992481739,2.018099949018506-4.692399881460005.01899999952002-1.074699972850794-.178299995495763-2.153799945590436-.808099979585677-3.023899923609861-2.095199947070796-3.046899923028832-5.980999848907231-2.041999948414741-8.080099795879505-4.869699876981031-1.686999957382795-1.965299950352346.502899987295677-4.288999891650747,2.667999932600651-5.111299870877701,3.024899923584599-1.019999974232633,5.13079987038509,1.592299959775119,7.03019982240221,3.560999910041573,1.694899957183225,1.321299966621154,3.627999908349011,1.567899960391514,5.770999854212278,1.817899954075983,1.07379997287353.022499999431602.832499978969281,1.518999961626832.400899989872414,1.731399956261157-2.604999934192165,1.45609996321582-5.369099864365126-.311999992118217-7.9320997996183-1.216299969273678-.215799994548433-.00289999992674-.858899978302361-.227999994240236-.863799978178577.203199994866736.20699999477074.432099989084236.844699978661083.871099977994163,1.270999967891839,1.090799972444074,2.140599945923896.469199988147011,4.497599886381067.943299976170238,5.096699871246528,3.31589991623332.183099995374505,1.937499951054633-.714899981940107,4.070299897175573,1.203099969607138,5.178199869187665.423799989293911.224099994338758,1.072799972898792.019099999517493,1.295899967262812-.405699989751156.003899999901478-.431199989106972.229999994189711-.858399978314992.021999999444233-1.291999967361335-.62309998425917-1.297399967224919-1.888699952287425-2.611399934030487-1.434099963771587-4.107499896235822.222199994386756-.424799989268649,1.08539997258049-.624999984211172,1.513199961773353-.403799989799154,1.062999973146361.665099983198161,1.043899973628868,1.739799956048955,1.02679997406085,2.814999928887119.199299994965259.646999983655405.835999978880864,1.304199967053137,1.470299962857098,1.744099955940328"/>
  <path class="cls-5" d="M108.193796382607616,86.549797813568148c1.770999955260777-.746099981151929,2.624999933686922-2.533199936005985,2.224199943811982-4.258299892426294-.397999989945674-1.723599956458202-2.105999946797965-2.400899939348164-3.815999903599732-2.860799927730113-1.933099951165786-.249099993707205-3.883299901899591.578099985395966-4.765099879623449,2.066899947785714-.667999983124901,1.279299967682164-.47999998787418,2.783199929690454.792999979967135,3.666999907363788,1.703099956976075,1.103999972110614,3.614699908684997,2.20989994417323,5.563899859444064,1.385199965006905"/>
  <path class="cls-6" d="M108.019996386998173,84.184597873318125c-1.493199962278595.185999995301245-2.121099946416507-1.542999961020541-1.882799952436471-2.827214293280122.219699994449911-.213785629897757.225599994300865-.643000000000029.659699983334576-.849085613848729.86229997821647-.198699994980416,1.508299961897137-.187999995250721,2.133299946108309.685999982670182.627899984137912,1.082999972641119.59959998485283,2.80129992923321-.910199977006414,2.990299924458668"/>
  <path class="cls-5" d="M128.82959586130346,135.700196571924607c-.770999980522902,1.823699953929463-2.207095861303969,3.187999919464346-2.027899948770937,5.338899865128042.206099994793476.432099989084236.845699978635821.873999977920903,1.281804087467208.451099988604255,1.307095847131677-1.05319997339393,1.768095835485838-2.763099930198223,2.222195824014307-4.259199892403558.457999988429947-1.498099962154811.919899976761371-3.424799913482275-.130899996693188-4.730999880484887-.873999977920903.84329997869645-.895999977365136,2.1298999461942-1.34519996601739,3.200199919156148"/>
  <path class="cls-5" d="M112.51019627356618,135.347696580829506c-.131799996670452-1.298399967199657-.304199992315262-2.952199925421155-1.362299965585407-3.830099903243536-.646899983657931,1.002899974664615-.18059999543766,6.553699834439612-1.396899964711338,10.596699732304842-.061999998433748.210399994684849.395999989996199.611299984557263.788099980090919.717199981882004,1.058099973270146.290099992671458,1.664999957938562-.54099998633319,1.895899952105538-1.607899959381029.034199999136035-1.935999951092526.287199992744718-3.690899906760023.075199998100288-5.875899851562281"/>
  <path class="cls-2" d="M137.798295634735041,102.158197419266799c.307204365264624.542999986282666.895999977365136,1.029799973985064,1.446799963450758.83589997888339,1.112299971900939-.791999979992397,1.741199956013588-2.026799948798725,2.852099927949894-2.818799928791123,1.104899972087878-.589399985110504,3.231899918355339-1.361299965610669,3.434999913224601-2.5731999349955.580099985345441-1.815999954123981-1.15379997085256-3.781799904463696-3.215799918762059-2.654799932934111-1.564895520597929.858899978302361-3.63139990826312,1.105899972062616-5.239299867644149.627899984137912-1.409595652954522-.340814005528955-4.178699894437159-2.558099935376958-5.901799850907992-.505899987219891-.934099976402649,1.20369996959198-.317899991969171,2.351599940593587.578099985395966,3.379899914616544,1.612799959257245,1.654799958196236,4.873104212558246,1.627899958875787,6.044899847292982,3.708999906302779"/>
</svg>